<svg xmlns="http://www.w3.org/2000/svg" viewBox="0 0 576.76 234.64"><defs><style>.cls-1,.cls-2{fill:none;stroke:#a7a6a6;stroke-width:0.5px;}.cls-1{stroke-dasharray:1 1;}.cls-2{stroke-linecap:square;}.cls-3{fill:#444545;}.cls-4{fill:#e77625;}.cls-5{fill:#83c55e;}.cls-6{fill:#0e93d1;}.cls-7{fill:#034e81;}.cls-8{fill:#fff;}.cls-9{font-size:12px;font-family:Roboto-Medium, Roboto;font-weight:500;}.cls-14,.cls-15,.cls-9{fill:#231f20;}.cls-10{letter-spacing:-0.01em;}.cls-11{letter-spacing:-0.01em;}.cls-12{letter-spacing:-0.01em;}.cls-13{letter-spacing:-0.02em;}.cls-14,.cls-15{font-size:11px;}.cls-14{font-family:Roboto-Bold, Roboto;font-weight:700;}.cls-15{font-family:Roboto-Regular, Roboto;}.cls-16{letter-spacing:-0.02em;}.cls-17{letter-spacing:-0.01em;}</style></defs><title>Chart NGO InvolvmementV5</title><g id="Layer_1" data-name="Layer 1"><path class="cls-1" d="M656.11,294.12v192m77-192v192m77-192v192" transform="translate(-459.52 -266.58)"/><path class="cls-2" d="M580.11,293.62h307m0,192v-192m-307,192v-192" transform="translate(-459.52 -266.58)"/><line class="cls-2" x1="120.59" y1="219.04" x2="427.59" y2="219.04"/><path class="cls-3" d="M578.66,496.92a3.92,3.92,0,0,0-.56-2.27,2.3,2.3,0,0,0-3.39,0,4,4,0,0,0-.54,2.33v1.2a3.89,3.89,0,0,0,.57,2.26,1.93,1.93,0,0,0,1.68.75,2,2,0,0,0,1.7-.77,4.16,4.16,0,0,0,.54-2.36v-1.17Zm-.91,1.41a3.36,3.36,0,0,1-.33,1.64,1.11,1.11,0,0,1-1,.51,1.09,1.09,0,0,1-1-.55,3.36,3.36,0,0,1-.34-1.7v-1.44a3.28,3.28,0,0,1,.33-1.61,1.25,1.25,0,0,1,2,0,3.28,3.28,0,0,1,.32,1.68v1.47Zm2-2.61a1.41,1.41,0,0,0,1.46,1.5,1.4,1.4,0,0,0,1.45-1.46v-.35a1.49,1.49,0,0,0-.41-1.08,1.38,1.38,0,0,0-1-.42,1.4,1.4,0,0,0-1.45,1.47v.34Zm.67-.32a1,1,0,0,1,.21-.65.77.77,0,0,1,1.14,0,.92.92,0,0,1,.21.63v.36a1,1,0,0,1-.21.65.71.71,0,0,1-.56.24.7.7,0,0,1-.57-.25.88.88,0,0,1-.22-.63v-.35Zm2.79,4.33a1.49,1.49,0,0,0,.41,1.09,1.46,1.46,0,0,0,1,.41,1.4,1.4,0,0,0,1.45-1.47v-.35a1.42,1.42,0,0,0-.41-1.08,1.46,1.46,0,0,0-2.5,1.05v.35Zm.67-.33a1,1,0,0,1,.22-.66.71.71,0,0,1,.56-.24.7.7,0,0,1,.57.25.93.93,0,0,1,.22.63v.36a1,1,0,0,1-.21.66.72.72,0,0,1-.57.24.7.7,0,0,1-.57-.25.88.88,0,0,1-.22-.63v-.36Zm1-4.37-.51-.32-3.48,5.55.52.33,3.47-5.56Z" transform="translate(-459.52 -266.58)"/><path class="cls-3" d="M651.86,500.39h-3.57l1.9-2.07a4.09,4.09,0,0,0,1.34-2.5,1.73,1.73,0,0,0-.58-1.38,2.21,2.21,0,0,0-1.56-.52,2.34,2.34,0,0,0-1.69.6,2.08,2.08,0,0,0-.64,1.59H648a1.47,1.47,0,0,1,.37-1.07,1.42,1.42,0,0,1,1-.38,1.22,1.22,0,0,1,.9.35,1.31,1.31,0,0,1,.33.92,1.79,1.79,0,0,1-.2.8,5.58,5.58,0,0,1-.76,1l-2.46,2.73v.65h4.66v-.73Zm2.27-2.52h.68a1.64,1.64,0,0,1,1.1.34,1.21,1.21,0,0,1,.38,1,1.32,1.32,0,0,1-.35,1,1.35,1.35,0,0,1-1,.34,1.4,1.4,0,0,1-1-.33,1.16,1.16,0,0,1-.37-.9h-.91a1.79,1.79,0,0,0,.63,1.43,2.41,2.41,0,0,0,1.63.54,2.37,2.37,0,0,0,1.63-.56,2,2,0,0,0,.62-1.52,1.74,1.74,0,0,0-.32-1.05,1.66,1.66,0,0,0-.91-.61,1.84,1.84,0,0,0,.82-.65,1.57,1.57,0,0,0,.3-.9,1.92,1.92,0,0,0-.57-1.48,2.21,2.21,0,0,0-1.58-.53,2.24,2.24,0,0,0-1.57.56,1.81,1.81,0,0,0-.61,1.4h.9A1.2,1.2,0,0,1,654,495a1.29,1.29,0,0,1,.93-.33,1.24,1.24,0,0,1,.88,2.13,1.49,1.49,0,0,1-1,.34h-.68v.74Zm4.22-2.15a1.44,1.44,0,0,0,.42,1.09,1.42,1.42,0,0,0,1.05.41,1.4,1.4,0,0,0,1.44-1.46v-.35a1.49,1.49,0,0,0-.4-1.08,1.52,1.52,0,0,0-2.1,0,1.42,1.42,0,0,0-.41,1.05v.34Zm.68-.32a1,1,0,0,1,.21-.65.77.77,0,0,1,1.14,0,.92.92,0,0,1,.21.63v.36a1,1,0,0,1-.21.65.73.73,0,0,1-.56.24.72.72,0,0,1-.58-.25.92.92,0,0,1-.21-.63v-.35Zm2.78,4.33a1.42,1.42,0,0,0,1.47,1.5,1.39,1.39,0,0,0,1-.42,1.42,1.42,0,0,0,.41-1.05v-.35a1.46,1.46,0,0,0-.41-1.08,1.55,1.55,0,0,0-2.1,0,1.42,1.42,0,0,0-.41,1.05v.35Zm.68-.33a.92.92,0,0,1,.22-.66.71.71,0,0,1,.56-.24.7.7,0,0,1,.57.25.92.92,0,0,1,.21.63v.36a1,1,0,0,1-.21.66.71.71,0,0,1-.56.24.73.73,0,0,1-.58-.25.92.92,0,0,1-.21-.63v-.36Zm1-4.37-.51-.32-3.47,5.55.51.33,3.47-5.56Z" transform="translate(-459.52 -266.58)"/><path class="cls-3" d="M728,494h-1l-3.18,4.93v.53h3.24v1.65h.9v-1.65h1v-.73h-1V494Zm-1,1.43.11-.19v3.49h-2.22l2.11-3.3Zm4,2.3.24-.19a1.53,1.53,0,0,1,.93-.26,1.31,1.31,0,0,1,1,.43,1.65,1.65,0,0,1,.39,1.15,1.77,1.77,0,0,1-.36,1.18,1.21,1.21,0,0,1-1,.43,1.31,1.31,0,0,1-.92-.31,1.41,1.41,0,0,1-.44-.92H730a2.09,2.09,0,0,0,.67,1.45,2.24,2.24,0,0,0,1.54.52,2.16,2.16,0,0,0,1.66-.63,2.41,2.41,0,0,0,.59-1.73,2.53,2.53,0,0,0-.57-1.74,1.94,1.94,0,0,0-1.54-.64,2.27,2.27,0,0,0-1.19.31l.22-1.94h2.87V494h-3.64l-.36,3.55.72.18Zm4.4-2a1.44,1.44,0,0,0,.42,1.09,1.42,1.42,0,0,0,1.05.41,1.4,1.4,0,0,0,1.44-1.46v-.35a1.49,1.49,0,0,0-.4-1.08,1.52,1.52,0,0,0-2.1,0,1.42,1.42,0,0,0-.41,1.05v.34Zm.68-.32a1,1,0,0,1,.21-.65.77.77,0,0,1,1.14,0,.92.92,0,0,1,.21.63v.36a1,1,0,0,1-.21.65.73.73,0,0,1-.56.24.72.72,0,0,1-.58-.25.92.92,0,0,1-.21-.63v-.35Zm2.78,4.33a1.42,1.42,0,0,0,1.47,1.5,1.39,1.39,0,0,0,1-.42,1.42,1.42,0,0,0,.41-1.05v-.35a1.46,1.46,0,0,0-.41-1.08,1.55,1.55,0,0,0-2.1,0,1.42,1.42,0,0,0-.41,1.05v.35Zm.68-.33a.92.92,0,0,1,.22-.66.71.71,0,0,1,.56-.24.7.7,0,0,1,.57.25.92.92,0,0,1,.21.63v.36a1,1,0,0,1-.21.66.71.71,0,0,1-.56.24.73.73,0,0,1-.58-.25.92.92,0,0,1-.21-.63v-.36Zm1-4.37-.51-.32-3.47,5.55.51.33,3.47-5.56Z" transform="translate(-459.52 -266.58)"/><path class="cls-3" d="M804.58,494a3.09,3.09,0,0,0-2.49,1.06,4.66,4.66,0,0,0-.84,3v.35a3.15,3.15,0,0,0,.64,2,2,2,0,0,0,1.65.78,2.07,2.07,0,0,0,1.61-.66,2.5,2.5,0,0,0,.6-1.76,2.53,2.53,0,0,0-.56-1.69,1.85,1.85,0,0,0-1.48-.65,1.91,1.91,0,0,0-1.53.64,2.54,2.54,0,0,1,.72-1.7,2.39,2.39,0,0,1,1.68-.62h.16V494Zm-.08,3.65a1.91,1.91,0,0,1,.35,1.19,1.81,1.81,0,0,1-.35,1.17,1.14,1.14,0,0,1-1,.45,1.19,1.19,0,0,1-1-.53,2.3,2.3,0,0,1-.4-1.42v-.33a1.47,1.47,0,0,1,.54-.7,1.43,1.43,0,0,1,.86-.28,1.14,1.14,0,0,1,.94.45Zm6-3.22a2.48,2.48,0,0,0-3,0,1.85,1.85,0,0,0-.57,1.43,1.69,1.69,0,0,0,.27.94,1.83,1.83,0,0,0,.75.65,2,2,0,0,0-.87.7,1.82,1.82,0,0,0-.32,1,1.86,1.86,0,0,0,.62,1.47,2.72,2.72,0,0,0,3.28,0,2,2,0,0,0,.3-2.51,2.09,2.09,0,0,0-.88-.69,2,2,0,0,0,.76-.65,1.73,1.73,0,0,0,.28-.95,1.86,1.86,0,0,0-.58-1.43Zm-.52,5.69a1.36,1.36,0,0,1-1,.35,1.39,1.39,0,0,1-1-.34,1.27,1.27,0,0,1-.36-1,1.34,1.34,0,0,1,.37-1,1.37,1.37,0,0,1,2.35,1,1.26,1.26,0,0,1-.36.95Zm-.14-5.13a1.35,1.35,0,0,1,0,1.76,1.18,1.18,0,0,1-.87.33,1.14,1.14,0,0,1-.86-.33,1.18,1.18,0,0,1-.33-.88,1.21,1.21,0,0,1,.33-.89,1.17,1.17,0,0,1,.86-.33,1.15,1.15,0,0,1,.86.34Zm2.46.72a1.44,1.44,0,0,0,.42,1.09,1.42,1.42,0,0,0,1.05.41,1.4,1.4,0,0,0,1.44-1.46v-.35a1.49,1.49,0,0,0-.4-1.08,1.52,1.52,0,0,0-2.1,0,1.42,1.42,0,0,0-.41,1.05v.34Zm.68-.32a1,1,0,0,1,.21-.65.77.77,0,0,1,1.14,0,.92.92,0,0,1,.21.63v.36a1,1,0,0,1-.21.65.73.73,0,0,1-.56.24.72.72,0,0,1-.58-.25.92.92,0,0,1-.21-.63v-.35Zm2.78,4.33a1.42,1.42,0,0,0,1.47,1.5,1.39,1.39,0,0,0,1-.42,1.42,1.42,0,0,0,.41-1.05v-.35a1.46,1.46,0,0,0-.41-1.08,1.55,1.55,0,0,0-2.1,0,1.42,1.42,0,0,0-.41,1.05v.35Zm.68-.33a.92.92,0,0,1,.22-.66.71.71,0,0,1,.56-.24.7.7,0,0,1,.57.25.92.92,0,0,1,.21.63v.36a1,1,0,0,1-.21.66.71.71,0,0,1-.56.24.73.73,0,0,1-.58-.25.92.92,0,0,1-.21-.63v-.36Zm1-4.37-.51-.32-3.47,5.55.51.33,3.47-5.56Z" transform="translate(-459.52 -266.58)"/><path class="cls-3" d="M881,499.78a2.51,2.51,0,0,1-1.72.58h-.19v.77h.17a3.16,3.16,0,0,0,2.48-1,4.59,4.59,0,0,0,.82-3v-.26a3.44,3.44,0,0,0-.61-2.16,2,2,0,0,0-1.66-.78,2.2,2.2,0,0,0-1.16.3,2,2,0,0,0-.77.87,3,3,0,0,0-.27,1.29,2.85,2.85,0,0,0,.25,1.21,1.87,1.87,0,0,0,1.77,1.16,1.83,1.83,0,0,0,.87-.21,2.34,2.34,0,0,0,.67-.54,2.48,2.48,0,0,1-.65,1.78Zm-1.67-2.25a1.94,1.94,0,0,1-.35-1.2,1.91,1.91,0,0,1,.36-1.21,1.16,1.16,0,0,1,.95-.45,1.15,1.15,0,0,1,1,.55,2.51,2.51,0,0,1,.39,1.45V497a1.77,1.77,0,0,1-.56.69,1.39,1.39,0,0,1-.84.28,1.1,1.1,0,0,1-.93-.47Zm8.93-.61a3.93,3.93,0,0,0-.55-2.27,2,2,0,0,0-1.69-.73,1.94,1.94,0,0,0-1.7.76,4,4,0,0,0-.54,2.33v1.2a4,4,0,0,0,.56,2.26,2,2,0,0,0,1.69.75,1.94,1.94,0,0,0,1.69-.77,4.16,4.16,0,0,0,.54-2.36v-1.17Zm-.9,1.41A3.24,3.24,0,0,1,887,500a1.22,1.22,0,0,1-2,0,3.37,3.37,0,0,1-.33-1.7v-1.44a3.18,3.18,0,0,1,.33-1.61,1.08,1.08,0,0,1,1-.52,1.12,1.12,0,0,1,1,.52,3.39,3.39,0,0,1,.32,1.68v1.47Zm2-2.61a1.44,1.44,0,0,0,.42,1.09,1.42,1.42,0,0,0,1.05.41,1.4,1.4,0,0,0,1.44-1.46v-.35a1.49,1.49,0,0,0-.4-1.08,1.52,1.52,0,0,0-2.1,0,1.42,1.42,0,0,0-.41,1.05v.34Zm.68-.32a1,1,0,0,1,.21-.65.77.77,0,0,1,1.14,0,.92.92,0,0,1,.21.63v.36a1,1,0,0,1-.21.65.73.73,0,0,1-.56.24.72.72,0,0,1-.58-.25.92.92,0,0,1-.21-.63v-.35Zm2.78,4.33a1.42,1.42,0,0,0,1.47,1.5,1.39,1.39,0,0,0,1-.42,1.42,1.42,0,0,0,.41-1.05v-.35a1.46,1.46,0,0,0-.41-1.08,1.55,1.55,0,0,0-2.1,0,1.42,1.42,0,0,0-.41,1.05v.35Zm.68-.33a.92.92,0,0,1,.22-.66.71.71,0,0,1,.56-.24.7.7,0,0,1,.57.25.92.92,0,0,1,.21.63v.36a1,1,0,0,1-.21.66.71.71,0,0,1-.56.24.73.73,0,0,1-.58-.25.92.92,0,0,1-.21-.63v-.36Zm1-4.37-.51-.32-3.47,5.55.51.33,3.47-5.56Z" transform="translate(-459.52 -266.58)"/><rect class="cls-4" x="121.09" y="172.54" width="127" height="38"/><rect class="cls-5" x="121.09" y="127.54" width="234" height="38"/><rect class="cls-6" x="121.09" y="81.54" width="276" height="38"/><rect class="cls-7" x="121.09" y="35.54" width="297" height="38"/><path class="cls-8" d="M684.89,459.21h.82a2.06,2.06,0,0,1,1.32.41,1.46,1.46,0,0,1,.45,1.15,1.59,1.59,0,0,1-.41,1.18,1.93,1.93,0,0,1-2.38,0,1.41,1.41,0,0,1-.44-1.08h-1.09a2.16,2.16,0,0,0,.75,1.72,2.91,2.91,0,0,0,2,.65,2.8,2.8,0,0,0,2-.67,2.34,2.34,0,0,0,.75-1.83,2.05,2.05,0,0,0-.39-1.26,2,2,0,0,0-1.08-.73,2.31,2.31,0,0,0,1-.78,1.89,1.89,0,0,0,.36-1.08,2.31,2.31,0,0,0-.69-1.78,3,3,0,0,0-3.77,0,2.13,2.13,0,0,0-.74,1.68h1.08a1.39,1.39,0,0,1,.42-1.06,1.54,1.54,0,0,1,1.12-.4,1.33,1.33,0,0,1,1.5,1.5,1.38,1.38,0,0,1-.44,1.06,1.83,1.83,0,0,1-1.21.4h-.82v.88Zm9.65-4.1a2.92,2.92,0,0,0-3.65,0,2.2,2.2,0,0,0-.69,1.71,2,2,0,0,0,.33,1.13,2.28,2.28,0,0,0,.9.78,2.32,2.32,0,0,0-1,.84,2.19,2.19,0,0,0-.38,1.25,2.26,2.26,0,0,0,.74,1.76,2.89,2.89,0,0,0,2,.66,2.85,2.85,0,0,0,2-.66,2.2,2.2,0,0,0,.75-1.76,2.13,2.13,0,0,0-.39-1.25,2.55,2.55,0,0,0-1.06-.84,2.21,2.21,0,0,0,.91-.77,2,2,0,0,0,.34-1.14,2.2,2.2,0,0,0-.69-1.71Zm-.63,6.83a1.91,1.91,0,0,1-2.39,0,1.51,1.51,0,0,1-.43-1.14,1.58,1.58,0,0,1,.44-1.18,1.65,1.65,0,0,1,2.82,1.18,1.51,1.51,0,0,1-.44,1.14Zm-.17-6.16a1.43,1.43,0,0,1,.41,1.06,1.45,1.45,0,0,1-.39,1.05,1.38,1.38,0,0,1-1,.4,1.36,1.36,0,0,1-1-.4,1.65,1.65,0,0,1,0-2.13,1.43,1.43,0,0,1,1-.39,1.35,1.35,0,0,1,1,.41Zm3,.86a1.76,1.76,0,0,0,.5,1.31,1.74,1.74,0,0,0,1.26.49,1.68,1.68,0,0,0,1.73-1.76v-.41a1.8,1.8,0,0,0-.48-1.3,1.84,1.84,0,0,0-2.52,0,1.7,1.7,0,0,0-.49,1.26v.41Zm.81-.39a1.16,1.16,0,0,1,.25-.78.86.86,0,0,1,.69-.3.84.84,0,0,1,.68.3,1.12,1.12,0,0,1,.25.76v.43a1.13,1.13,0,0,1-.25.78.82.82,0,0,1-.67.29.88.88,0,0,1-.69-.29,1.13,1.13,0,0,1-.26-.76v-.43Zm3.35,5.2a1.76,1.76,0,0,0,.49,1.31,1.78,1.78,0,0,0,1.26.49,1.67,1.67,0,0,0,1.25-.5,1.7,1.7,0,0,0,.49-1.26v-.42a1.73,1.73,0,0,0-.49-1.3,1.84,1.84,0,0,0-2.52,0,1.74,1.74,0,0,0-.48,1.26v.42Zm.8-.4a1.13,1.13,0,0,1,.26-.78.86.86,0,0,1,.68-.29.83.83,0,0,1,.68.29,1.13,1.13,0,0,1,.26.76v.43a1.19,1.19,0,0,1-.25.79.84.84,0,0,1-.68.29.88.88,0,0,1-.69-.29,1.13,1.13,0,0,1-.26-.76v-.44Zm1.21-5.24-.61-.39-4.17,6.67.61.39,4.17-6.67Z" transform="translate(-459.52 -266.58)"/><path class="cls-8" d="M794.38,408.59a3.68,3.68,0,0,0-3,1.27,5.61,5.61,0,0,0-1,3.6v.42a3.77,3.77,0,0,0,.76,2.42,2.43,2.43,0,0,0,2,.94,2.47,2.47,0,0,0,1.93-.79,3.47,3.47,0,0,0,.05-4.14,2.23,2.23,0,0,0-1.78-.78,2.33,2.33,0,0,0-1.84.77,3.11,3.11,0,0,1,.87-2,2.8,2.8,0,0,1,2-.75h.2v-.92Zm-.1,4.38a2.26,2.26,0,0,1,.42,1.42,2.21,2.21,0,0,1-.42,1.41,1.37,1.37,0,0,1-1.15.54,1.41,1.41,0,0,1-1.18-.64,2.79,2.79,0,0,1-.48-1.7v-.4a1.82,1.82,0,0,1,.65-.84,1.78,1.78,0,0,1,1-.33,1.37,1.37,0,0,1,1.13.54Zm6.15,2.54a3,3,0,0,1-2.07.7h-.23v.92h.22a3.77,3.77,0,0,0,3-1.18,5.53,5.53,0,0,0,1-3.63V412a4.1,4.1,0,0,0-.73-2.58,2.39,2.39,0,0,0-2-.95,2.66,2.66,0,0,0-1.4.37,2.37,2.37,0,0,0-.92,1.05,3.71,3.71,0,0,0,0,3,2.4,2.4,0,0,0,.85,1,2.26,2.26,0,0,0,1.28.36,2.16,2.16,0,0,0,1-.25,2.67,2.67,0,0,0,.81-.65,3,3,0,0,1-.78,2.14Zm-2-2.7a2.36,2.36,0,0,1-.42-1.44,2.27,2.27,0,0,1,.43-1.45,1.43,1.43,0,0,1,2.32.12,3,3,0,0,1,.47,1.74v.43a2,2,0,0,1-.67.83,1.72,1.72,0,0,1-1,.33,1.33,1.33,0,0,1-1.12-.56Zm5.28-2.17a1.76,1.76,0,0,0,.5,1.31,1.74,1.74,0,0,0,1.26.49,1.68,1.68,0,0,0,1.73-1.76v-.41a1.8,1.8,0,0,0-.48-1.3,1.84,1.84,0,0,0-2.52,0,1.7,1.7,0,0,0-.49,1.26v.41Zm.81-.39a1.16,1.16,0,0,1,.25-.78.86.86,0,0,1,.69-.3.84.84,0,0,1,.68.3,1.12,1.12,0,0,1,.25.76v.43a1.13,1.13,0,0,1-.25.78.82.82,0,0,1-.67.29.88.88,0,0,1-.69-.29,1.13,1.13,0,0,1-.26-.76v-.43Zm3.35,5.2a1.76,1.76,0,0,0,.49,1.31,1.78,1.78,0,0,0,1.26.49,1.67,1.67,0,0,0,1.25-.5,1.7,1.7,0,0,0,.49-1.26v-.42a1.73,1.73,0,0,0-.49-1.3,1.84,1.84,0,0,0-2.52,0,1.74,1.74,0,0,0-.48,1.26v.42Zm.8-.4a1.13,1.13,0,0,1,.26-.78.86.86,0,0,1,.68-.29.83.83,0,0,1,.68.29,1.13,1.13,0,0,1,.26.76v.43a1.19,1.19,0,0,1-.25.79.84.84,0,0,1-.68.29.88.88,0,0,1-.69-.29,1.13,1.13,0,0,1-.26-.76v-.44Zm1.21-5.24-.61-.39-4.17,6.67.61.39,4.17-6.67Z" transform="translate(-459.52 -266.58)"/><path class="cls-8" d="M836.8,364.11a2.62,2.62,0,0,0-1.82-.64,2.59,2.59,0,0,0-1.82.64,2.17,2.17,0,0,0-.7,1.71,2,2,0,0,0,.33,1.13,2.28,2.28,0,0,0,.9.78,2.37,2.37,0,0,0-1.05.84,2.19,2.19,0,0,0-.37,1.25,2.23,2.23,0,0,0,.74,1.76,3.26,3.26,0,0,0,3.93,0,2.2,2.2,0,0,0,.75-1.76,2.13,2.13,0,0,0-.39-1.25,2.55,2.55,0,0,0-1.06-.84,2.15,2.15,0,0,0,.91-.77,2,2,0,0,0,.34-1.14,2.2,2.2,0,0,0-.69-1.71Zm-.63,6.83a1.63,1.63,0,0,1-1.19.42,1.66,1.66,0,0,1-1.2-.42,1.51,1.51,0,0,1-.43-1.14,1.52,1.52,0,0,1,1.62-1.62,1.61,1.61,0,0,1,1.18.45,1.55,1.55,0,0,1,.46,1.17,1.51,1.51,0,0,1-.44,1.14Zm-.17-6.16a1.43,1.43,0,0,1,.41,1.06,1.45,1.45,0,0,1-.39,1.05,1.38,1.38,0,0,1-1,.4,1.36,1.36,0,0,1-1-.4,1.65,1.65,0,0,1,0-2.13,1.43,1.43,0,0,1,1-.39,1.35,1.35,0,0,1,1,.41Zm6.62-1.23h-.17l-3.11,1.17v1l2.19-.8v7.22h1.09v-8.57Zm3.08,2.09a1.76,1.76,0,0,0,.5,1.31,1.74,1.74,0,0,0,1.26.49,1.68,1.68,0,0,0,1.73-1.76v-.41a1.8,1.8,0,0,0-.48-1.3,1.84,1.84,0,0,0-2.52,0,1.7,1.7,0,0,0-.49,1.26v.41Zm.81-.39a1.16,1.16,0,0,1,.25-.78.86.86,0,0,1,.69-.3.84.84,0,0,1,.68.3,1.12,1.12,0,0,1,.25.76v.43a1.13,1.13,0,0,1-.25.78.82.82,0,0,1-.67.29.88.88,0,0,1-.69-.29,1.13,1.13,0,0,1-.26-.76v-.43Zm3.35,5.2a1.76,1.76,0,0,0,.49,1.31,1.78,1.78,0,0,0,1.26.49,1.67,1.67,0,0,0,1.25-.5,1.7,1.7,0,0,0,.49-1.26v-.42a1.73,1.73,0,0,0-.49-1.3,1.84,1.84,0,0,0-2.52,0,1.74,1.74,0,0,0-.48,1.26v.42Zm.8-.4a1.13,1.13,0,0,1,.26-.78.86.86,0,0,1,.68-.29.83.83,0,0,1,.68.29,1.13,1.13,0,0,1,.26.76v.43a1.19,1.19,0,0,1-.25.79.84.84,0,0,1-.68.29.88.88,0,0,1-.69-.29,1.13,1.13,0,0,1-.26-.76v-.44Zm1.21-5.24-.61-.39-4.17,6.67.61.39,4.17-6.67Z" transform="translate(-459.52 -266.58)"/><path class="cls-8" d="M858.8,318.11a2.62,2.62,0,0,0-1.82-.64,2.59,2.59,0,0,0-1.82.64,2.17,2.17,0,0,0-.7,1.71,2,2,0,0,0,.33,1.13,2.28,2.28,0,0,0,.9.78,2.37,2.37,0,0,0-1.05.84,2.19,2.19,0,0,0-.37,1.25,2.23,2.23,0,0,0,.74,1.76,3.26,3.26,0,0,0,3.93,0,2.2,2.2,0,0,0,.75-1.76,2.13,2.13,0,0,0-.39-1.25,2.55,2.55,0,0,0-1.06-.84,2.15,2.15,0,0,0,.91-.77,2,2,0,0,0,.34-1.14,2.2,2.2,0,0,0-.69-1.71Zm-.63,6.83a1.63,1.63,0,0,1-1.19.42,1.66,1.66,0,0,1-1.2-.42,1.51,1.51,0,0,1-.43-1.14,1.52,1.52,0,0,1,1.62-1.62,1.61,1.61,0,0,1,1.18.45,1.55,1.55,0,0,1,.46,1.17,1.51,1.51,0,0,1-.44,1.14Zm-.17-6.16a1.43,1.43,0,0,1,.41,1.06,1.45,1.45,0,0,1-.39,1.05,1.38,1.38,0,0,1-1,.4,1.36,1.36,0,0,1-1-.4,1.65,1.65,0,0,1,0-2.13,1.43,1.43,0,0,1,1-.39,1.35,1.35,0,0,1,1,.41Zm7.54-.67a2.92,2.92,0,0,0-3.65,0,2.2,2.2,0,0,0-.69,1.71,2,2,0,0,0,.33,1.13,2.28,2.28,0,0,0,.9.78,2.32,2.32,0,0,0-1,.84,2.19,2.19,0,0,0-.38,1.25,2.26,2.26,0,0,0,.74,1.76,2.89,2.89,0,0,0,2,.66,2.85,2.85,0,0,0,2-.66,2.2,2.2,0,0,0,.75-1.76,2.13,2.13,0,0,0-.39-1.25,2.55,2.55,0,0,0-1.06-.84,2.21,2.21,0,0,0,.91-.77,2,2,0,0,0,.34-1.14,2.2,2.2,0,0,0-.69-1.71Zm-.63,6.83a1.91,1.91,0,0,1-2.39,0,1.51,1.51,0,0,1-.43-1.14,1.58,1.58,0,0,1,.44-1.18,1.65,1.65,0,0,1,2.82,1.18,1.51,1.51,0,0,1-.44,1.14Zm-.17-6.16a1.43,1.43,0,0,1,.41,1.06,1.45,1.45,0,0,1-.39,1.05,1.38,1.38,0,0,1-1,.4,1.36,1.36,0,0,1-1-.4,1.65,1.65,0,0,1,0-2.13,1.43,1.43,0,0,1,1-.39,1.35,1.35,0,0,1,1,.41Zm3,.86a1.76,1.76,0,0,0,.5,1.31,1.74,1.74,0,0,0,1.26.49,1.68,1.68,0,0,0,1.73-1.76v-.41a1.8,1.8,0,0,0-.48-1.3,1.84,1.84,0,0,0-2.52,0,1.7,1.7,0,0,0-.49,1.26v.41Zm.81-.39a1.16,1.16,0,0,1,.25-.78.86.86,0,0,1,.69-.3.84.84,0,0,1,.68.3,1.12,1.12,0,0,1,.25.76v.43a1.13,1.13,0,0,1-.25.78.82.82,0,0,1-.67.29.88.88,0,0,1-.69-.29,1.13,1.13,0,0,1-.26-.76v-.43Zm3.35,5.2a1.68,1.68,0,0,0,1.75,1.8,1.67,1.67,0,0,0,1.25-.5,1.7,1.7,0,0,0,.49-1.26v-.42a1.73,1.73,0,0,0-.49-1.3,1.84,1.84,0,0,0-2.52,0,1.74,1.74,0,0,0-.48,1.26v.42Zm.8-.4a1.13,1.13,0,0,1,.26-.78.86.86,0,0,1,.68-.29.83.83,0,0,1,.68.29,1.13,1.13,0,0,1,.26.76v.43a1.19,1.19,0,0,1-.25.79.84.84,0,0,1-.68.29.88.88,0,0,1-.69-.29,1.13,1.13,0,0,1-.26-.76v-.44Zm1.21-5.24-.61-.39-4.17,6.67.61.39,4.17-6.67Z" transform="translate(-459.52 -266.58)"/></g><g id="How_are_you_involved_with_Nonprofit_Organizations_" data-name="How are you involved with Nonprofit Organizations?"><text class="cls-9" transform="translate(135.21 10.27)">How a<tspan class="cls-10" x="33.76" y="0">r</tspan><tspan x="37.86" y="0">e </tspan><tspan class="cls-11" x="47.29" y="0">y</tspan><tspan x="53.04" y="0">ou in</tspan><tspan class="cls-11" x="79.27" y="0">v</tspan><tspan x="85.12" y="0">ol</tspan><tspan class="cls-12" x="95.02" y="0">v</tspan><tspan x="100.88" y="0">ed with nonp</tspan><tspan class="cls-13" x="169.63" y="0">r</tspan><tspan x="173.64" y="0">ofit o</tspan><tspan class="cls-10" x="201.6" y="0">r</tspan><tspan x="205.71" y="0">ganizations?</tspan></text></g><g id="Types_of_involvement" data-name="Types of involvement"><text class="cls-14" transform="translate(33.56 59.18)">Give financially</text><text class="cls-15" transform="translate(37.94 105.04)"><tspan class="cls-16">V</tspan><tspan x="6.75" y="0">olunteer time</tspan></text><text class="cls-14" transform="translate(0 150.9)">Share on social media</text><text class="cls-15" transform="translate(7.15 196.76)">P<tspan class="cls-17" x="6.94" y="0">r</tspan><tspan x="10.55" y="0">omote a campaign</tspan></text><text x="-459.52" y="-266.58"/></g></svg>