<svg xmlns="http://www.w3.org/2000/svg" xmlns:xlink="http://www.w3.org/1999/xlink" viewBox="0 0 466.92 265.98"><defs><style>.cls-1{fill:none;}.cls-2,.cls-7{fill:#024d81;}.cls-3{fill:#2ab56b;}.cls-4{fill:#80cb5c;}.cls-5{fill:#0193d4;}.cls-6,.cls-7{stroke:#000;stroke-miterlimit:10;stroke-width:0.5px;}.cls-24,.cls-33,.cls-8{font-size:12px;}.cls-8{font-family:Roboto-Medium, Roboto;font-weight:500;}.cls-9{letter-spacing:-0.02em;}.cls-10{letter-spacing:-0.01em;}.cls-11{letter-spacing:-0.01em;}.cls-12{clip-path:url(#clip-path);}.cls-13{clip-path:url(#clip-path-2);}.cls-14{font-size:10px;}.cls-14,.cls-33{fill:#444;}.cls-14,.cls-24{font-family:Roboto-Regular, Roboto;}.cls-15{clip-path:url(#clip-path-3);}.cls-16{isolation:isolate;}.cls-17{clip-path:url(#clip-path-6);}.cls-18{clip-path:url(#clip-path-9);}.cls-19{fill:#e87511;}.cls-20{clip-path:url(#clip-path-12);}.cls-21{clip-path:url(#clip-path-15);}.cls-22{clip-path:url(#clip-path-19);}.cls-23{clip-path:url(#clip-path-20);}.cls-24{fill:#fff;}.cls-25{clip-path:url(#clip-path-22);}.cls-26{clip-path:url(#clip-path-23);}.cls-27{clip-path:url(#clip-path-25);}.cls-28{clip-path:url(#clip-path-26);}.cls-29{clip-path:url(#clip-path-28);}.cls-30{clip-path:url(#clip-path-29);}.cls-31{clip-path:url(#clip-path-30);}.cls-32{clip-path:url(#clip-path-31);}.cls-33{font-family:Roboto-Bold, Roboto;font-weight:700;}.cls-34{letter-spacing:-0.01em;}.cls-35{letter-spacing:-0.01em;}.cls-36{clip-path:url(#clip-path-32);}.cls-37{clip-path:url(#clip-path-33);}</style><clipPath id="clip-path" transform="translate(-151.74 -528.73)"><rect class="cls-1" x="149" y="628.34" width="15" height="48.58"/></clipPath><clipPath id="clip-path-2" transform="translate(-151.74 -528.73)"><rect class="cls-1" x="150" y="502.21" width="469.29" height="360.79"/></clipPath><clipPath id="clip-path-3" transform="translate(-151.74 -528.73)"><rect class="cls-5" x="563" y="580" width="55" height="145"/></clipPath><clipPath id="clip-path-6" transform="translate(-151.74 -528.73)"><rect class="cls-2" x="396" y="580" width="167" height="145"/></clipPath><clipPath id="clip-path-9" transform="translate(-151.74 -528.73)"><rect class="cls-2" x="286" y="580" width="110" height="145"/></clipPath><clipPath id="clip-path-12" transform="translate(-151.74 -528.73)"><rect class="cls-3" x="230" y="580" width="56" height="145"/></clipPath><clipPath id="clip-path-15" transform="translate(-151.74 -528.73)"><rect class="cls-4" x="175" y="580" width="55" height="145"/></clipPath><clipPath id="clip-path-19" transform="translate(-151.74 -528.73)"><rect class="cls-1" x="568" y="644" width="50" height="17"/></clipPath><clipPath id="clip-path-20" transform="translate(-151.74 -528.73)"><rect class="cls-1" x="578" y="644" width="24" height="17"/></clipPath><clipPath id="clip-path-22" transform="translate(-151.74 -528.73)"><rect class="cls-1" x="457" y="644" width="50" height="17"/></clipPath><clipPath id="clip-path-23" transform="translate(-151.74 -528.73)"><rect class="cls-1" x="467" y="644" width="25" height="17"/></clipPath><clipPath id="clip-path-25" transform="translate(-151.74 -528.73)"><rect class="cls-1" x="319" y="644" width="50" height="17"/></clipPath><clipPath id="clip-path-26" transform="translate(-151.74 -528.73)"><rect class="cls-1" x="329" y="644" width="24" height="17"/></clipPath><clipPath id="clip-path-28" transform="translate(-151.74 -528.73)"><rect class="cls-1" x="236" y="644" width="50" height="17"/></clipPath><clipPath id="clip-path-29" transform="translate(-151.74 -528.73)"><rect class="cls-1" x="246" y="644" width="24" height="17"/></clipPath><clipPath id="clip-path-30" transform="translate(-151.74 -528.73)"><rect class="cls-1" x="150" y="502" width="469.29" height="293"/></clipPath><clipPath id="clip-path-31" transform="translate(-151.74 -528.73)"><rect class="cls-1" x="173.84" y="524.21" width="445.19" height="17"/></clipPath><clipPath id="clip-path-32" transform="translate(-151.74 -528.73)"><rect class="cls-1" x="181" y="643" width="50" height="17"/></clipPath><clipPath id="clip-path-33" transform="translate(-151.74 -528.73)"><rect class="cls-1" x="191" y="643" width="24" height="17"/></clipPath></defs><title>LikelihoodV2</title><g id="Layer_2" data-name="Layer 2"><polyline class="cls-6" points="22.67 206.52 22.67 210.52 22.67 214.52"/><polyline class="cls-6" points="134.67 206.52 134.67 210.52 134.67 214.52"/><polyline class="cls-6" points="244.67 206.52 244.67 210.52 244.67 214.52"/><polyline class="cls-6" points="466.67 206.52 466.67 210.52 466.67 214.52"/><polyline class="cls-7" points="23.27 210.27 134.26 210.27 244.26 210.27 466.26 210.27"/><text class="cls-8" transform="translate(51.18 226.14)"><tspan class="cls-9">F</tspan><tspan class="cls-10" x="6.39" y="0">av</tspan><tspan x="18.64" y="0">o</tspan><tspan class="cls-11" x="25.48" y="0">r</tspan><tspan x="29.52" y="0">able</tspan></text><text class="cls-8" transform="translate(167.94 226.14)">Neut<tspan class="cls-11" x="25.62" y="0">r</tspan><tspan x="29.66" y="0">al</tspan></text><text class="cls-8" transform="translate(325.34 226.14)">Unf<tspan class="cls-10" x="18.75" y="0">av</tspan><tspan x="31" y="0">o</tspan><tspan class="cls-11" x="37.83" y="0">r</tspan><tspan x="41.88" y="0">able</tspan></text></g><g id="Layer_1" data-name="Layer 1"><g class="cls-12"><g class="cls-13"><text class="cls-14" transform="translate(8.55 146.69) rotate(-90)">Likelihood</text></g></g><rect class="cls-5" x="411.26" y="51.27" width="55" height="145"/><g class="cls-15"><g class="cls-16"><rect class="cls-5" x="411.26" y="51.27" width="55" height="145"/><g class="cls-15"><rect class="cls-5" x="411.26" y="51.27" width="55" height="145"/><g class="cls-15"><rect class="cls-5" x="411.26" y="51.27" width="55" height="145"/></g></g></g></g><rect class="cls-2" x="244.26" y="51.27" width="167" height="145"/><g class="cls-17"><g class="cls-16"><rect class="cls-2" x="244.26" y="51.27" width="167" height="145"/><g class="cls-17"><rect class="cls-2" x="244.26" y="51.27" width="167" height="145"/><g class="cls-17"><rect class="cls-2" x="244.26" y="51.27" width="167" height="145"/></g></g></g></g><rect class="cls-2" x="134.26" y="51.27" width="110" height="145"/><g class="cls-18"><g class="cls-16"><rect class="cls-2" x="134.26" y="51.27" width="110" height="145"/><g class="cls-18"><rect class="cls-2" x="134.26" y="51.27" width="110" height="145"/><g class="cls-18"><rect class="cls-19" x="134.26" y="51.27" width="110" height="145"/></g></g></g></g><rect class="cls-3" x="78.26" y="51.27" width="56" height="145"/><g class="cls-20"><g class="cls-16"><rect class="cls-3" x="78.26" y="51.27" width="56" height="145"/><g class="cls-20"><rect class="cls-3" x="78.26" y="51.27" width="56" height="145"/><g class="cls-20"><rect class="cls-3" x="78.26" y="51.27" width="56" height="145"/></g></g></g></g><rect class="cls-4" x="23.26" y="51.27" width="55" height="145"/><g class="cls-21"><g class="cls-16"><rect class="cls-4" x="23.26" y="51.27" width="55" height="145"/><g class="cls-21"><rect class="cls-4" x="23.26" y="51.27" width="55" height="145"/><g class="cls-21"><rect class="cls-4" x="23.26" y="51.27" width="55" height="145"/></g></g></g></g><g class="cls-13"><g class="cls-16"><g class="cls-22"><g class="cls-23"><text class="cls-24" transform="translate(427.26 128.27)">13%</text></g></g></g></g><g class="cls-13"><g class="cls-16"><g class="cls-25"><g class="cls-26"><text class="cls-24" transform="translate(316.26 128.27)">38%</text></g></g></g></g><g class="cls-13"><g class="cls-16"><g class="cls-27"><g class="cls-28"><text class="cls-24" transform="translate(178.26 128.27)">25%</text></g></g></g></g><g class="cls-13"><g class="cls-16"><g class="cls-29"><g class="cls-30"><text class="cls-24" transform="translate(95.26 128.27)">13%</text></g></g></g></g><g class="cls-31"><rect class="cls-4" x="31.26" y="254.27" width="11" height="11"/><text class="cls-14" transform="translate(48.26 263.27)">Extremely likely</text><rect class="cls-3" x="125.26" y="254.27" width="11" height="11"/><text class="cls-14" transform="translate(142.26 263.27)">Very likely</text><rect class="cls-19" x="195.26" y="254.27" width="11" height="11"/><text class="cls-14" transform="translate(212.26 263.27)">Somewhat likely</text><rect class="cls-2" x="293.26" y="254.27" width="10" height="11"/><text class="cls-14" transform="translate(309.26 263.27)">Not so likely</text><rect class="cls-5" x="372.26" y="254.27" width="11" height="11"/><text class="cls-14" transform="translate(389.26 263.27)">Not at all likely</text></g><g class="cls-32"><text class="cls-33" transform="translate(29.26 10.27)">In the next six months how likely are you <tspan class="cls-34" x="221.63" y="0">t</tspan><tspan x="225.52" y="0">o be in</tspan><tspan class="cls-35" x="261.42" y="0">v</tspan><tspan x="267.4" y="0">olved in another organization?</tspan></text></g></g><g id="Layer_3" data-name="Layer 3"><g class="cls-36"><g class="cls-37"><text class="cls-24" transform="translate(40.26 127.27)">13%</text></g></g></g></svg>