<svg xmlns="http://www.w3.org/2000/svg" viewBox="0 0 435.84 233.5"><defs><style>.cls-1,.cls-2{fill:none;stroke:#a7a6a6;stroke-width:0.5px;}.cls-1{stroke-dasharray:1 1;}.cls-2{stroke-linecap:square;}.cls-3{fill:#444545;}.cls-4{fill:#e77625;}.cls-5{fill:#83c55e;}.cls-6{fill:#0e93d1;}.cls-7{fill:#034e81;}.cls-8{fill:#fff;}.cls-9{fill:#231f20;}</style></defs><title>NonprofitInvolvmentV8</title><g id="Layer_1" data-name="Layer 1"><path class="cls-1" d="M656.11,294.12v192m77-192v192m77-192v192" transform="translate(-459.89 -267.73)"/><path class="cls-2" d="M580.11,293.62h307m0,192v-192m-307,192v-192" transform="translate(-459.89 -267.73)"/><line class="cls-2" x1="120.22" y1="217.9" x2="427.22" y2="217.9"/><path class="cls-3" d="M578.66,496.92a3.92,3.92,0,0,0-.56-2.27,2.3,2.3,0,0,0-3.39,0,4,4,0,0,0-.54,2.33v1.2a3.89,3.89,0,0,0,.57,2.26,1.93,1.93,0,0,0,1.68.75,2,2,0,0,0,1.7-.77,4.16,4.16,0,0,0,.54-2.36v-1.17Zm-.91,1.41a3.36,3.36,0,0,1-.33,1.64,1.11,1.11,0,0,1-1,.51,1.09,1.09,0,0,1-1-.55,3.36,3.36,0,0,1-.34-1.7v-1.44a3.28,3.28,0,0,1,.33-1.61,1.25,1.25,0,0,1,2,0,3.28,3.28,0,0,1,.32,1.68v1.47Zm2-2.61a1.41,1.41,0,0,0,1.46,1.5,1.4,1.4,0,0,0,1.45-1.46v-.35a1.49,1.49,0,0,0-.41-1.08,1.38,1.38,0,0,0-1-.42,1.4,1.4,0,0,0-1.45,1.47v.34Zm.67-.32a1,1,0,0,1,.21-.65.77.77,0,0,1,1.14,0,.92.92,0,0,1,.21.63v.36a1,1,0,0,1-.21.65.71.71,0,0,1-.56.24.7.7,0,0,1-.57-.25.88.88,0,0,1-.22-.63v-.35Zm2.79,4.33a1.49,1.49,0,0,0,.41,1.09,1.46,1.46,0,0,0,1,.41,1.4,1.4,0,0,0,1.45-1.47v-.35a1.42,1.42,0,0,0-.41-1.08,1.46,1.46,0,0,0-2.5,1.05v.35Zm.67-.33a1,1,0,0,1,.22-.66.71.71,0,0,1,.56-.24.7.7,0,0,1,.57.25.93.93,0,0,1,.22.63v.36a1,1,0,0,1-.21.66.72.72,0,0,1-.57.24.7.7,0,0,1-.57-.25.88.88,0,0,1-.22-.63v-.36Zm1-4.37-.51-.32-3.48,5.55.52.33,3.47-5.56Z" transform="translate(-459.89 -267.73)"/><path class="cls-3" d="M651.86,500.39h-3.57l1.9-2.07a4.09,4.09,0,0,0,1.34-2.5,1.73,1.73,0,0,0-.58-1.38,2.21,2.21,0,0,0-1.56-.52,2.34,2.34,0,0,0-1.69.6,2.08,2.08,0,0,0-.64,1.59H648a1.47,1.47,0,0,1,.37-1.07,1.42,1.42,0,0,1,1-.38,1.22,1.22,0,0,1,.9.35,1.31,1.31,0,0,1,.33.92,1.79,1.79,0,0,1-.2.8,5.58,5.58,0,0,1-.76,1l-2.46,2.73v.65h4.66v-.73Zm2.27-2.52h.68a1.64,1.64,0,0,1,1.1.34,1.21,1.21,0,0,1,.38,1,1.32,1.32,0,0,1-.35,1,1.35,1.35,0,0,1-1,.34,1.4,1.4,0,0,1-1-.33,1.16,1.16,0,0,1-.37-.9h-.91a1.79,1.79,0,0,0,.63,1.43,2.41,2.41,0,0,0,1.63.54,2.37,2.37,0,0,0,1.63-.56,2,2,0,0,0,.62-1.52,1.74,1.74,0,0,0-.32-1.05,1.66,1.66,0,0,0-.91-.61,1.84,1.84,0,0,0,.82-.65,1.57,1.57,0,0,0,.3-.9,1.92,1.92,0,0,0-.57-1.48,2.21,2.21,0,0,0-1.58-.53,2.24,2.24,0,0,0-1.57.56,1.81,1.81,0,0,0-.61,1.4h.9A1.2,1.2,0,0,1,654,495a1.29,1.29,0,0,1,.93-.33,1.24,1.24,0,0,1,.88,2.13,1.49,1.49,0,0,1-1,.34h-.68v.74Zm4.22-2.15a1.44,1.44,0,0,0,.42,1.09,1.42,1.42,0,0,0,1.05.41,1.4,1.4,0,0,0,1.44-1.46v-.35a1.49,1.49,0,0,0-.4-1.08,1.52,1.52,0,0,0-2.1,0,1.42,1.42,0,0,0-.41,1.05v.34Zm.68-.32a1,1,0,0,1,.21-.65.77.77,0,0,1,1.14,0,.92.92,0,0,1,.21.63v.36a1,1,0,0,1-.21.65.73.73,0,0,1-.56.24.72.72,0,0,1-.58-.25.92.92,0,0,1-.21-.63v-.35Zm2.78,4.33a1.42,1.42,0,0,0,1.47,1.5,1.39,1.39,0,0,0,1-.42,1.42,1.42,0,0,0,.41-1.05v-.35a1.46,1.46,0,0,0-.41-1.08,1.55,1.55,0,0,0-2.1,0,1.42,1.42,0,0,0-.41,1.05v.35Zm.68-.33a.92.92,0,0,1,.22-.66.71.71,0,0,1,.56-.24.7.7,0,0,1,.57.25.92.92,0,0,1,.21.63v.36a1,1,0,0,1-.21.66.71.71,0,0,1-.56.24.73.73,0,0,1-.58-.25.92.92,0,0,1-.21-.63v-.36Zm1-4.37-.51-.32-3.47,5.55.51.33,3.47-5.56Z" transform="translate(-459.89 -267.73)"/><path class="cls-3" d="M728,494h-1l-3.18,4.93v.53h3.24v1.65h.9v-1.65h1v-.73h-1V494Zm-1,1.43.11-.19v3.49h-2.22l2.11-3.3Zm4,2.3.24-.19a1.53,1.53,0,0,1,.93-.26,1.31,1.31,0,0,1,1,.43,1.65,1.65,0,0,1,.39,1.15,1.77,1.77,0,0,1-.36,1.18,1.21,1.21,0,0,1-1,.43,1.31,1.31,0,0,1-.92-.31,1.41,1.41,0,0,1-.44-.92H730a2.09,2.09,0,0,0,.67,1.45,2.24,2.24,0,0,0,1.54.52,2.16,2.16,0,0,0,1.66-.63,2.41,2.41,0,0,0,.59-1.73,2.53,2.53,0,0,0-.57-1.74,1.94,1.94,0,0,0-1.54-.64,2.27,2.27,0,0,0-1.19.31l.22-1.94h2.87V494h-3.64l-.36,3.55.72.18Zm4.4-2a1.44,1.44,0,0,0,.42,1.09,1.42,1.42,0,0,0,1.05.41,1.4,1.4,0,0,0,1.44-1.46v-.35a1.49,1.49,0,0,0-.4-1.08,1.52,1.52,0,0,0-2.1,0,1.42,1.42,0,0,0-.41,1.05v.34Zm.68-.32a1,1,0,0,1,.21-.65.77.77,0,0,1,1.14,0,.92.92,0,0,1,.21.63v.36a1,1,0,0,1-.21.65.73.73,0,0,1-.56.24.72.72,0,0,1-.58-.25.92.92,0,0,1-.21-.63v-.35Zm2.78,4.33a1.42,1.42,0,0,0,1.47,1.5,1.39,1.39,0,0,0,1-.42,1.42,1.42,0,0,0,.41-1.05v-.35a1.46,1.46,0,0,0-.41-1.08,1.55,1.55,0,0,0-2.1,0,1.42,1.42,0,0,0-.41,1.05v.35Zm.68-.33a.92.92,0,0,1,.22-.66.71.71,0,0,1,.56-.24.7.7,0,0,1,.57.25.92.92,0,0,1,.21.63v.36a1,1,0,0,1-.21.66.71.71,0,0,1-.56.24.73.73,0,0,1-.58-.25.92.92,0,0,1-.21-.63v-.36Zm1-4.37-.51-.32-3.47,5.55.51.33,3.47-5.56Z" transform="translate(-459.89 -267.73)"/><path class="cls-3" d="M804.58,494a3.09,3.09,0,0,0-2.49,1.06,4.66,4.66,0,0,0-.84,3v.35a3.15,3.15,0,0,0,.64,2,2,2,0,0,0,1.65.78,2.07,2.07,0,0,0,1.61-.66,2.5,2.5,0,0,0,.6-1.76,2.53,2.53,0,0,0-.56-1.69,1.85,1.85,0,0,0-1.48-.65,1.91,1.91,0,0,0-1.53.64,2.54,2.54,0,0,1,.72-1.7,2.39,2.39,0,0,1,1.68-.62h.16V494Zm-.08,3.65a1.91,1.91,0,0,1,.35,1.19,1.81,1.81,0,0,1-.35,1.17,1.14,1.14,0,0,1-1,.45,1.19,1.19,0,0,1-1-.53,2.3,2.3,0,0,1-.4-1.42v-.33a1.47,1.47,0,0,1,.54-.7,1.43,1.43,0,0,1,.86-.28,1.14,1.14,0,0,1,.94.45Zm6-3.22a2.48,2.48,0,0,0-3,0,1.85,1.85,0,0,0-.57,1.43,1.69,1.69,0,0,0,.27.94,1.83,1.83,0,0,0,.75.65,2,2,0,0,0-.87.7,1.82,1.82,0,0,0-.32,1,1.86,1.86,0,0,0,.62,1.47,2.72,2.72,0,0,0,3.28,0,2,2,0,0,0,.3-2.51,2.09,2.09,0,0,0-.88-.69,2,2,0,0,0,.76-.65,1.73,1.73,0,0,0,.28-.95,1.86,1.86,0,0,0-.58-1.43Zm-.52,5.69a1.36,1.36,0,0,1-1,.35,1.39,1.39,0,0,1-1-.34,1.27,1.27,0,0,1-.36-1,1.34,1.34,0,0,1,.37-1,1.37,1.37,0,0,1,2.35,1,1.26,1.26,0,0,1-.36.95Zm-.14-5.13a1.35,1.35,0,0,1,0,1.76,1.18,1.18,0,0,1-.87.33,1.14,1.14,0,0,1-.86-.33,1.18,1.18,0,0,1-.33-.88,1.21,1.21,0,0,1,.33-.89,1.17,1.17,0,0,1,.86-.33,1.15,1.15,0,0,1,.86.34Zm2.46.72a1.44,1.44,0,0,0,.42,1.09,1.42,1.42,0,0,0,1.05.41,1.4,1.4,0,0,0,1.44-1.46v-.35a1.49,1.49,0,0,0-.4-1.08,1.52,1.52,0,0,0-2.1,0,1.42,1.42,0,0,0-.41,1.05v.34Zm.68-.32a1,1,0,0,1,.21-.65.77.77,0,0,1,1.14,0,.92.92,0,0,1,.21.63v.36a1,1,0,0,1-.21.65.73.73,0,0,1-.56.24.72.72,0,0,1-.58-.25.92.92,0,0,1-.21-.63v-.35Zm2.78,4.33a1.42,1.42,0,0,0,1.47,1.5,1.39,1.39,0,0,0,1-.42,1.42,1.42,0,0,0,.41-1.05v-.35a1.46,1.46,0,0,0-.41-1.08,1.55,1.55,0,0,0-2.1,0,1.42,1.42,0,0,0-.41,1.05v.35Zm.68-.33a.92.92,0,0,1,.22-.66.71.71,0,0,1,.56-.24.7.7,0,0,1,.57.25.92.92,0,0,1,.21.63v.36a1,1,0,0,1-.21.66.71.71,0,0,1-.56.24.73.73,0,0,1-.58-.25.92.92,0,0,1-.21-.63v-.36Zm1-4.37-.51-.32-3.47,5.55.51.33,3.47-5.56Z" transform="translate(-459.89 -267.73)"/><path class="cls-3" d="M881,499.78a2.51,2.51,0,0,1-1.72.58h-.19v.77h.17a3.16,3.16,0,0,0,2.48-1,4.59,4.59,0,0,0,.82-3v-.26a3.44,3.44,0,0,0-.61-2.16,2,2,0,0,0-1.66-.78,2.2,2.2,0,0,0-1.16.3,2,2,0,0,0-.77.87,3,3,0,0,0-.27,1.29,2.85,2.85,0,0,0,.25,1.21,1.87,1.87,0,0,0,1.77,1.16,1.83,1.83,0,0,0,.87-.21,2.34,2.34,0,0,0,.67-.54,2.48,2.48,0,0,1-.65,1.78Zm-1.67-2.25a1.94,1.94,0,0,1-.35-1.2,1.91,1.91,0,0,1,.36-1.21,1.16,1.16,0,0,1,.95-.45,1.15,1.15,0,0,1,1,.55,2.51,2.51,0,0,1,.39,1.45V497a1.77,1.77,0,0,1-.56.69,1.39,1.39,0,0,1-.84.28,1.1,1.1,0,0,1-.93-.47Zm8.93-.61a3.93,3.93,0,0,0-.55-2.27,2,2,0,0,0-1.69-.73,1.94,1.94,0,0,0-1.7.76,4,4,0,0,0-.54,2.33v1.2a4,4,0,0,0,.56,2.26,2,2,0,0,0,1.69.75,1.94,1.94,0,0,0,1.69-.77,4.16,4.16,0,0,0,.54-2.36v-1.17Zm-.9,1.41A3.24,3.24,0,0,1,887,500a1.22,1.22,0,0,1-2,0,3.37,3.37,0,0,1-.33-1.7v-1.44a3.18,3.18,0,0,1,.33-1.61,1.08,1.08,0,0,1,1-.52,1.12,1.12,0,0,1,1,.52,3.39,3.39,0,0,1,.32,1.68v1.47Zm2-2.61a1.44,1.44,0,0,0,.42,1.09,1.42,1.42,0,0,0,1.05.41,1.4,1.4,0,0,0,1.44-1.46v-.35a1.49,1.49,0,0,0-.4-1.08,1.52,1.52,0,0,0-2.1,0,1.42,1.42,0,0,0-.41,1.05v.34Zm.68-.32a1,1,0,0,1,.21-.65.77.77,0,0,1,1.14,0,.92.92,0,0,1,.21.63v.36a1,1,0,0,1-.21.65.73.73,0,0,1-.56.24.72.72,0,0,1-.58-.25.92.92,0,0,1-.21-.63v-.35Zm2.78,4.33a1.42,1.42,0,0,0,1.47,1.5,1.39,1.39,0,0,0,1-.42,1.42,1.42,0,0,0,.41-1.05v-.35a1.46,1.46,0,0,0-.41-1.08,1.55,1.55,0,0,0-2.1,0,1.42,1.42,0,0,0-.41,1.05v.35Zm.68-.33a.92.92,0,0,1,.22-.66.71.71,0,0,1,.56-.24.7.7,0,0,1,.57.25.92.92,0,0,1,.21.63v.36a1,1,0,0,1-.21.66.71.71,0,0,1-.56.24.73.73,0,0,1-.58-.25.92.92,0,0,1-.21-.63v-.36Zm1-4.37-.51-.32-3.47,5.55.51.33,3.47-5.56Z" transform="translate(-459.89 -267.73)"/><rect class="cls-4" x="120.72" y="171.4" width="127" height="38"/><rect class="cls-5" x="120.72" y="126.4" width="234" height="38"/><rect class="cls-6" x="120.72" y="80.4" width="276" height="38"/><rect class="cls-7" x="120.72" y="34.4" width="297" height="38"/><path class="cls-8" d="M684.89,459.21h.82a2.06,2.06,0,0,1,1.32.41,1.46,1.46,0,0,1,.45,1.15,1.59,1.59,0,0,1-.41,1.18,1.93,1.93,0,0,1-2.38,0,1.41,1.41,0,0,1-.44-1.08h-1.09a2.16,2.16,0,0,0,.75,1.72,2.91,2.91,0,0,0,2,.65,2.8,2.8,0,0,0,2-.67,2.34,2.34,0,0,0,.75-1.83,2.05,2.05,0,0,0-.39-1.26,2,2,0,0,0-1.08-.73,2.31,2.31,0,0,0,1-.78,1.89,1.89,0,0,0,.36-1.08,2.31,2.31,0,0,0-.69-1.78,3,3,0,0,0-3.77,0,2.13,2.13,0,0,0-.74,1.68h1.08a1.39,1.39,0,0,1,.42-1.06,1.54,1.54,0,0,1,1.12-.4,1.33,1.33,0,0,1,1.5,1.5,1.38,1.38,0,0,1-.44,1.06,1.83,1.83,0,0,1-1.21.4h-.82v.88Zm9.65-4.1a2.92,2.92,0,0,0-3.65,0,2.2,2.2,0,0,0-.69,1.71,2,2,0,0,0,.33,1.13,2.28,2.28,0,0,0,.9.78,2.32,2.32,0,0,0-1,.84,2.19,2.19,0,0,0-.38,1.25,2.26,2.26,0,0,0,.74,1.76,2.89,2.89,0,0,0,2,.66,2.85,2.85,0,0,0,2-.66,2.2,2.2,0,0,0,.75-1.76,2.13,2.13,0,0,0-.39-1.25,2.55,2.55,0,0,0-1.06-.84,2.21,2.21,0,0,0,.91-.77,2,2,0,0,0,.34-1.14,2.2,2.2,0,0,0-.69-1.71Zm-.63,6.83a1.91,1.91,0,0,1-2.39,0,1.51,1.51,0,0,1-.43-1.14,1.58,1.58,0,0,1,.44-1.18,1.65,1.65,0,0,1,2.82,1.18,1.51,1.51,0,0,1-.44,1.14Zm-.17-6.16a1.43,1.43,0,0,1,.41,1.06,1.45,1.45,0,0,1-.39,1.05,1.38,1.38,0,0,1-1,.4,1.36,1.36,0,0,1-1-.4,1.65,1.65,0,0,1,0-2.13,1.43,1.43,0,0,1,1-.39,1.35,1.35,0,0,1,1,.41Zm3,.86a1.76,1.76,0,0,0,.5,1.31,1.74,1.74,0,0,0,1.26.49,1.68,1.68,0,0,0,1.73-1.76v-.41a1.8,1.8,0,0,0-.48-1.3,1.84,1.84,0,0,0-2.52,0,1.7,1.7,0,0,0-.49,1.26v.41Zm.81-.39a1.16,1.16,0,0,1,.25-.78.86.86,0,0,1,.69-.3.84.84,0,0,1,.68.3,1.12,1.12,0,0,1,.25.76v.43a1.13,1.13,0,0,1-.25.78.82.82,0,0,1-.67.29.88.88,0,0,1-.69-.29,1.13,1.13,0,0,1-.26-.76v-.43Zm3.35,5.2a1.76,1.76,0,0,0,.49,1.31,1.78,1.78,0,0,0,1.26.49,1.67,1.67,0,0,0,1.25-.5,1.7,1.7,0,0,0,.49-1.26v-.42a1.73,1.73,0,0,0-.49-1.3,1.84,1.84,0,0,0-2.52,0,1.74,1.74,0,0,0-.48,1.26v.42Zm.8-.4a1.13,1.13,0,0,1,.26-.78.86.86,0,0,1,.68-.29.83.83,0,0,1,.68.29,1.13,1.13,0,0,1,.26.76v.43a1.19,1.19,0,0,1-.25.79.84.84,0,0,1-.68.29.88.88,0,0,1-.69-.29,1.13,1.13,0,0,1-.26-.76v-.44Zm1.21-5.24-.61-.39-4.17,6.67.61.39,4.17-6.67Z" transform="translate(-459.89 -267.73)"/><path class="cls-8" d="M794.38,408.59a3.68,3.68,0,0,0-3,1.27,5.61,5.61,0,0,0-1,3.6v.42a3.77,3.77,0,0,0,.76,2.42,2.43,2.43,0,0,0,2,.94,2.47,2.47,0,0,0,1.93-.79,3.47,3.47,0,0,0,.05-4.14,2.23,2.23,0,0,0-1.78-.78,2.33,2.33,0,0,0-1.84.77,3.11,3.11,0,0,1,.87-2,2.8,2.8,0,0,1,2-.75h.2v-.92Zm-.1,4.38a2.26,2.26,0,0,1,.42,1.42,2.21,2.21,0,0,1-.42,1.41,1.37,1.37,0,0,1-1.15.54,1.41,1.41,0,0,1-1.18-.64,2.79,2.79,0,0,1-.48-1.7v-.4a1.82,1.82,0,0,1,.65-.84,1.78,1.78,0,0,1,1-.33,1.37,1.37,0,0,1,1.13.54Zm6.15,2.54a3,3,0,0,1-2.07.7h-.23v.92h.22a3.77,3.77,0,0,0,3-1.18,5.53,5.53,0,0,0,1-3.63V412a4.1,4.1,0,0,0-.73-2.58,2.39,2.39,0,0,0-2-.95,2.66,2.66,0,0,0-1.4.37,2.37,2.37,0,0,0-.92,1.05,3.71,3.71,0,0,0,0,3,2.4,2.4,0,0,0,.85,1,2.26,2.26,0,0,0,1.28.36,2.16,2.16,0,0,0,1-.25,2.67,2.67,0,0,0,.81-.65,3,3,0,0,1-.78,2.14Zm-2-2.7a2.36,2.36,0,0,1-.42-1.44,2.27,2.27,0,0,1,.43-1.45,1.43,1.43,0,0,1,2.32.12,3,3,0,0,1,.47,1.74v.43a2,2,0,0,1-.67.83,1.72,1.72,0,0,1-1,.33,1.33,1.33,0,0,1-1.12-.56Zm5.28-2.17a1.76,1.76,0,0,0,.5,1.31,1.74,1.74,0,0,0,1.26.49,1.68,1.68,0,0,0,1.73-1.76v-.41a1.8,1.8,0,0,0-.48-1.3,1.84,1.84,0,0,0-2.52,0,1.7,1.7,0,0,0-.49,1.26v.41Zm.81-.39a1.16,1.16,0,0,1,.25-.78.86.86,0,0,1,.69-.3.84.84,0,0,1,.68.3,1.12,1.12,0,0,1,.25.76v.43a1.13,1.13,0,0,1-.25.78.82.82,0,0,1-.67.29.88.88,0,0,1-.69-.29,1.13,1.13,0,0,1-.26-.76v-.43Zm3.35,5.2a1.76,1.76,0,0,0,.49,1.31,1.78,1.78,0,0,0,1.26.49,1.67,1.67,0,0,0,1.25-.5,1.7,1.7,0,0,0,.49-1.26v-.42a1.73,1.73,0,0,0-.49-1.3,1.84,1.84,0,0,0-2.52,0,1.74,1.74,0,0,0-.48,1.26v.42Zm.8-.4a1.13,1.13,0,0,1,.26-.78.86.86,0,0,1,.68-.29.83.83,0,0,1,.68.29,1.13,1.13,0,0,1,.26.76v.43a1.19,1.19,0,0,1-.25.79.84.84,0,0,1-.68.29.88.88,0,0,1-.69-.29,1.13,1.13,0,0,1-.26-.76v-.44Zm1.21-5.24-.61-.39-4.17,6.67.61.39,4.17-6.67Z" transform="translate(-459.89 -267.73)"/><path class="cls-8" d="M836.8,364.11a2.62,2.62,0,0,0-1.82-.64,2.59,2.59,0,0,0-1.82.64,2.17,2.17,0,0,0-.7,1.71,2,2,0,0,0,.33,1.13,2.28,2.28,0,0,0,.9.78,2.37,2.37,0,0,0-1.05.84,2.19,2.19,0,0,0-.37,1.25,2.23,2.23,0,0,0,.74,1.76,3.26,3.26,0,0,0,3.93,0,2.2,2.2,0,0,0,.75-1.76,2.13,2.13,0,0,0-.39-1.25,2.55,2.55,0,0,0-1.06-.84,2.15,2.15,0,0,0,.91-.77,2,2,0,0,0,.34-1.14,2.2,2.2,0,0,0-.69-1.71Zm-.63,6.83a1.63,1.63,0,0,1-1.19.42,1.66,1.66,0,0,1-1.2-.42,1.51,1.51,0,0,1-.43-1.14,1.52,1.52,0,0,1,1.62-1.62,1.61,1.61,0,0,1,1.18.45,1.55,1.55,0,0,1,.46,1.17,1.51,1.51,0,0,1-.44,1.14Zm-.17-6.16a1.43,1.43,0,0,1,.41,1.06,1.45,1.45,0,0,1-.39,1.05,1.38,1.38,0,0,1-1,.4,1.36,1.36,0,0,1-1-.4,1.65,1.65,0,0,1,0-2.13,1.43,1.43,0,0,1,1-.39,1.35,1.35,0,0,1,1,.41Zm6.62-1.23h-.17l-3.11,1.17v1l2.19-.8v7.22h1.09v-8.57Zm3.08,2.09a1.76,1.76,0,0,0,.5,1.31,1.74,1.74,0,0,0,1.26.49,1.68,1.68,0,0,0,1.73-1.76v-.41a1.8,1.8,0,0,0-.48-1.3,1.84,1.84,0,0,0-2.52,0,1.7,1.7,0,0,0-.49,1.26v.41Zm.81-.39a1.16,1.16,0,0,1,.25-.78.86.86,0,0,1,.69-.3.84.84,0,0,1,.68.3,1.12,1.12,0,0,1,.25.76v.43a1.13,1.13,0,0,1-.25.78.82.82,0,0,1-.67.29.88.88,0,0,1-.69-.29,1.13,1.13,0,0,1-.26-.76v-.43Zm3.35,5.2a1.76,1.76,0,0,0,.49,1.31,1.78,1.78,0,0,0,1.26.49,1.67,1.67,0,0,0,1.25-.5,1.7,1.7,0,0,0,.49-1.26v-.42a1.73,1.73,0,0,0-.49-1.3,1.84,1.84,0,0,0-2.52,0,1.74,1.74,0,0,0-.48,1.26v.42Zm.8-.4a1.13,1.13,0,0,1,.26-.78.86.86,0,0,1,.68-.29.83.83,0,0,1,.68.29,1.13,1.13,0,0,1,.26.76v.43a1.19,1.19,0,0,1-.25.79.84.84,0,0,1-.68.29.88.88,0,0,1-.69-.29,1.13,1.13,0,0,1-.26-.76v-.44Zm1.21-5.24-.61-.39-4.17,6.67.61.39,4.17-6.67Z" transform="translate(-459.89 -267.73)"/><path class="cls-8" d="M858.8,318.11a2.62,2.62,0,0,0-1.82-.64,2.59,2.59,0,0,0-1.82.64,2.17,2.17,0,0,0-.7,1.71,2,2,0,0,0,.33,1.13,2.28,2.28,0,0,0,.9.78,2.37,2.37,0,0,0-1.05.84,2.19,2.19,0,0,0-.37,1.25,2.23,2.23,0,0,0,.74,1.76,3.26,3.26,0,0,0,3.93,0,2.2,2.2,0,0,0,.75-1.76,2.13,2.13,0,0,0-.39-1.25,2.55,2.55,0,0,0-1.06-.84,2.15,2.15,0,0,0,.91-.77,2,2,0,0,0,.34-1.14,2.2,2.2,0,0,0-.69-1.71Zm-.63,6.83a1.63,1.63,0,0,1-1.19.42,1.66,1.66,0,0,1-1.2-.42,1.51,1.51,0,0,1-.43-1.14,1.52,1.52,0,0,1,1.62-1.62,1.61,1.61,0,0,1,1.18.45,1.55,1.55,0,0,1,.46,1.17,1.51,1.51,0,0,1-.44,1.14Zm-.17-6.16a1.43,1.43,0,0,1,.41,1.06,1.45,1.45,0,0,1-.39,1.05,1.38,1.38,0,0,1-1,.4,1.36,1.36,0,0,1-1-.4,1.65,1.65,0,0,1,0-2.13,1.43,1.43,0,0,1,1-.39,1.35,1.35,0,0,1,1,.41Zm7.54-.67a2.92,2.92,0,0,0-3.65,0,2.2,2.2,0,0,0-.69,1.71,2,2,0,0,0,.33,1.13,2.28,2.28,0,0,0,.9.78,2.32,2.32,0,0,0-1,.84,2.19,2.19,0,0,0-.38,1.25,2.26,2.26,0,0,0,.74,1.76,2.89,2.89,0,0,0,2,.66,2.85,2.85,0,0,0,2-.66,2.2,2.2,0,0,0,.75-1.76,2.13,2.13,0,0,0-.39-1.25,2.55,2.55,0,0,0-1.06-.84,2.21,2.21,0,0,0,.91-.77,2,2,0,0,0,.34-1.14,2.2,2.2,0,0,0-.69-1.71Zm-.63,6.83a1.91,1.91,0,0,1-2.39,0,1.51,1.51,0,0,1-.43-1.14,1.58,1.58,0,0,1,.44-1.18,1.65,1.65,0,0,1,2.82,1.18,1.51,1.51,0,0,1-.44,1.14Zm-.17-6.16a1.43,1.43,0,0,1,.41,1.06,1.45,1.45,0,0,1-.39,1.05,1.38,1.38,0,0,1-1,.4,1.36,1.36,0,0,1-1-.4,1.65,1.65,0,0,1,0-2.13,1.43,1.43,0,0,1,1-.39,1.35,1.35,0,0,1,1,.41Zm3,.86a1.76,1.76,0,0,0,.5,1.31,1.74,1.74,0,0,0,1.26.49,1.68,1.68,0,0,0,1.73-1.76v-.41a1.8,1.8,0,0,0-.48-1.3,1.84,1.84,0,0,0-2.52,0,1.7,1.7,0,0,0-.49,1.26v.41Zm.81-.39a1.16,1.16,0,0,1,.25-.78.86.86,0,0,1,.69-.3.84.84,0,0,1,.68.3,1.12,1.12,0,0,1,.25.76v.43a1.13,1.13,0,0,1-.25.78.82.82,0,0,1-.67.29.88.88,0,0,1-.69-.29,1.13,1.13,0,0,1-.26-.76v-.43Zm3.35,5.2a1.68,1.68,0,0,0,1.75,1.8,1.67,1.67,0,0,0,1.25-.5,1.7,1.7,0,0,0,.49-1.26v-.42a1.73,1.73,0,0,0-.49-1.3,1.84,1.84,0,0,0-2.52,0,1.74,1.74,0,0,0-.48,1.26v.42Zm.8-.4a1.13,1.13,0,0,1,.26-.78.86.86,0,0,1,.68-.29.83.83,0,0,1,.68.29,1.13,1.13,0,0,1,.26.76v.43a1.19,1.19,0,0,1-.25.79.84.84,0,0,1-.68.29.88.88,0,0,1-.69-.29,1.13,1.13,0,0,1-.26-.76v-.44Zm1.21-5.24-.61-.39-4.17,6.67.61.39,4.17-6.67Z" transform="translate(-459.89 -267.73)"/></g><g id="How_are_you_involved_with_Nonprofit_Organizations_" data-name="How are you involved with Nonprofit Organizations?"><path class="cls-9" d="M602.37,276.85H600.9v-3.79h-3.82v3.79H595.6v-8.53h1.48v3.55h3.82v-3.55h1.47Z" transform="translate(-459.89 -267.73)"/><path class="cls-9" d="M603.72,273.62a3.7,3.7,0,0,1,.37-1.68,2.64,2.64,0,0,1,1-1.15,3,3,0,0,1,1.53-.4,2.76,2.76,0,0,1,2.08.83,3.2,3.2,0,0,1,.87,2.19v.33a3.77,3.77,0,0,1-.36,1.68,2.65,2.65,0,0,1-1,1.14,2.91,2.91,0,0,1-1.55.41,2.72,2.72,0,0,1-2.14-.9,3.4,3.4,0,0,1-.81-2.38Zm1.42.12a2.56,2.56,0,0,0,.41,1.54,1.41,1.41,0,0,0,2.24,0,2.83,2.83,0,0,0,.41-1.65,2.47,2.47,0,0,0-.42-1.52,1.3,1.3,0,0,0-1.12-.56,1.32,1.32,0,0,0-1.11.55A2.79,2.79,0,0,0,605.14,273.74Z" transform="translate(-459.89 -267.73)"/><path class="cls-9" d="M616.39,274.89l1-4.38h1.38l-1.72,6.34h-1.18l-1.36-4.35-1.33,4.35H612l-1.74-6.34h1.39l1,4.33,1.3-4.33h1.07Z" transform="translate(-459.89 -267.73)"/><path class="cls-9" d="M626.51,276.85a2.48,2.48,0,0,1-.16-.59,2.23,2.23,0,0,1-1.67.71,2.19,2.19,0,0,1-1.55-.55,1.72,1.72,0,0,1-.61-1.35,1.78,1.78,0,0,1,.76-1.55,3.65,3.65,0,0,1,2.15-.54h.87v-.42a1,1,0,0,0-1.11-1.08,1.27,1.27,0,0,0-.8.24.74.74,0,0,0-.31.62h-1.42a1.6,1.6,0,0,1,.34-1,2.35,2.35,0,0,1,.94-.71,3.36,3.36,0,0,1,1.33-.26,2.71,2.71,0,0,1,1.78.56,2,2,0,0,1,.68,1.58v2.86a3.22,3.22,0,0,0,.24,1.36v.1Zm-1.56-1a1.57,1.57,0,0,0,.79-.2,1.35,1.35,0,0,0,.56-.55v-1.2h-.77a2.15,2.15,0,0,0-1.19.28.89.89,0,0,0-.39.78.83.83,0,0,0,.27.65A1.05,1.05,0,0,0,625,275.82Z" transform="translate(-459.89 -267.73)"/><path class="cls-9" d="M632.54,271.81a3.68,3.68,0,0,0-.58-.05,1.3,1.3,0,0,0-1.32.75v4.34h-1.43v-6.34h1.36l0,.71a1.61,1.61,0,0,1,1.43-.83,1.21,1.21,0,0,1,.5.09Z" transform="translate(-459.89 -267.73)"/><path class="cls-9" d="M636.12,277a2.94,2.94,0,0,1-2.2-.86,3.07,3.07,0,0,1-.84-2.27v-.17a3.76,3.76,0,0,1,.37-1.7,2.76,2.76,0,0,1,2.5-1.58,2.48,2.48,0,0,1,2,.83,3.5,3.5,0,0,1,.71,2.34v.57h-4.14a1.86,1.86,0,0,0,.52,1.24,1.56,1.56,0,0,0,1.16.46,1.92,1.92,0,0,0,1.59-.79l.77.73a2.5,2.5,0,0,1-1,.88A3.15,3.15,0,0,1,636.12,277Zm-.17-5.43a1.19,1.19,0,0,0-1,.41,2.13,2.13,0,0,0-.46,1.14h2.71V273a1.76,1.76,0,0,0-.38-1.08A1.19,1.19,0,0,0,636,271.54Z" transform="translate(-459.89 -267.73)"/><path class="cls-9" d="M645,274.81l1.29-4.3h1.52l-2.52,7.3a2.05,2.05,0,0,1-2,1.6,2.24,2.24,0,0,1-.69-.11v-1.1l.27,0a1.38,1.38,0,0,0,.81-.2,1.21,1.21,0,0,0,.43-.66l.21-.54-2.23-6.31h1.54Z" transform="translate(-459.89 -267.73)"/><path class="cls-9" d="M648.24,273.62a3.7,3.7,0,0,1,.37-1.68,2.64,2.64,0,0,1,1-1.15,3,3,0,0,1,1.53-.4,2.76,2.76,0,0,1,2.08.83,3.25,3.25,0,0,1,.87,2.19v.33a3.77,3.77,0,0,1-.36,1.68,2.65,2.65,0,0,1-1,1.14,2.94,2.94,0,0,1-1.55.41,2.76,2.76,0,0,1-2.15-.9,3.44,3.44,0,0,1-.8-2.38Zm1.42.12a2.56,2.56,0,0,0,.41,1.54,1.41,1.41,0,0,0,2.24,0,2.83,2.83,0,0,0,.41-1.65,2.47,2.47,0,0,0-.42-1.52,1.3,1.3,0,0,0-1.12-.56,1.32,1.32,0,0,0-1.11.55A2.79,2.79,0,0,0,649.66,273.74Z" transform="translate(-459.89 -267.73)"/><path class="cls-9" d="M659.18,276.23a2.22,2.22,0,0,1-1.78.74,1.93,1.93,0,0,1-1.56-.61,2.52,2.52,0,0,1-.53-1.74v-4.11h1.42v4.09c0,.8.33,1.21,1,1.21a1.4,1.4,0,0,0,1.4-.75v-4.55h1.43v6.34h-1.35Z" transform="translate(-459.89 -267.73)"/><path class="cls-9" d="M665,268.86a.74.74,0,0,1,.8-.76.78.78,0,0,1,.6.22.75.75,0,0,1,.21.54.73.73,0,0,1-.21.54.81.81,0,0,1-.6.21.77.77,0,0,1-.59-.21A.73.73,0,0,1,665,268.86Zm1.51,8h-1.43v-6.34h1.43Z" transform="translate(-459.89 -267.73)"/><path class="cls-9" d="M669.38,270.51l0,.73a2.3,2.3,0,0,1,1.85-.85c1.32,0,2,.76,2,2.27v4.19h-1.42v-4.11a1.31,1.31,0,0,0-.26-.89,1.12,1.12,0,0,0-.85-.29,1.37,1.37,0,0,0-1.29.78v4.51H668v-6.34Z" transform="translate(-459.89 -267.73)"/><path class="cls-9" d="M677,275.05l1.34-4.54h1.47l-2.2,6.34h-1.23l-2.22-6.34h1.48Z" transform="translate(-459.89 -267.73)"/><path class="cls-9" d="M680.31,273.62a3.84,3.84,0,0,1,.37-1.68,2.7,2.7,0,0,1,1-1.15,3,3,0,0,1,1.53-.4,2.79,2.79,0,0,1,2.09.83,3.24,3.24,0,0,1,.86,2.19v.33a3.77,3.77,0,0,1-.36,1.68,2.71,2.71,0,0,1-1,1.14,3,3,0,0,1-1.55.41,2.74,2.74,0,0,1-2.15-.9,3.4,3.4,0,0,1-.81-2.38Zm1.43.12a2.56,2.56,0,0,0,.4,1.54,1.42,1.42,0,0,0,2.25,0,2.83,2.83,0,0,0,.4-1.65,2.54,2.54,0,0,0-.41-1.52,1.32,1.32,0,0,0-1.13-.56,1.29,1.29,0,0,0-1.1.55A2.72,2.72,0,0,0,681.74,273.74Z" transform="translate(-459.89 -267.73)"/><path class="cls-9" d="M688.93,276.85H687.5v-9h1.43Z" transform="translate(-459.89 -267.73)"/><path class="cls-9" d="M692.71,275.05l1.34-4.54h1.47l-2.19,6.34h-1.24l-2.21-6.34h1.47Z" transform="translate(-459.89 -267.73)"/><path class="cls-9" d="M699.13,277a3,3,0,0,1-2.2-.86,3.07,3.07,0,0,1-.84-2.27v-.17a3.76,3.76,0,0,1,.37-1.7,2.77,2.77,0,0,1,1-1.16,2.68,2.68,0,0,1,1.47-.42,2.48,2.48,0,0,1,2,.83,3.45,3.45,0,0,1,.71,2.34v.57h-4.14a1.91,1.91,0,0,0,.52,1.24,1.58,1.58,0,0,0,1.16.46,1.92,1.92,0,0,0,1.59-.79l.77.73a2.5,2.5,0,0,1-1,.88A3.12,3.12,0,0,1,699.13,277Zm-.17-5.43a1.19,1.19,0,0,0-1,.41,2.13,2.13,0,0,0-.46,1.14h2.71V273a1.71,1.71,0,0,0-.38-1.08A1.19,1.19,0,0,0,699,271.54Z" transform="translate(-459.89 -267.73)"/><path class="cls-9" d="M702.51,273.63a3.79,3.79,0,0,1,.68-2.35,2.18,2.18,0,0,1,1.82-.89,2.07,2.07,0,0,1,1.63.71v-3.25h1.42v9h-1.29l-.07-.66a2.08,2.08,0,0,1-1.7.78,2.16,2.16,0,0,1-1.8-.9A3.91,3.91,0,0,1,702.51,273.63Zm1.42.13a2.74,2.74,0,0,0,.37,1.51,1.22,1.22,0,0,0,1.06.54,1.35,1.35,0,0,0,1.28-.78v-2.71a1.32,1.32,0,0,0-1.27-.76,1.2,1.2,0,0,0-1.06.55A2.91,2.91,0,0,0,703.93,273.76Z" transform="translate(-459.89 -267.73)"/><path class="cls-9" d="M718.11,274.89l1-4.38h1.39l-1.73,6.34H717.6l-1.36-4.35-1.33,4.35h-1.17L712,270.51h1.39l1,4.33,1.3-4.33h1.07Z" transform="translate(-459.89 -267.73)"/><path class="cls-9" d="M721.46,268.86a.74.74,0,0,1,.8-.76.78.78,0,0,1,.6.22.75.75,0,0,1,.21.54.73.73,0,0,1-.21.54.81.81,0,0,1-.6.21.77.77,0,0,1-.59-.21A.73.73,0,0,1,721.46,268.86Zm1.51,8h-1.42v-6.34H723Z" transform="translate(-459.89 -267.73)"/><path class="cls-9" d="M726.3,269v1.54h1.12v1.05H726.3v3.54a.76.76,0,0,0,.15.53.64.64,0,0,0,.51.16,2.2,2.2,0,0,0,.5-.06v1.1a3.57,3.57,0,0,1-.94.14c-1.09,0-1.64-.61-1.64-1.81v-3.6h-1v-1.05h1V269Z" transform="translate(-459.89 -267.73)"/><path class="cls-9" d="M729.91,271.2a2.25,2.25,0,0,1,1.77-.81c1.35,0,2,.77,2.05,2.32v4.14h-1.42v-4.09a1.29,1.29,0,0,0-.28-.93,1.18,1.18,0,0,0-.84-.27,1.37,1.37,0,0,0-1.28.76v4.53h-1.42v-9h1.42Z" transform="translate(-459.89 -267.73)"/><path class="cls-9" d="M739.48,270.51l0,.73a2.31,2.31,0,0,1,1.85-.85c1.32,0,2,.76,2,2.27v4.19H742v-4.11a1.31,1.31,0,0,0-.26-.89,1.1,1.1,0,0,0-.85-.29,1.37,1.37,0,0,0-1.29.78v4.51h-1.42v-6.34Z" transform="translate(-459.89 -267.73)"/><path class="cls-9" d="M744.57,273.62a3.7,3.7,0,0,1,.37-1.68,2.68,2.68,0,0,1,1-1.15,3,3,0,0,1,1.54-.4,2.77,2.77,0,0,1,2.08.83,3.3,3.3,0,0,1,.87,2.19v.33a3.77,3.77,0,0,1-.36,1.68,2.65,2.65,0,0,1-1,1.14,2.94,2.94,0,0,1-1.55.41,2.76,2.76,0,0,1-2.15-.9,3.44,3.44,0,0,1-.8-2.38Zm1.42.12a2.56,2.56,0,0,0,.41,1.54,1.41,1.41,0,0,0,2.24,0,2.83,2.83,0,0,0,.4-1.65,2.47,2.47,0,0,0-.41-1.52,1.4,1.4,0,0,0-2.23,0A2.79,2.79,0,0,0,746,273.74Z" transform="translate(-459.89 -267.73)"/><path class="cls-9" d="M753,270.51l0,.73a2.29,2.29,0,0,1,1.84-.85c1.32,0,2,.76,2,2.27v4.19h-1.42v-4.11a1.31,1.31,0,0,0-.26-.89,1.13,1.13,0,0,0-.86-.29,1.37,1.37,0,0,0-1.28.78v4.51h-1.42v-6.34Z" transform="translate(-459.89 -267.73)"/><path class="cls-9" d="M763.89,273.74a3.73,3.73,0,0,1-.67,2.35,2.12,2.12,0,0,1-1.79.88,2.16,2.16,0,0,1-1.67-.69v3h-1.42v-8.78h1.31l.06.64a2.1,2.1,0,0,1,1.7-.76,2.15,2.15,0,0,1,1.82.87,3.85,3.85,0,0,1,.66,2.4Zm-1.42-.12a2.64,2.64,0,0,0-.37-1.5,1.23,1.23,0,0,0-1.09-.56,1.3,1.3,0,0,0-1.25.72v2.81a1.33,1.33,0,0,0,1.27.74,1.22,1.22,0,0,0,1.06-.55A2.87,2.87,0,0,0,762.47,273.62Z" transform="translate(-459.89 -267.73)"/><path class="cls-9" d="M768.42,271.81a3.81,3.81,0,0,0-.59-.05,1.29,1.29,0,0,0-1.31.75v4.34h-1.43v-6.34h1.36l0,.71a1.61,1.61,0,0,1,1.43-.83,1.21,1.21,0,0,1,.5.09Z" transform="translate(-459.89 -267.73)"/><path class="cls-9" d="M768.84,273.62a3.7,3.7,0,0,1,.37-1.68,2.68,2.68,0,0,1,1-1.15,3,3,0,0,1,1.54-.4,2.77,2.77,0,0,1,2.08.83,3.3,3.3,0,0,1,.87,2.19v.33a3.77,3.77,0,0,1-.36,1.68,2.65,2.65,0,0,1-1,1.14,2.94,2.94,0,0,1-1.55.41,2.76,2.76,0,0,1-2.15-.9,3.44,3.44,0,0,1-.8-2.38Zm1.42.12a2.56,2.56,0,0,0,.41,1.54,1.29,1.29,0,0,0,1.12.55,1.31,1.31,0,0,0,1.12-.56,2.83,2.83,0,0,0,.4-1.65,2.47,2.47,0,0,0-.41-1.52,1.31,1.31,0,0,0-1.12-.56,1.3,1.3,0,0,0-1.11.55A2.79,2.79,0,0,0,770.26,273.74Z" transform="translate(-459.89 -267.73)"/><path class="cls-9" d="M776.44,276.85v-5.29h-1v-1.05h1v-.58a2.18,2.18,0,0,1,.58-1.63,2.26,2.26,0,0,1,1.64-.57,3.3,3.3,0,0,1,.8.1l0,1.12a2.16,2.16,0,0,0-.54-.05.92.92,0,0,0-1,1.05v.56h1.29v1.05h-1.29v5.29Z" transform="translate(-459.89 -267.73)"/><path class="cls-9" d="M780.19,268.86a.75.75,0,0,1,.21-.54.78.78,0,0,1,.6-.22.77.77,0,0,1,.59.22.75.75,0,0,1,.21.54.73.73,0,0,1-.21.54.8.8,0,0,1-.59.21.81.81,0,0,1-.6-.21A.73.73,0,0,1,780.19,268.86Zm1.51,8h-1.42v-6.34h1.42Z" transform="translate(-459.89 -267.73)"/><path class="cls-9" d="M785,269v1.54h1.12v1.05H785v3.54a.82.82,0,0,0,.14.53.66.66,0,0,0,.51.16,2.14,2.14,0,0,0,.5-.06v1.1a3.45,3.45,0,0,1-.94.14c-1.09,0-1.64-.61-1.64-1.81v-3.6h-1v-1.05h1V269Z" transform="translate(-459.89 -267.73)"/><path class="cls-9" d="M790,273.62a3.83,3.83,0,0,1,.36-1.68,2.77,2.77,0,0,1,1-1.15,3,3,0,0,1,1.54-.4,2.77,2.77,0,0,1,2.08.83,3.24,3.24,0,0,1,.86,2.19v.33a3.77,3.77,0,0,1-.36,1.68,2.65,2.65,0,0,1-1,1.14,3,3,0,0,1-1.55.41,2.74,2.74,0,0,1-2.15-.9,3.4,3.4,0,0,1-.8-2.38Zm1.42.12a2.56,2.56,0,0,0,.4,1.54,1.42,1.42,0,0,0,2.25,0,2.83,2.83,0,0,0,.4-1.65,2.54,2.54,0,0,0-.41-1.52,1.31,1.31,0,0,0-1.12-.56,1.3,1.3,0,0,0-1.11.55A2.79,2.79,0,0,0,791.39,273.74Z" transform="translate(-459.89 -267.73)"/><path class="cls-9" d="M800.38,271.81a3.58,3.58,0,0,0-.58-.05,1.29,1.29,0,0,0-1.31.75v4.34h-1.43v-6.34h1.36l0,.71a1.61,1.61,0,0,1,1.43-.83,1.21,1.21,0,0,1,.5.09Z" transform="translate(-459.89 -267.73)"/><path class="cls-9" d="M800.92,273.63a3.68,3.68,0,0,1,.7-2.36,2.23,2.23,0,0,1,1.84-.88,2.12,2.12,0,0,1,1.71.76l.06-.64h1.28v6.15a2.58,2.58,0,0,1-.77,2,3,3,0,0,1-2.1.72,3.43,3.43,0,0,1-1.36-.29,2.52,2.52,0,0,1-1-.76l.67-.86a2,2,0,0,0,1.62.78,1.6,1.6,0,0,0,1.12-.38,1.49,1.49,0,0,0,.41-1.13v-.43a2.09,2.09,0,0,1-1.64.69,2.23,2.23,0,0,1-1.82-.89A3.82,3.82,0,0,1,800.92,273.63Zm1.42.13a2.57,2.57,0,0,0,.39,1.5,1.27,1.27,0,0,0,1.08.55,1.38,1.38,0,0,0,1.28-.74v-2.79a1.35,1.35,0,0,0-1.27-.72,1.23,1.23,0,0,0-1.09.56A2.84,2.84,0,0,0,802.34,273.76Z" transform="translate(-459.89 -267.73)"/><path class="cls-9" d="M811.76,276.85a2.48,2.48,0,0,1-.16-.59,2.23,2.23,0,0,1-1.67.71,2.19,2.19,0,0,1-1.55-.55,1.72,1.72,0,0,1-.61-1.35,1.78,1.78,0,0,1,.76-1.55,3.65,3.65,0,0,1,2.15-.54h.87v-.42a1,1,0,0,0-1.11-1.08,1.27,1.27,0,0,0-.8.24.74.74,0,0,0-.31.62h-1.42a1.6,1.6,0,0,1,.34-1,2.35,2.35,0,0,1,.94-.71,3.36,3.36,0,0,1,1.33-.26,2.71,2.71,0,0,1,1.78.56,2,2,0,0,1,.68,1.58v2.86a3.22,3.22,0,0,0,.24,1.36v.1Zm-1.56-1a1.57,1.57,0,0,0,.79-.2,1.35,1.35,0,0,0,.56-.55v-1.2h-.77a2.15,2.15,0,0,0-1.19.28.89.89,0,0,0-.39.78.83.83,0,0,0,.27.65A1.05,1.05,0,0,0,810.2,275.82Z" transform="translate(-459.89 -267.73)"/><path class="cls-9" d="M815.79,270.51l0,.73a2.29,2.29,0,0,1,1.84-.85c1.33,0,2,.76,2,2.27v4.19h-1.42v-4.11a1.31,1.31,0,0,0-.26-.89,1.13,1.13,0,0,0-.86-.29,1.37,1.37,0,0,0-1.28.78v4.51h-1.42v-6.34Z" transform="translate(-459.89 -267.73)"/><path class="cls-9" d="M821.14,268.86a.75.75,0,0,1,.21-.54.78.78,0,0,1,.6-.22.77.77,0,0,1,.59.22.75.75,0,0,1,.21.54.73.73,0,0,1-.21.54.8.8,0,0,1-.59.21.81.81,0,0,1-.6-.21A.73.73,0,0,1,821.14,268.86Zm1.52,8h-1.43v-6.34h1.43Z" transform="translate(-459.89 -267.73)"/><path class="cls-9" d="M825.73,275.71h3.37v1.14H824v-.93l3.21-4.26H824v-1.15h5v.9Z" transform="translate(-459.89 -267.73)"/><path class="cls-9" d="M834,276.85a2.39,2.39,0,0,1-.17-.59,2.38,2.38,0,0,1-3.22.16,1.74,1.74,0,0,1-.6-1.35,1.8,1.8,0,0,1,.75-1.55,3.65,3.65,0,0,1,2.15-.54h.88v-.42a1.09,1.09,0,0,0-.28-.79,1.11,1.11,0,0,0-.84-.29,1.24,1.24,0,0,0-.79.24.74.74,0,0,0-.31.62h-1.43a1.61,1.61,0,0,1,.35-1,2.28,2.28,0,0,1,.94-.71,3.36,3.36,0,0,1,1.33-.26,2.66,2.66,0,0,1,1.77.56,2,2,0,0,1,.68,1.58v2.86a3.22,3.22,0,0,0,.24,1.36v.1Zm-1.57-1a1.58,1.58,0,0,0,.8-.2,1.41,1.41,0,0,0,.56-.55v-1.2h-.77a2.13,2.13,0,0,0-1.19.28.88.88,0,0,0-.4.78.83.83,0,0,0,.27.65A1.09,1.09,0,0,0,832.46,275.82Z" transform="translate(-459.89 -267.73)"/><path class="cls-9" d="M838.52,269v1.54h1.12v1.05h-1.12v3.54a.77.77,0,0,0,.14.53.66.66,0,0,0,.51.16,2.14,2.14,0,0,0,.5-.06v1.1a3.51,3.51,0,0,1-.94.14c-1.09,0-1.64-.61-1.64-1.81v-3.6h-1v-1.05h1V269Z" transform="translate(-459.89 -267.73)"/><path class="cls-9" d="M840.73,268.86a.74.74,0,0,1,.2-.54.93.93,0,0,1,1.2,0,.75.75,0,0,1,.21.54.73.73,0,0,1-.21.54,1,1,0,0,1-1.2,0A.72.72,0,0,1,840.73,268.86Zm1.51,8h-1.43v-6.34h1.43Z" transform="translate(-459.89 -267.73)"/><path class="cls-9" d="M843.52,273.62a3.7,3.7,0,0,1,.37-1.68,2.7,2.7,0,0,1,1-1.15,3,3,0,0,1,1.53-.4,2.76,2.76,0,0,1,2.08.83,3.2,3.2,0,0,1,.87,2.19v.33a3.77,3.77,0,0,1-.37,1.68,2.65,2.65,0,0,1-1,1.14,2.91,2.91,0,0,1-1.55.41,2.72,2.72,0,0,1-2.14-.9,3.4,3.4,0,0,1-.81-2.38Zm1.42.12a2.56,2.56,0,0,0,.41,1.54,1.3,1.3,0,0,0,1.12.55,1.33,1.33,0,0,0,1.13-.56,2.91,2.91,0,0,0,.4-1.65,2.47,2.47,0,0,0-.42-1.52,1.3,1.3,0,0,0-1.12-.56,1.32,1.32,0,0,0-1.11.55A2.79,2.79,0,0,0,844.94,273.74Z" transform="translate(-459.89 -267.73)"/><path class="cls-9" d="M851.94,270.51l0,.73a2.31,2.31,0,0,1,1.85-.85c1.32,0,2,.76,2,2.27v4.19h-1.42v-4.11a1.31,1.31,0,0,0-.26-.89,1.12,1.12,0,0,0-.85-.29,1.37,1.37,0,0,0-1.29.78v4.51H850.6v-6.34Z" transform="translate(-459.89 -267.73)"/><path class="cls-9" d="M860.85,275.13a.64.64,0,0,0-.32-.58,3.09,3.09,0,0,0-1-.35,5.55,5.55,0,0,1-1.21-.39,1.62,1.62,0,0,1-1.07-1.5,1.68,1.68,0,0,1,.7-1.37,2.75,2.75,0,0,1,1.75-.55,2.83,2.83,0,0,1,1.84.57,1.76,1.76,0,0,1,.7,1.45h-1.42a.89.89,0,0,0-.31-.68,1.17,1.17,0,0,0-.81-.27,1.22,1.22,0,0,0-.76.22.67.67,0,0,0-.3.58.57.57,0,0,0,.28.51,3.69,3.69,0,0,0,1.11.36,5.61,5.61,0,0,1,1.32.44,2.06,2.06,0,0,1,.71.61,1.61,1.61,0,0,1,.23.87,1.68,1.68,0,0,1-.71,1.39,3,3,0,0,1-1.86.53,3.41,3.41,0,0,1-1.39-.28,2.37,2.37,0,0,1-.95-.78,1.88,1.88,0,0,1-.34-1.06h1.39a1,1,0,0,0,.38.78,1.47,1.47,0,0,0,.93.27,1.44,1.44,0,0,0,.85-.21A.67.67,0,0,0,860.85,275.13Z" transform="translate(-459.89 -267.73)"/><path class="cls-9" d="M864.81,274.35a3.32,3.32,0,0,1,.19-1.25,3.25,3.25,0,0,1,.77-1,6.1,6.1,0,0,0,.72-.79,1.36,1.36,0,0,0,.23-.77,1.18,1.18,0,0,0-.27-.84,1,1,0,0,0-.8-.29,1.14,1.14,0,0,0-.81.28,1,1,0,0,0-.31.77h-1.42a2.1,2.1,0,0,1,.7-1.64,2.69,2.69,0,0,1,1.84-.61,2.63,2.63,0,0,1,1.84.6,2.15,2.15,0,0,1,.66,1.67,2.73,2.73,0,0,1-.89,1.88l-.72.71a2,2,0,0,0-.4,1.29Zm-.1,1.82a.76.76,0,0,1,.21-.56.82.82,0,0,1,.59-.21.77.77,0,0,1,.59.22.79.79,0,0,1,0,1.08.78.78,0,0,1-.6.22.74.74,0,0,1-.59-.22A.72.72,0,0,1,864.71,276.17Z" transform="translate(-459.89 -267.73)"/></g><g id="Types_of_involvement" data-name="Types of involvement"><path class="cls-9" d="M500,324.77a2.76,2.76,0,0,1-1.23.81,5.16,5.16,0,0,1-1.76.29,3.56,3.56,0,0,1-1.78-.44,3,3,0,0,1-1.18-1.29,4.51,4.51,0,0,1-.43-2v-.53a4.87,4.87,0,0,1,.4-2,2.87,2.87,0,0,1,1.14-1.31,3.72,3.72,0,0,1,3.92.21,2.79,2.79,0,0,1,.92,1.93H498.4a1.55,1.55,0,0,0-.48-1,1.49,1.49,0,0,0-1-.32,1.42,1.42,0,0,0-1.25.62,3.28,3.28,0,0,0-.44,1.84v.5a3.11,3.11,0,0,0,.47,1.86,1.6,1.6,0,0,0,1.37.63,1.76,1.76,0,0,0,1.29-.39v-1.35h-1.46v-1.19H500Z" transform="translate(-459.89 -267.73)"/><path class="cls-9" d="M501.16,318.45a.75.75,0,0,1,.23-.58.89.89,0,0,1,.64-.22.88.88,0,0,1,.63.22.75.75,0,0,1,.24.58.77.77,0,0,1-.24.58,1,1,0,0,1-1.26,0A.77.77,0,0,1,501.16,318.45Zm1.65,7.31h-1.56V320h1.56Z" transform="translate(-459.89 -267.73)"/><path class="cls-9" d="M506.26,323.87l1.08-3.92H509l-2,5.81h-1.48l-2-5.81h1.62Z" transform="translate(-459.89 -267.73)"/><path class="cls-9" d="M512.32,325.87a2.85,2.85,0,0,1-2.08-.78,2.79,2.79,0,0,1-.81-2.09v-.15a3.59,3.59,0,0,1,.34-1.57,2.54,2.54,0,0,1,1-1.06,2.69,2.69,0,0,1,1.42-.38,2.37,2.37,0,0,1,1.87.76,3,3,0,0,1,.69,2.13v.63H511a1.42,1.42,0,0,0,.45.91,1.37,1.37,0,0,0,1,.35,1.67,1.67,0,0,0,1.4-.65l.76.85a2.24,2.24,0,0,1-.94.77A3,3,0,0,1,512.32,325.87Zm-.18-4.77a1,1,0,0,0-.75.31,1.69,1.69,0,0,0-.37.89h2.16v-.12a1.11,1.11,0,0,0-.28-.8A1,1,0,0,0,512.14,321.1Z" transform="translate(-459.89 -267.73)"/><path class="cls-9" d="M518.75,325.76v-4.67h-.86V320h.86v-.49a2,2,0,0,1,.56-1.52,2.19,2.19,0,0,1,1.57-.54,3.7,3.7,0,0,1,.79.11v1.2a2.12,2.12,0,0,0-.47,0c-.59,0-.88.28-.88.82V320h1.15v1.14h-1.15v4.67Z" transform="translate(-459.89 -267.73)"/><path class="cls-9" d="M522.26,318.45a.78.78,0,0,1,.23-.58.89.89,0,0,1,.64-.22.85.85,0,0,1,.63.22.75.75,0,0,1,.24.58.77.77,0,0,1-.24.58,1,1,0,0,1-1.26,0A.77.77,0,0,1,522.26,318.45Zm1.65,7.31h-1.56V320h1.56Z" transform="translate(-459.89 -267.73)"/><path class="cls-9" d="M526.62,320l0,.67a2,2,0,0,1,1.67-.78,1.67,1.67,0,0,1,1.38.55,2.54,2.54,0,0,1,.46,1.62v3.75h-1.55v-3.71a1,1,0,0,0-.22-.72.94.94,0,0,0-.71-.22,1.06,1.06,0,0,0-1,.55v4.1h-1.56V320Z" transform="translate(-459.89 -267.73)"/><path class="cls-9" d="M534.72,325.76a1.45,1.45,0,0,1-.16-.52,1.89,1.89,0,0,1-1.47.63,2,2,0,0,1-1.41-.49,1.58,1.58,0,0,1-.56-1.25,1.65,1.65,0,0,1,.68-1.42,3.44,3.44,0,0,1,2-.5h.72v-.33a1,1,0,0,0-.21-.65.82.82,0,0,0-.65-.24,1,1,0,0,0-.62.19.65.65,0,0,0-.22.52h-1.55a1.56,1.56,0,0,1,.31-.94,2,2,0,0,1,.88-.67,3.25,3.25,0,0,1,1.28-.25,2.53,2.53,0,0,1,1.7.54,1.9,1.9,0,0,1,.63,1.52v2.52a2.86,2.86,0,0,0,.23,1.25v.09Zm-1.29-1.08a1.4,1.4,0,0,0,.64-.15,1.06,1.06,0,0,0,.43-.41v-1h-.58c-.78,0-1.2.27-1.25.81V324a.66.66,0,0,0,.2.48A.84.84,0,0,0,533.43,324.68Z" transform="translate(-459.89 -267.73)"/><path class="cls-9" d="M538.67,320l.05.67a2,2,0,0,1,1.67-.78,1.67,1.67,0,0,1,1.38.55,2.54,2.54,0,0,1,.46,1.62v3.75h-1.55v-3.71a1,1,0,0,0-.22-.72.94.94,0,0,0-.71-.22,1,1,0,0,0-1,.55v4.1h-1.56V320Z" transform="translate(-459.89 -267.73)"/><path class="cls-9" d="M545.82,324.62a1,1,0,0,0,.7-.24.83.83,0,0,0,.28-.63h1.46a2,2,0,0,1-.33,1.09,2.19,2.19,0,0,1-.86.76,2.76,2.76,0,0,1-1.22.27,2.53,2.53,0,0,1-2-.79,3.14,3.14,0,0,1-.72-2.19v-.1a3.1,3.1,0,0,1,.72-2.15,2.5,2.5,0,0,1,2-.8,2.46,2.46,0,0,1,1.75.62,2.23,2.23,0,0,1,.67,1.66H546.8a1.07,1.07,0,0,0-.28-.74.92.92,0,0,0-.71-.28,1,1,0,0,0-.82.39,2.32,2.32,0,0,0-.27,1.28v.17a2.38,2.38,0,0,0,.27,1.29A.94.94,0,0,0,545.82,324.62Z" transform="translate(-459.89 -267.73)"/><path class="cls-9" d="M549.13,318.45a.75.75,0,0,1,.24-.58.85.85,0,0,1,.63-.22.89.89,0,0,1,.64.22.78.78,0,0,1,.23.58.77.77,0,0,1-.24.58,1,1,0,0,1-1.26,0A.77.77,0,0,1,549.13,318.45Zm1.65,7.31h-1.56V320h1.56Z" transform="translate(-459.89 -267.73)"/><path class="cls-9" d="M555.43,325.76a1.45,1.45,0,0,1-.16-.52,1.88,1.88,0,0,1-1.47.63,2,2,0,0,1-1.41-.49,1.58,1.58,0,0,1-.56-1.25,1.65,1.65,0,0,1,.68-1.42,3.44,3.44,0,0,1,2-.5h.72v-.33a1,1,0,0,0-.21-.65.82.82,0,0,0-.65-.24,1,1,0,0,0-.62.19.65.65,0,0,0-.22.52H552a1.56,1.56,0,0,1,.31-.94,2.09,2.09,0,0,1,.88-.67,3.25,3.25,0,0,1,1.28-.25,2.53,2.53,0,0,1,1.7.54,1.9,1.9,0,0,1,.63,1.52v2.52a2.86,2.86,0,0,0,.23,1.25v.09Zm-1.29-1.08a1.4,1.4,0,0,0,.64-.15,1.06,1.06,0,0,0,.43-.41v-1h-.58c-.78,0-1.19.27-1.24.81V324a.66.66,0,0,0,.2.48A.84.84,0,0,0,554.14,324.68Z" transform="translate(-459.89 -267.73)"/><path class="cls-9" d="M559.59,325.76H558v-8.25h1.55Z" transform="translate(-459.89 -267.73)"/><path class="cls-9" d="M562.51,325.76H561v-8.25h1.56Z" transform="translate(-459.89 -267.73)"/><path class="cls-9" d="M566,323.57,567,320h1.67l-2.34,6.72-.13.3a1.77,1.77,0,0,1-1.72,1.14,2.33,2.33,0,0,1-.68-.1v-1.18h.23a1.25,1.25,0,0,0,.66-.14.86.86,0,0,0,.34-.44l.18-.48-2-5.83h1.67Z" transform="translate(-459.89 -267.73)"/><path class="cls-9" d="M501,370.25l2.23-6.45h1.13l-2.9,7.82h-.91l-2.9-7.82h1.12Z" transform="translate(-459.89 -267.73)"/><path class="cls-9" d="M504.7,368.67a3.35,3.35,0,0,1,.34-1.54,2.39,2.39,0,0,1,.93-1.05,2.54,2.54,0,0,1,1.37-.37,2.45,2.45,0,0,1,1.92.82,3.14,3.14,0,0,1,.73,2.18v.07a3.58,3.58,0,0,1-.32,1.53,2.5,2.5,0,0,1-.93,1.05,2.6,2.6,0,0,1-1.39.37,2.45,2.45,0,0,1-1.92-.82,3.19,3.19,0,0,1-.73-2.18Zm1,.11a2.49,2.49,0,0,0,.45,1.56,1.52,1.52,0,0,0,2.4,0,2.71,2.71,0,0,0,.45-1.66,2.42,2.42,0,0,0-.46-1.55,1.5,1.5,0,0,0-2.39,0A2.7,2.7,0,0,0,505.7,368.78Z" transform="translate(-459.89 -267.73)"/><path class="cls-9" d="M512.32,371.62h-1v-8.25h1Z" transform="translate(-459.89 -267.73)"/><path class="cls-9" d="M517.5,371.05a2.14,2.14,0,0,1-1.71.68,1.79,1.79,0,0,1-1.41-.54,2.29,2.29,0,0,1-.49-1.6v-3.78h1v3.76c0,.88.36,1.32,1.07,1.32a1.49,1.49,0,0,0,1.52-.85v-4.23h1v5.81h-.94Z" transform="translate(-459.89 -267.73)"/><path class="cls-9" d="M520.91,365.81l0,.73a2.12,2.12,0,0,1,1.74-.83q1.85,0,1.86,2.07v3.84h-1v-3.84a1.36,1.36,0,0,0-.29-.93,1.16,1.16,0,0,0-.88-.3,1.4,1.4,0,0,0-.85.26,1.78,1.78,0,0,0-.57.67v4.14h-1v-5.81Z" transform="translate(-459.89 -267.73)"/><path class="cls-9" d="M527.39,364.41v1.4h1.08v.77h-1.08v3.61a.83.83,0,0,0,.14.52.61.61,0,0,0,.5.18,2,2,0,0,0,.47-.07v.8a2.59,2.59,0,0,1-.76.11,1.24,1.24,0,0,1-1-.4,1.76,1.76,0,0,1-.33-1.14v-3.61h-1.06v-.77h1.06v-1.4Z" transform="translate(-459.89 -267.73)"/><path class="cls-9" d="M532.05,371.73a2.58,2.58,0,0,1-1.93-.77,2.91,2.91,0,0,1-.74-2.08v-.18a3.53,3.53,0,0,1,.33-1.55,2.59,2.59,0,0,1,.93-1.06,2.26,2.26,0,0,1,1.28-.38,2.16,2.16,0,0,1,1.76.74,3.23,3.23,0,0,1,.63,2.14V369h-3.93a2,2,0,0,0,.5,1.39,1.58,1.58,0,0,0,1.22.53,1.75,1.75,0,0,0,.89-.21,2.48,2.48,0,0,0,.64-.57l.61.47A2.44,2.44,0,0,1,532.05,371.73Zm-.13-5.21a1.33,1.33,0,0,0-1,.44,2.1,2.1,0,0,0-.5,1.23h2.91v-.08a1.93,1.93,0,0,0-.41-1.17A1.23,1.23,0,0,0,531.92,366.52Z" transform="translate(-459.89 -267.73)"/><path class="cls-9" d="M537.87,371.73A2.56,2.56,0,0,1,536,371a2.91,2.91,0,0,1-.74-2.08v-.18a3.53,3.53,0,0,1,.33-1.55,2.64,2.64,0,0,1,.92-1.06,2.31,2.31,0,0,1,1.29-.38,2.17,2.17,0,0,1,1.76.74,3.23,3.23,0,0,1,.63,2.14V369H536.2a2.08,2.08,0,0,0,.5,1.39,1.61,1.61,0,0,0,1.23.53,1.78,1.78,0,0,0,.89-.21,2.65,2.65,0,0,0,.64-.57l.6.47A2.42,2.42,0,0,1,537.87,371.73Zm-.12-5.21a1.33,1.33,0,0,0-1,.44,2.17,2.17,0,0,0-.51,1.23h2.92v-.08a1.93,1.93,0,0,0-.41-1.17A1.25,1.25,0,0,0,537.75,366.52Z" transform="translate(-459.89 -267.73)"/><path class="cls-9" d="M544.1,366.7a3.79,3.79,0,0,0-.49,0,1.31,1.31,0,0,0-1.33.83v4.12h-1v-5.81h1v.67a1.57,1.57,0,0,1,1.39-.77,1,1,0,0,1,.44.07Z" transform="translate(-459.89 -267.73)"/><path class="cls-9" d="M549.08,364.41v1.4h1.09v.77h-1.09v3.61a.77.77,0,0,0,.15.52.59.59,0,0,0,.49.18,2,2,0,0,0,.47-.07v.8a2.54,2.54,0,0,1-.76.11,1.22,1.22,0,0,1-1-.4,1.71,1.71,0,0,1-.34-1.14v-3.61H547v-.77h1.06v-1.4Z" transform="translate(-459.89 -267.73)"/><path class="cls-9" d="M551.33,364.27a.59.59,0,0,1,.15-.41.68.68,0,0,1,.88,0,.59.59,0,0,1,.15.41.55.55,0,0,1-.15.4.65.65,0,0,1-.88,0A.55.55,0,0,1,551.33,364.27Zm1.08,7.35h-1v-5.81h1Z" transform="translate(-459.89 -267.73)"/><path class="cls-9" d="M554.93,365.81l0,.65a2.14,2.14,0,0,1,1.72-.75,1.65,1.65,0,0,1,1.66.93,2.37,2.37,0,0,1,.76-.68,2.24,2.24,0,0,1,1.1-.25c1.27,0,1.92.67,1.94,2v3.89h-1v-3.83a1.31,1.31,0,0,0-.29-.93,1.23,1.23,0,0,0-1-.31,1.3,1.3,0,0,0-1.35,1.22v3.85h-1v-3.8a1.11,1.11,0,0,0-1.24-1.27,1.33,1.33,0,0,0-1.33.83v4.24h-1v-5.81Z" transform="translate(-459.89 -267.73)"/><path class="cls-9" d="M566.05,371.73a2.55,2.55,0,0,1-1.92-.77,2.86,2.86,0,0,1-.74-2.08v-.18a3.53,3.53,0,0,1,.33-1.55,2.57,2.57,0,0,1,.92-1.06,2.29,2.29,0,0,1,1.29-.38,2.17,2.17,0,0,1,1.76.74,3.23,3.23,0,0,1,.63,2.14V369h-3.94a2,2,0,0,0,.5,1.39,1.59,1.59,0,0,0,1.22.53,1.81,1.81,0,0,0,.9-.21,2.43,2.43,0,0,0,.63-.57l.61.47A2.44,2.44,0,0,1,566.05,371.73Zm-.12-5.21a1.33,1.33,0,0,0-1,.44,2.11,2.11,0,0,0-.51,1.23h2.91v-.08a1.87,1.87,0,0,0-.41-1.17A1.23,1.23,0,0,0,565.93,366.52Z" transform="translate(-459.89 -267.73)"/><path class="cls-9" d="M464.27,415.43a.82.82,0,0,0-.32-.7,4.23,4.23,0,0,0-1.16-.51,7.86,7.86,0,0,1-1.33-.54,2.17,2.17,0,0,1-1.33-1.94,1.9,1.9,0,0,1,.36-1.13,2.28,2.28,0,0,1,1-.77,3.75,3.75,0,0,1,1.5-.28,3.54,3.54,0,0,1,1.49.3,2.34,2.34,0,0,1,1,.86,2.26,2.26,0,0,1,.36,1.26h-1.61a1.05,1.05,0,0,0-.34-.84,1.39,1.39,0,0,0-.95-.3,1.55,1.55,0,0,0-.92.25.8.8,0,0,0-.33.66.76.76,0,0,0,.39.64,4.27,4.27,0,0,0,1.13.48,5,5,0,0,1,2,1,2,2,0,0,1,.63,1.52,1.9,1.9,0,0,1-.77,1.6,3.39,3.39,0,0,1-2.07.57,4,4,0,0,1-1.64-.33,2.64,2.64,0,0,1-1.13-.9,2.34,2.34,0,0,1-.39-1.33h1.62c0,.86.51,1.29,1.54,1.29a1.53,1.53,0,0,0,.9-.23A.76.76,0,0,0,464.27,415.43Z" transform="translate(-459.89 -267.73)"/><path class="cls-9" d="M468.39,412.31a1.92,1.92,0,0,1,1.56-.74c1.26,0,1.89.73,1.91,2.19v3.73h-1.55v-3.68a1.09,1.09,0,0,0-.21-.74,1,1,0,0,0-.72-.24,1.06,1.06,0,0,0-1,.53v4.13h-1.55v-8.25h1.55Z" transform="translate(-459.89 -267.73)"/><path class="cls-9" d="M476.4,417.49a1.76,1.76,0,0,1-.15-.53,1.89,1.89,0,0,1-1.47.63,2.08,2.08,0,0,1-1.42-.49,1.73,1.73,0,0,1,.13-2.66,3.32,3.32,0,0,1,2-.5h.71v-.34A.93.93,0,0,0,476,413a.8.8,0,0,0-.65-.24.94.94,0,0,0-.61.18.65.65,0,0,0-.23.52h-1.55a1.57,1.57,0,0,1,.31-.93,2,2,0,0,1,.88-.68,3.28,3.28,0,0,1,1.28-.24,2.54,2.54,0,0,1,1.71.54,1.88,1.88,0,0,1,.63,1.51v2.52a2.73,2.73,0,0,0,.23,1.25v.1Zm-1.28-1.08a1.23,1.23,0,0,0,.63-.16,1,1,0,0,0,.43-.41v-1h-.58c-.78,0-1.19.27-1.24.81v.09a.63.63,0,0,0,.21.48A.82.82,0,0,0,475.12,416.41Z" transform="translate(-459.89 -267.73)"/><path class="cls-9" d="M482.2,413.13a4,4,0,0,0-.56,0,1.16,1.16,0,0,0-1.16.59v3.81h-1.55v-5.82h1.47l0,.7a1.42,1.42,0,0,1,1.29-.8,1.53,1.53,0,0,1,.49.07Z" transform="translate(-459.89 -267.73)"/><path class="cls-9" d="M485.62,417.59a2.85,2.85,0,0,1-2.08-.78,2.77,2.77,0,0,1-.81-2.09v-.15a3.62,3.62,0,0,1,.34-1.57,2.54,2.54,0,0,1,1-1.06,2.69,2.69,0,0,1,1.42-.37,2.4,2.4,0,0,1,1.87.75,3,3,0,0,1,.69,2.13v.63h-3.7a1.47,1.47,0,0,0,.45.92,1.36,1.36,0,0,0,1,.34,1.67,1.67,0,0,0,1.4-.65l.76.86a2.32,2.32,0,0,1-.94.77A3.18,3.18,0,0,1,485.62,417.59Zm-.18-4.77a1,1,0,0,0-.75.31,1.7,1.7,0,0,0-.37.9h2.16v-.13a1.13,1.13,0,0,0-.28-.8A1,1,0,0,0,485.44,412.82Z" transform="translate(-459.89 -267.73)"/><path class="cls-9" d="M491.39,414.53a3.45,3.45,0,0,1,.33-1.54,2.33,2.33,0,0,1,1-1.05,2.77,2.77,0,0,1,1.45-.37,2.63,2.63,0,0,1,1.92.72,2.88,2.88,0,0,1,.83,1.95v.4a3.08,3.08,0,0,1-.74,2.15,2.64,2.64,0,0,1-2,.8,2.58,2.58,0,0,1-2-.8,3.1,3.1,0,0,1-.75-2.19Zm1.55.11a2.13,2.13,0,0,0,.31,1.26,1.12,1.12,0,0,0,1.77,0,2.39,2.39,0,0,0,.32-1.39,2.17,2.17,0,0,0-.32-1.26,1,1,0,0,0-.89-.44,1,1,0,0,0-.88.44A2.43,2.43,0,0,0,492.94,414.64Z" transform="translate(-459.89 -267.73)"/><path class="cls-9" d="M499.28,411.67l.05.68a2,2,0,0,1,1.67-.78,1.69,1.69,0,0,1,1.37.54,2.48,2.48,0,0,1,.46,1.62v3.76h-1.55v-3.72a1,1,0,0,0-.21-.72,1,1,0,0,0-.72-.22,1.07,1.07,0,0,0-1,.56v4.1h-1.55v-5.82Z" transform="translate(-459.89 -267.73)"/><path class="cls-9" d="M509.9,415.88a.51.51,0,0,0-.29-.45,2.94,2.94,0,0,0-.9-.29c-1.38-.29-2.07-.88-2.07-1.76a1.57,1.57,0,0,1,.64-1.29,2.56,2.56,0,0,1,1.68-.52,2.8,2.8,0,0,1,1.77.52,1.65,1.65,0,0,1,.66,1.35h-1.55a.78.78,0,0,0-.22-.55.93.93,0,0,0-.67-.22.94.94,0,0,0-.61.18.57.57,0,0,0-.21.45.49.49,0,0,0,.24.42,2.57,2.57,0,0,0,.83.27,8.2,8.2,0,0,1,1,.26,1.61,1.61,0,0,1,1.23,1.57,1.49,1.49,0,0,1-.68,1.28,2.91,2.91,0,0,1-1.76.49,3,3,0,0,1-1.3-.26,2.25,2.25,0,0,1-.89-.71,1.69,1.69,0,0,1-.32-1h1.47a.84.84,0,0,0,.31.63,1.18,1.18,0,0,0,.76.22,1.08,1.08,0,0,0,.68-.17A.53.53,0,0,0,509.9,415.88Z" transform="translate(-459.89 -267.73)"/><path class="cls-9" d="M512.16,414.53a3.32,3.32,0,0,1,.34-1.54,2.37,2.37,0,0,1,1-1.05,2.81,2.81,0,0,1,1.46-.37,2.66,2.66,0,0,1,1.92.72,2.92,2.92,0,0,1,.83,1.95v.4a3,3,0,0,1-.75,2.15,2.91,2.91,0,0,1-4,0,3.1,3.1,0,0,1-.75-2.19Zm1.55.11a2.13,2.13,0,0,0,.32,1.26,1,1,0,0,0,.89.44,1,1,0,0,0,.88-.43,2.39,2.39,0,0,0,.32-1.39,2.17,2.17,0,0,0-.32-1.26,1,1,0,0,0-.89-.44,1,1,0,0,0-.88.44A2.42,2.42,0,0,0,513.71,414.64Z" transform="translate(-459.89 -267.73)"/><path class="cls-9" d="M521,416.34a1.05,1.05,0,0,0,.7-.23.84.84,0,0,0,.28-.63h1.45a2,2,0,0,1-.32,1.08,2.08,2.08,0,0,1-.87.76,2.69,2.69,0,0,1-1.21.27,2.53,2.53,0,0,1-2-.79,3.14,3.14,0,0,1-.72-2.19v-.1a3.08,3.08,0,0,1,.72-2.14,2.46,2.46,0,0,1,2-.8,2.39,2.39,0,0,1,1.74.62,2.15,2.15,0,0,1,.67,1.65H522a1.09,1.09,0,0,0-.28-.74.93.93,0,0,0-.71-.28,1,1,0,0,0-.82.39,2.37,2.37,0,0,0-.28,1.29v.16a2.33,2.33,0,0,0,.28,1.29A.94.94,0,0,0,521,416.34Z" transform="translate(-459.89 -267.73)"/><path class="cls-9" d="M524.35,410.17a.78.78,0,0,1,.23-.57.9.9,0,0,1,.64-.23.87.87,0,0,1,.63.23.81.81,0,0,1,0,1.15,1,1,0,0,1-1.26,0A.75.75,0,0,1,524.35,410.17Zm1.65,7.32h-1.56v-5.82H526Z" transform="translate(-459.89 -267.73)"/><path class="cls-9" d="M530.64,417.49a1.76,1.76,0,0,1-.15-.53,1.89,1.89,0,0,1-1.47.63,2,2,0,0,1-1.41-.49,1.58,1.58,0,0,1-.56-1.25,1.61,1.61,0,0,1,.68-1.41,3.36,3.36,0,0,1,2-.5h.71v-.34a1,1,0,0,0-.2-.64.83.83,0,0,0-.66-.24.94.94,0,0,0-.61.18.65.65,0,0,0-.22.52h-1.56a1.52,1.52,0,0,1,.32-.93,2,2,0,0,1,.88-.68,3.25,3.25,0,0,1,1.28-.24,2.53,2.53,0,0,1,1.7.54,1.88,1.88,0,0,1,.63,1.51v2.52a2.73,2.73,0,0,0,.23,1.25v.1Zm-1.28-1.08a1.23,1.23,0,0,0,.63-.16,1,1,0,0,0,.43-.41v-1h-.58c-.77,0-1.19.27-1.24.81v.09a.66.66,0,0,0,.2.48A.82.82,0,0,0,529.36,416.41Z" transform="translate(-459.89 -267.73)"/><path class="cls-9" d="M534.81,417.49h-1.56v-8.25h1.56Z" transform="translate(-459.89 -267.73)"/><path class="cls-9" d="M540.29,411.67l0,.65a2.06,2.06,0,0,1,1.67-.75,1.56,1.56,0,0,1,1.55.88,2,2,0,0,1,1.74-.88,1.73,1.73,0,0,1,1.41.55,2.5,2.5,0,0,1,.46,1.65v3.72H545.6v-3.71a1.09,1.09,0,0,0-.19-.72.87.87,0,0,0-.68-.23,1,1,0,0,0-1,.67v4h-1.56v-3.7a1.09,1.09,0,0,0-.2-.74.84.84,0,0,0-.67-.22,1,1,0,0,0-1,.55v4.11h-1.55v-5.82Z" transform="translate(-459.89 -267.73)"/><path class="cls-9" d="M551,417.59a2.85,2.85,0,0,1-2.08-.78,2.77,2.77,0,0,1-.81-2.09v-.15a3.62,3.62,0,0,1,.34-1.57,2.54,2.54,0,0,1,1-1.06,2.69,2.69,0,0,1,1.42-.37,2.4,2.4,0,0,1,1.87.75,3,3,0,0,1,.69,2.13v.63h-3.7a1.47,1.47,0,0,0,.45.92,1.36,1.36,0,0,0,1,.34,1.68,1.68,0,0,0,1.4-.65l.76.86a2.32,2.32,0,0,1-.94.77A3.18,3.18,0,0,1,551,417.59Zm-.18-4.77a1,1,0,0,0-.75.31,1.7,1.7,0,0,0-.37.9h2.16v-.13a1.17,1.17,0,0,0-.28-.8A1,1,0,0,0,550.85,412.82Z" transform="translate(-459.89 -267.73)"/><path class="cls-9" d="M554.06,414.54a3.49,3.49,0,0,1,.61-2.17,2,2,0,0,1,1.66-.8,1.8,1.8,0,0,1,1.41.63v-3h1.55v8.25h-1.4l-.07-.62a1.85,1.85,0,0,1-1.5.72,2,2,0,0,1-1.64-.8A3.58,3.58,0,0,1,554.06,414.54Zm1.55.11a2.31,2.31,0,0,0,.28,1.26.93.93,0,0,0,.83.43,1,1,0,0,0,1-.61v-2.29a1,1,0,0,0-1-.61C556,412.83,555.61,413.44,555.61,414.65Z" transform="translate(-459.89 -267.73)"/><path class="cls-9" d="M560.49,410.17a.74.74,0,0,1,.23-.57,1,1,0,0,1,1.27,0,.81.81,0,0,1,0,1.15,1,1,0,0,1-1.27,0A.78.78,0,0,1,560.49,410.17Zm1.64,7.32h-1.55v-5.82h1.55Z" transform="translate(-459.89 -267.73)"/><path class="cls-9" d="M566.78,417.49a2.08,2.08,0,0,1-.16-.53,1.86,1.86,0,0,1-1.46.63,2.08,2.08,0,0,1-1.42-.49,1.73,1.73,0,0,1,.13-2.66,3.32,3.32,0,0,1,2-.5h.71v-.34a.93.93,0,0,0-.21-.64.8.8,0,0,0-.65-.24.92.92,0,0,0-.61.18.65.65,0,0,0-.23.52h-1.55a1.57,1.57,0,0,1,.31-.93,2,2,0,0,1,.88-.68,3.28,3.28,0,0,1,1.28-.24,2.54,2.54,0,0,1,1.71.54,1.88,1.88,0,0,1,.63,1.51v2.52a2.73,2.73,0,0,0,.23,1.25v.1Zm-1.28-1.08a1.23,1.23,0,0,0,.63-.16,1,1,0,0,0,.43-.41v-1H566c-.78,0-1.19.27-1.24.81v.09a.63.63,0,0,0,.21.48A.81.81,0,0,0,565.5,416.41Z" transform="translate(-459.89 -267.73)"/><path class="cls-9" d="M468.61,460.29v3.06h-1v-7.82h2.89a2.94,2.94,0,0,1,2,.65,2.26,2.26,0,0,1,.73,1.74,2.17,2.17,0,0,1-.72,1.75,3,3,0,0,1-2,.62Zm0-.85h1.86a1.83,1.83,0,0,0,1.26-.39,1.39,1.39,0,0,0,.44-1.12,1.45,1.45,0,0,0-.44-1.12,1.71,1.71,0,0,0-1.2-.44h-1.92Z" transform="translate(-459.89 -267.73)"/><path class="cls-9" d="M477.17,458.43a2.45,2.45,0,0,0-.48,0,1.31,1.31,0,0,0-1.33.83v4.13h-1v-5.81h1l0,.67a1.54,1.54,0,0,1,1.38-.78,1,1,0,0,1,.44.07Z" transform="translate(-459.89 -267.73)"/><path class="cls-9" d="M477.72,460.39a3.51,3.51,0,0,1,.33-1.54,2.59,2.59,0,0,1,.94-1.05,2.5,2.5,0,0,1,1.36-.37,2.42,2.42,0,0,1,1.92.82,3.17,3.17,0,0,1,.74,2.19v.07a3.43,3.43,0,0,1-.33,1.52,2.38,2.38,0,0,1-.93,1.05,2.55,2.55,0,0,1-1.38.38,2.45,2.45,0,0,1-1.92-.83,3.11,3.11,0,0,1-.73-2.17Zm1,.12a2.48,2.48,0,0,0,.45,1.55,1.52,1.52,0,0,0,2.4,0,2.71,2.71,0,0,0,.44-1.66,2.48,2.48,0,0,0-.45-1.55,1.51,1.51,0,0,0-2.39,0A2.71,2.71,0,0,0,478.72,460.51Z" transform="translate(-459.89 -267.73)"/><path class="cls-9" d="M485.19,457.54l0,.64a2.14,2.14,0,0,1,1.72-.75,1.66,1.66,0,0,1,1.66.93,2.11,2.11,0,0,1,.75-.67,2.16,2.16,0,0,1,1.1-.26c1.28,0,1.93.67,1.95,2v3.9h-1v-3.84a1.34,1.34,0,0,0-.28-.93,1.28,1.28,0,0,0-1-.31,1.33,1.33,0,0,0-.92.33,1.36,1.36,0,0,0-.42.89v3.86h-1v-3.81a1.11,1.11,0,0,0-1.24-1.27,1.34,1.34,0,0,0-1.34.83v4.25h-1v-5.81Z" transform="translate(-459.89 -267.73)"/><path class="cls-9" d="M493.63,460.39a3.38,3.38,0,0,1,.34-1.54,2.5,2.5,0,0,1,.93-1.05,2.54,2.54,0,0,1,1.37-.37,2.45,2.45,0,0,1,1.92.82,3.17,3.17,0,0,1,.73,2.19v.07a3.56,3.56,0,0,1-.32,1.52,2.5,2.5,0,0,1-.93,1.05,2.59,2.59,0,0,1-1.39.38,2.45,2.45,0,0,1-1.92-.83,3.16,3.16,0,0,1-.73-2.17Zm1,.12a2.48,2.48,0,0,0,.45,1.55,1.43,1.43,0,0,0,1.2.58,1.4,1.4,0,0,0,1.2-.59,2.71,2.71,0,0,0,.45-1.66,2.48,2.48,0,0,0-.45-1.55,1.45,1.45,0,0,0-1.21-.59,1.43,1.43,0,0,0-1.19.58A2.71,2.71,0,0,0,494.63,460.51Z" transform="translate(-459.89 -267.73)"/><path class="cls-9" d="M501.52,456.13v1.41h1.08v.76h-1.08v3.61a.8.8,0,0,0,.14.53.64.64,0,0,0,.5.17,2.59,2.59,0,0,0,.47-.06v.8a3,3,0,0,1-.76.11,1.25,1.25,0,0,1-1-.41,1.76,1.76,0,0,1-.34-1.14V458.3h-1.06v-.76h1.06v-1.41Z" transform="translate(-459.89 -267.73)"/><path class="cls-9" d="M506.17,463.46a2.53,2.53,0,0,1-1.92-.78,2.91,2.91,0,0,1-.74-2.08v-.18a3.45,3.45,0,0,1,.33-1.54,2.61,2.61,0,0,1,.92-1.07,2.4,2.4,0,0,1,1.29-.38,2.16,2.16,0,0,1,1.76.75,3.2,3.2,0,0,1,.63,2.13v.42H504.5a2.12,2.12,0,0,0,.5,1.39,1.6,1.6,0,0,0,1.23.52,1.75,1.75,0,0,0,.89-.21,2.16,2.16,0,0,0,.64-.57l.6.47A2.43,2.43,0,0,1,506.17,463.46Zm-.12-5.21a1.32,1.32,0,0,0-1,.43,2.1,2.1,0,0,0-.5,1.23h2.91v-.08a1.93,1.93,0,0,0-.41-1.17A1.24,1.24,0,0,0,506.05,458.25Z" transform="translate(-459.89 -267.73)"/><path class="cls-9" d="M515.9,463.35a2.2,2.2,0,0,1-.14-.61,2.24,2.24,0,0,1-1.65.72,2,2,0,0,1-1.41-.49,1.58,1.58,0,0,1-.55-1.23,1.63,1.63,0,0,1,.69-1.41,3.2,3.2,0,0,1,1.94-.51h1v-.45a1.09,1.09,0,0,0-.31-.83,1.22,1.22,0,0,0-.92-.31,1.45,1.45,0,0,0-.89.27.79.79,0,0,0-.36.65h-1a1.41,1.41,0,0,1,.31-.84,2.09,2.09,0,0,1,.84-.64,2.77,2.77,0,0,1,1.16-.24,2.34,2.34,0,0,1,1.58.5,1.84,1.84,0,0,1,.59,1.38V462a3.37,3.37,0,0,0,.2,1.27v.09Zm-1.65-.76a1.78,1.78,0,0,0,.89-.24,1.4,1.4,0,0,0,.6-.63v-1.19H515c-1.22,0-1.83.35-1.83,1.07a.9.9,0,0,0,.31.73A1.24,1.24,0,0,0,514.25,462.59Z" transform="translate(-459.89 -267.73)"/><path class="cls-9" d="M523.35,462.64a1.42,1.42,0,0,0,.93-.32,1.14,1.14,0,0,0,.44-.8h.94a1.83,1.83,0,0,1-.34,1,2.39,2.39,0,0,1-.85.72,2.43,2.43,0,0,1-1.12.27,2.4,2.4,0,0,1-1.89-.8,3.14,3.14,0,0,1-.7-2.16v-.17a3.6,3.6,0,0,1,.31-1.51,2.44,2.44,0,0,1,.9-1,2.54,2.54,0,0,1,1.37-.36A2.32,2.32,0,0,1,525,458a2.11,2.11,0,0,1,.69,1.52h-.94a1.35,1.35,0,0,0-.43-.92,1.32,1.32,0,0,0-.95-.36,1.4,1.4,0,0,0-1.17.54,2.54,2.54,0,0,0-.42,1.58v.18a2.49,2.49,0,0,0,.42,1.55A1.39,1.39,0,0,0,523.35,462.64Z" transform="translate(-459.89 -267.73)"/><path class="cls-9" d="M530.36,463.35a.91.91,0,1,0-1.79.11,2.08,2.08,0,0,1-1.41-.49,1.58,1.58,0,0,1-.55-1.23,1.63,1.63,0,0,1,.69-1.41,3.22,3.22,0,0,1,1.94-.51h1v-.45a1.13,1.13,0,0,0-.31-.83,1.25,1.25,0,0,0-.92-.31,1.43,1.43,0,0,0-.89.27.79.79,0,0,0-.36.65h-1a1.35,1.35,0,0,1,.31-.84,2,2,0,0,1,.84-.64,2.77,2.77,0,0,1,1.16-.24,2.31,2.31,0,0,1,1.57.5,1.81,1.81,0,0,1,.59,1.38V462a3.17,3.17,0,0,0,.21,1.27v.09Zm-1.64-.76a1.74,1.74,0,0,0,.88-.24,1.48,1.48,0,0,0,.61-.63v-1.19h-.78c-1.22,0-1.83.35-1.83,1.07a.91.91,0,0,0,.32.73A1.2,1.2,0,0,0,528.72,462.59Z" transform="translate(-459.89 -267.73)"/><path class="cls-9" d="M533.69,457.54l0,.64a2.16,2.16,0,0,1,1.73-.75,1.67,1.67,0,0,1,1.66.93,2.11,2.11,0,0,1,.75-.67,2.16,2.16,0,0,1,1.1-.26c1.27,0,1.92.67,1.94,2v3.9h-1v-3.84a1.35,1.35,0,0,0-.29-.93,1.26,1.26,0,0,0-1-.31,1.31,1.31,0,0,0-.92.33,1.36,1.36,0,0,0-.42.89v3.86h-1v-3.81a1.11,1.11,0,0,0-1.24-1.27,1.33,1.33,0,0,0-1.34.83v4.25h-1v-5.81Z" transform="translate(-459.89 -267.73)"/><path class="cls-9" d="M547.31,460.51a3.43,3.43,0,0,1-.61,2.13,1.94,1.94,0,0,1-1.64.82,2.1,2.1,0,0,1-1.66-.68v2.8h-1v-8h.91l.05.64a2,2,0,0,1,1.68-.75,2,2,0,0,1,1.66.79,3.49,3.49,0,0,1,.61,2.2Zm-1-.12a2.57,2.57,0,0,0-.42-1.55,1.35,1.35,0,0,0-1.15-.57,1.46,1.46,0,0,0-1.35.8v2.78a1.45,1.45,0,0,0,1.36.79,1.35,1.35,0,0,0,1.14-.56A2.83,2.83,0,0,0,546.32,460.39Z" transform="translate(-459.89 -267.73)"/><path class="cls-9" d="M552.16,463.35a2.2,2.2,0,0,1-.14-.61,2.24,2.24,0,0,1-1.65.72A2,2,0,0,1,549,463a1.58,1.58,0,0,1-.55-1.23,1.63,1.63,0,0,1,.69-1.41,3.2,3.2,0,0,1,1.94-.51h1v-.45a1.09,1.09,0,0,0-.31-.83,1.22,1.22,0,0,0-.92-.31,1.45,1.45,0,0,0-.89.27.79.79,0,0,0-.36.65h-1a1.41,1.41,0,0,1,.31-.84,2.09,2.09,0,0,1,.84-.64,2.77,2.77,0,0,1,1.16-.24,2.34,2.34,0,0,1,1.58.5,1.84,1.84,0,0,1,.59,1.38V462a3.37,3.37,0,0,0,.2,1.27v.09Zm-1.65-.76a1.78,1.78,0,0,0,.89-.24,1.4,1.4,0,0,0,.6-.63v-1.19h-.77c-1.22,0-1.83.35-1.83,1.07a.9.9,0,0,0,.31.73A1.24,1.24,0,0,0,550.51,462.59Z" transform="translate(-459.89 -267.73)"/><path class="cls-9" d="M554.56,456a.57.57,0,0,1,.15-.4.56.56,0,0,1,.44-.17.59.59,0,0,1,.44,1,.61.61,0,0,1-.44.16.59.59,0,0,1-.44-.16A.58.58,0,0,1,554.56,456Zm1.08,7.36h-1v-5.81h1Z" transform="translate(-459.89 -267.73)"/><path class="cls-9" d="M557,460.39a3.42,3.42,0,0,1,.63-2.16,2.17,2.17,0,0,1,3.32-.05l0-.64h.91v5.67a2.37,2.37,0,0,1-.67,1.78,2.48,2.48,0,0,1-1.8.65,3,3,0,0,1-1.23-.27,2.21,2.21,0,0,1-.92-.74l.52-.59a2,2,0,0,0,1.56.78,1.51,1.51,0,0,0,1.13-.4,1.58,1.58,0,0,0,.41-1.15v-.5a2,2,0,0,1-1.63.69,2,2,0,0,1-1.65-.83A3.57,3.57,0,0,1,557,460.39Zm1,.12a2.58,2.58,0,0,0,.4,1.54,1.33,1.33,0,0,0,1.13.56,1.44,1.44,0,0,0,1.38-.85V459.1a1.47,1.47,0,0,0-1.37-.83,1.31,1.31,0,0,0-1.13.57A2.76,2.76,0,0,0,558,460.51Z" transform="translate(-459.89 -267.73)"/><path class="cls-9" d="M564.34,457.54l0,.73a2.11,2.11,0,0,1,1.74-.84c1.23,0,1.85.69,1.86,2.08v3.84h-1V459.5a1.36,1.36,0,0,0-.28-.93,1.16,1.16,0,0,0-.88-.3,1.45,1.45,0,0,0-.85.26,1.81,1.81,0,0,0-.57.68v4.14h-1v-5.81Z" transform="translate(-459.89 -267.73)"/></g></svg>