<svg xmlns="http://www.w3.org/2000/svg" xmlns:xlink="http://www.w3.org/1999/xlink" viewBox="0 0 465.87 232.13"><defs><style>.cls-1{fill:none;}.cls-2,.cls-7{fill:#024d81;}.cls-3{fill:#2ab56b;}.cls-4{fill:#80cb5c;}.cls-5{fill:#0193d4;}.cls-6,.cls-7{stroke:#000;stroke-miterlimit:10;stroke-width:0.5px;}.cls-8{clip-path:url(#clip-path);}.cls-9{clip-path:url(#clip-path-2);}.cls-10{fill:#444;}.cls-11{clip-path:url(#clip-path-3);}.cls-12{isolation:isolate;}.cls-13{clip-path:url(#clip-path-6);}.cls-14{clip-path:url(#clip-path-9);}.cls-15{fill:#e87511;}.cls-16{clip-path:url(#clip-path-12);}.cls-17{clip-path:url(#clip-path-15);}.cls-18{clip-path:url(#clip-path-19);}.cls-19{clip-path:url(#clip-path-20);}.cls-20{fill:#fff;}.cls-21{clip-path:url(#clip-path-22);}.cls-22{clip-path:url(#clip-path-23);}.cls-23{clip-path:url(#clip-path-25);}.cls-24{clip-path:url(#clip-path-26);}.cls-25{clip-path:url(#clip-path-28);}.cls-26{clip-path:url(#clip-path-29);}.cls-27{clip-path:url(#clip-path-30);}.cls-28{clip-path:url(#clip-path-31);}.cls-29{clip-path:url(#clip-path-32);}.cls-30{clip-path:url(#clip-path-33);}</style><clipPath id="clip-path" transform="translate(-152.79 -556)"><rect class="cls-1" x="149" y="628.34" width="15" height="48.58"/></clipPath><clipPath id="clip-path-2" transform="translate(-152.79 -556)"><rect class="cls-1" x="150" y="502.21" width="469.29" height="360.79"/></clipPath><clipPath id="clip-path-3" transform="translate(-152.79 -556)"><rect class="cls-5" x="563" y="580" width="55" height="145"/></clipPath><clipPath id="clip-path-6" transform="translate(-152.79 -556)"><rect class="cls-2" x="396" y="580" width="167" height="145"/></clipPath><clipPath id="clip-path-9" transform="translate(-152.79 -556)"><rect class="cls-2" x="286" y="580" width="110" height="145"/></clipPath><clipPath id="clip-path-12" transform="translate(-152.79 -556)"><rect class="cls-3" x="230" y="580" width="56" height="145"/></clipPath><clipPath id="clip-path-15" transform="translate(-152.79 -556)"><rect class="cls-4" x="175" y="580" width="55" height="145"/></clipPath><clipPath id="clip-path-19" transform="translate(-152.79 -556)"><rect class="cls-1" x="568" y="644" width="50" height="17"/></clipPath><clipPath id="clip-path-20" transform="translate(-152.79 -556)"><rect class="cls-1" x="578" y="644" width="24" height="17"/></clipPath><clipPath id="clip-path-22" transform="translate(-152.79 -556)"><rect class="cls-1" x="457" y="644" width="50" height="17"/></clipPath><clipPath id="clip-path-23" transform="translate(-152.79 -556)"><rect class="cls-1" x="467" y="644" width="25" height="17"/></clipPath><clipPath id="clip-path-25" transform="translate(-152.79 -556)"><rect class="cls-1" x="319" y="644" width="50" height="17"/></clipPath><clipPath id="clip-path-26" transform="translate(-152.79 -556)"><rect class="cls-1" x="329" y="644" width="24" height="17"/></clipPath><clipPath id="clip-path-28" transform="translate(-152.79 -556)"><rect class="cls-1" x="236" y="644" width="50" height="17"/></clipPath><clipPath id="clip-path-29" transform="translate(-152.79 -556)"><rect class="cls-1" x="246" y="644" width="24" height="17"/></clipPath><clipPath id="clip-path-30" transform="translate(-152.79 -556)"><rect class="cls-1" x="150" y="496" width="469.29" height="293"/></clipPath><clipPath id="clip-path-31" transform="translate(-152.79 -556)"><rect class="cls-1" x="173.84" y="550.21" width="445.19" height="17"/></clipPath><clipPath id="clip-path-32" transform="translate(-152.79 -556)"><rect class="cls-1" x="181" y="643" width="50" height="17"/></clipPath><clipPath id="clip-path-33" transform="translate(-152.79 -556)"><rect class="cls-1" x="191" y="643" width="24" height="17"/></clipPath></defs><title>LikelihoodV7</title><g id="Layer_2" data-name="Layer 2"><polyline class="cls-6" points="21.62 179.25 21.62 183.25 21.62 187.25"/><polyline class="cls-6" points="133.62 179.25 133.62 183.25 133.62 187.25"/><polyline class="cls-6" points="243.62 179.25 243.62 183.25 243.62 187.25"/><polyline class="cls-6" points="465.62 179.25 465.62 183.25 465.62 187.25"/><polyline class="cls-7" points="22.21 183 133.21 183 243.21 183 465.21 183"/><path d="M208.13,751.42h-3.28v3.46h-1v-7.82h4.84v.84h-3.81v2.68h3.28Z" transform="translate(-152.79 -556)"/><path d="M213.15,754.88a1.89,1.89,0,0,1-.14-.62,2.21,2.21,0,0,1-1.66.72,2.08,2.08,0,0,1-1.41-.48,1.62,1.62,0,0,1-.55-1.24,1.66,1.66,0,0,1,.69-1.41,3.3,3.3,0,0,1,1.95-.5h1v-.45a1.09,1.09,0,0,0-.31-.83,1.23,1.23,0,0,0-.92-.31,1.45,1.45,0,0,0-.89.27.79.79,0,0,0-.36.65h-1a1.46,1.46,0,0,1,.31-.85,2.19,2.19,0,0,1,.84-.64,2.93,2.93,0,0,1,1.16-.23,2.29,2.29,0,0,1,1.58.5,1.81,1.81,0,0,1,.59,1.38v2.68a3.22,3.22,0,0,0,.2,1.27v.09Zm-1.65-.76a1.78,1.78,0,0,0,.89-.24,1.4,1.4,0,0,0,.6-.63v-1.19h-.78c-1.21,0-1.82.35-1.82,1.06a.91.91,0,0,0,.31.74A1.22,1.22,0,0,0,211.5,754.12Z" transform="translate(-152.79 -556)"/><path d="M217.38,753.53l1.44-4.47h1l-2.09,5.82H217l-2.1-5.82h1Z" transform="translate(-152.79 -556)"/><path d="M220.45,751.92a3.48,3.48,0,0,1,.33-1.54,2.59,2.59,0,0,1,.94-1,2.51,2.51,0,0,1,1.37-.37,2.45,2.45,0,0,1,1.92.82,3.21,3.21,0,0,1,.73,2.18V752a3.44,3.44,0,0,1-.33,1.53,2.38,2.38,0,0,1-.93,1.05,2.55,2.55,0,0,1-1.38.37,2.45,2.45,0,0,1-1.92-.82,3.13,3.13,0,0,1-.73-2.17Zm1,.11a2.49,2.49,0,0,0,.45,1.56,1.41,1.41,0,0,0,1.2.58,1.44,1.44,0,0,0,1.2-.59,2.71,2.71,0,0,0,.45-1.66,2.48,2.48,0,0,0-.46-1.55,1.5,1.5,0,0,0-2.39,0A2.7,2.7,0,0,0,221.45,752Z" transform="translate(-152.79 -556)"/><path d="M229.79,750a2.45,2.45,0,0,0-.48,0,1.31,1.31,0,0,0-1.33.83v4.13h-1v-5.82h1l0,.68a1.54,1.54,0,0,1,1.38-.78,1,1,0,0,1,.44.07Z" transform="translate(-152.79 -556)"/><path d="M234.08,754.88a2.2,2.2,0,0,1-.14-.62,2.21,2.21,0,0,1-1.65.72,2,2,0,0,1-1.41-.48,1.58,1.58,0,0,1-.55-1.24,1.66,1.66,0,0,1,.69-1.41,3.27,3.27,0,0,1,1.94-.5h1v-.45a1.09,1.09,0,0,0-.31-.83,1.22,1.22,0,0,0-.92-.31,1.45,1.45,0,0,0-.89.27.79.79,0,0,0-.36.65h-1a1.46,1.46,0,0,1,.31-.85,2.19,2.19,0,0,1,.84-.64,2.93,2.93,0,0,1,1.16-.23,2.29,2.29,0,0,1,1.58.5,1.81,1.81,0,0,1,.59,1.38v2.68a3.41,3.41,0,0,0,.2,1.27v.09Zm-1.65-.76a1.78,1.78,0,0,0,.89-.24,1.4,1.4,0,0,0,.6-.63v-1.19h-.77c-1.22,0-1.83.35-1.83,1.06a.91.91,0,0,0,.31.74A1.24,1.24,0,0,0,232.43,754.12Z" transform="translate(-152.79 -556)"/><path d="M241.4,752a3.42,3.42,0,0,1-.62,2.14,1.94,1.94,0,0,1-1.64.81,2,2,0,0,1-1.7-.78l-.05.68h-.91v-8.25h1v3.07a2,2,0,0,1,1.66-.74,2,2,0,0,1,1.66.8,3.56,3.56,0,0,1,.61,2.19Zm-1-.11a2.72,2.72,0,0,0-.39-1.57,1.3,1.3,0,0,0-1.13-.55,1.46,1.46,0,0,0-1.41.91v2.52a1.49,1.49,0,0,0,1.42.91,1.27,1.27,0,0,0,1.11-.55A2.84,2.84,0,0,0,240.4,751.92Z" transform="translate(-152.79 -556)"/><path d="M243.73,754.88h-1v-8.25h1Z" transform="translate(-152.79 -556)"/><path d="M247.73,755a2.55,2.55,0,0,1-1.92-.77,2.87,2.87,0,0,1-.75-2.08V752a3.53,3.53,0,0,1,.33-1.55,2.59,2.59,0,0,1,.93-1.06,2.26,2.26,0,0,1,1.28-.38,2.21,2.21,0,0,1,1.77.74,3.23,3.23,0,0,1,.62,2.14v.41h-3.93a2,2,0,0,0,.5,1.39,1.56,1.56,0,0,0,1.22.53,1.75,1.75,0,0,0,.89-.21,2.32,2.32,0,0,0,.64-.57l.61.47A2.44,2.44,0,0,1,247.73,755Zm-.13-5.21a1.35,1.35,0,0,0-1,.44,2.1,2.1,0,0,0-.5,1.23H249v-.08a1.87,1.87,0,0,0-.41-1.17A1.23,1.23,0,0,0,247.6,749.77Z" transform="translate(-152.79 -556)"/><path d="M326.59,754.88h-1l-3.94-6v6h-1v-7.82h1l3.95,6.05v-6.05h1Z" transform="translate(-152.79 -556)"/><path d="M330.68,755a2.55,2.55,0,0,1-1.92-.77,2.86,2.86,0,0,1-.74-2.08V752a3.53,3.53,0,0,1,.33-1.55,2.64,2.64,0,0,1,.92-1.06,2.31,2.31,0,0,1,1.29-.38,2.2,2.2,0,0,1,1.76.74,3.23,3.23,0,0,1,.63,2.14v.41H329a2,2,0,0,0,.5,1.39,1.56,1.56,0,0,0,1.22.53,1.79,1.79,0,0,0,.9-.21,2.65,2.65,0,0,0,.64-.57l.6.47A2.43,2.43,0,0,1,330.68,755Zm-.12-5.21a1.33,1.33,0,0,0-1,.44,2.17,2.17,0,0,0-.51,1.23H332v-.08a1.93,1.93,0,0,0-.4-1.17A1.26,1.26,0,0,0,330.56,749.77Z" transform="translate(-152.79 -556)"/><path d="M337.68,754.3a2.08,2.08,0,0,1-1.7.68,1.79,1.79,0,0,1-1.41-.54,2.28,2.28,0,0,1-.49-1.59v-3.79h1v3.76c0,.88.36,1.32,1.07,1.32a1.49,1.49,0,0,0,1.52-.85v-4.23h1v5.82h-.94Z" transform="translate(-152.79 -556)"/><path d="M341.51,747.66v1.4h1.08v.77h-1.08v3.61a.88.88,0,0,0,.14.53.66.66,0,0,0,.5.17,2.59,2.59,0,0,0,.47-.06v.8a2.94,2.94,0,0,1-.76.1,1.24,1.24,0,0,1-1-.4,1.76,1.76,0,0,1-.33-1.14v-3.61h-1.06v-.77h1.06v-1.4Z" transform="translate(-152.79 -556)"/><path d="M346.56,750a2.49,2.49,0,0,0-.49,0,1.3,1.3,0,0,0-1.32.83v4.13h-1v-5.82h1l0,.68a1.53,1.53,0,0,1,1.38-.78,1,1,0,0,1,.44.07Z" transform="translate(-152.79 -556)"/><path d="M350.85,754.88a2.2,2.2,0,0,1-.14-.62,2.21,2.21,0,0,1-1.65.72,2,2,0,0,1-1.41-.48,1.59,1.59,0,0,1-.56-1.24,1.66,1.66,0,0,1,.69-1.41,3.33,3.33,0,0,1,2-.5h1v-.45a1.09,1.09,0,0,0-.31-.83,1.23,1.23,0,0,0-.92-.31,1.45,1.45,0,0,0-.89.27.79.79,0,0,0-.36.65h-1a1.46,1.46,0,0,1,.31-.85,2.19,2.19,0,0,1,.84-.64,2.93,2.93,0,0,1,1.16-.23,2.29,2.29,0,0,1,1.58.5,1.81,1.81,0,0,1,.59,1.38v2.68a3.22,3.22,0,0,0,.2,1.27v.09Zm-1.65-.76a1.78,1.78,0,0,0,.89-.24,1.4,1.4,0,0,0,.6-.63v-1.19h-.78c-1.21,0-1.82.35-1.82,1.06a.91.91,0,0,0,.31.74A1.22,1.22,0,0,0,349.2,754.12Z" transform="translate(-152.79 -556)"/><path d="M354.32,754.88h-1v-8.25h1Z" transform="translate(-152.79 -556)"/><path d="M483.49,747.06v5.31a2.52,2.52,0,0,1-.7,1.81,2.76,2.76,0,0,1-1.87.79h-.28a2.93,2.93,0,0,1-2-.69,2.49,2.49,0,0,1-.78-1.91v-5.32h1v5.29a1.78,1.78,0,0,0,.46,1.32,2.13,2.13,0,0,0,2.67,0,1.78,1.78,0,0,0,.47-1.31v-5.3Z" transform="translate(-152.79 -556)"/><path d="M485.9,749.06l0,.73a2.12,2.12,0,0,1,1.74-.83c1.23,0,1.85.69,1.86,2.08v3.84h-1V751a1.36,1.36,0,0,0-.29-.93,1.16,1.16,0,0,0-.88-.3,1.45,1.45,0,0,0-.85.26,1.81,1.81,0,0,0-.57.68v4.14h-1v-5.82Z" transform="translate(-152.79 -556)"/><path d="M491.52,754.88v-5h-.92v-.77h.92v-.59A2,2,0,0,1,492,747a1.87,1.87,0,0,1,1.41-.51,2.65,2.65,0,0,1,.68.09l-.05.81a2.36,2.36,0,0,0-.54,0,1,1,0,0,0-.75.28,1.18,1.18,0,0,0-.26.81v.61h1.24v.77h-1.24v5Z" transform="translate(-152.79 -556)"/><path d="M498.43,754.88a2.62,2.62,0,0,1-.14-.62,2.21,2.21,0,0,1-1.65.72,2.08,2.08,0,0,1-1.41-.48,1.58,1.58,0,0,1-.55-1.24,1.66,1.66,0,0,1,.69-1.41,3.29,3.29,0,0,1,1.94-.5h1v-.45a1.13,1.13,0,0,0-.31-.83,1.25,1.25,0,0,0-.92-.31,1.43,1.43,0,0,0-.89.27.79.79,0,0,0-.36.65h-1a1.39,1.39,0,0,1,.31-.85,2.08,2.08,0,0,1,.83-.64,3,3,0,0,1,1.17-.23,2.26,2.26,0,0,1,1.57.5,1.78,1.78,0,0,1,.59,1.38v2.68a3.2,3.2,0,0,0,.21,1.27v.09Zm-1.64-.76a1.74,1.74,0,0,0,.88-.24,1.48,1.48,0,0,0,.61-.63v-1.19h-.78c-1.22,0-1.83.35-1.83,1.06a.94.94,0,0,0,.31.74A1.25,1.25,0,0,0,496.79,754.12Z" transform="translate(-152.79 -556)"/><path d="M502.67,753.53l1.44-4.47h1L503,754.88h-.76l-2.11-5.82h1Z" transform="translate(-152.79 -556)"/><path d="M505.73,751.92a3.35,3.35,0,0,1,.34-1.54,2.5,2.5,0,0,1,.93-1,2.54,2.54,0,0,1,1.37-.37,2.45,2.45,0,0,1,1.92.82A3.16,3.16,0,0,1,511,752V752a3.44,3.44,0,0,1-.32,1.53,2.5,2.5,0,0,1-.93,1.05,2.58,2.58,0,0,1-1.39.37,2.42,2.42,0,0,1-1.91-.82,3.14,3.14,0,0,1-.74-2.17Zm1,.11a2.49,2.49,0,0,0,.45,1.56,1.43,1.43,0,0,0,1.2.58,1.42,1.42,0,0,0,1.2-.59,2.71,2.71,0,0,0,.45-1.66,2.48,2.48,0,0,0-.45-1.55,1.46,1.46,0,0,0-1.21-.6,1.44,1.44,0,0,0-1.19.59A2.7,2.7,0,0,0,506.73,752Z" transform="translate(-152.79 -556)"/><path d="M515.08,750a2.49,2.49,0,0,0-.49,0,1.33,1.33,0,0,0-1.33.83v4.13h-1v-5.82h1v.68a1.56,1.56,0,0,1,1.39-.78,1,1,0,0,1,.44.07Z" transform="translate(-152.79 -556)"/><path d="M519.37,754.88a2.12,2.12,0,0,1-.15-.62,2.21,2.21,0,0,1-1.65.72,2.08,2.08,0,0,1-1.41-.48,1.58,1.58,0,0,1-.55-1.24,1.66,1.66,0,0,1,.69-1.41,3.29,3.29,0,0,1,1.94-.5h1v-.45a1.09,1.09,0,0,0-.31-.83,1.25,1.25,0,0,0-.92-.31,1.43,1.43,0,0,0-.89.27.79.79,0,0,0-.36.65h-1a1.39,1.39,0,0,1,.31-.85,2,2,0,0,1,.84-.64A2.93,2.93,0,0,1,518,749a2.26,2.26,0,0,1,1.57.5,1.78,1.78,0,0,1,.59,1.38v2.68a3.2,3.2,0,0,0,.21,1.27v.09Zm-1.65-.76a1.74,1.74,0,0,0,.88-.24,1.48,1.48,0,0,0,.61-.63v-1.19h-.78c-1.22,0-1.83.35-1.83,1.06a.92.92,0,0,0,.32.74A1.2,1.2,0,0,0,517.72,754.12Z" transform="translate(-152.79 -556)"/><path d="M526.68,752a3.42,3.42,0,0,1-.61,2.14,2,2,0,0,1-1.65.81,2,2,0,0,1-1.7-.78l-.05.68h-.91v-8.25h1v3.07a2,2,0,0,1,1.66-.74,2,2,0,0,1,1.67.8,3.56,3.56,0,0,1,.6,2.19Zm-1-.11a2.64,2.64,0,0,0-.4-1.57,1.28,1.28,0,0,0-1.12-.55,1.46,1.46,0,0,0-1.42.91v2.52a1.5,1.5,0,0,0,1.43.91,1.3,1.3,0,0,0,1.11-.55A2.92,2.92,0,0,0,525.69,751.92Z" transform="translate(-152.79 -556)"/><path d="M529,754.88h-1v-8.25h1Z" transform="translate(-152.79 -556)"/><path d="M533,755a2.55,2.55,0,0,1-1.92-.77,2.91,2.91,0,0,1-.74-2.08V752a3.53,3.53,0,0,1,.33-1.55,2.64,2.64,0,0,1,.92-1.06,2.31,2.31,0,0,1,1.29-.38,2.2,2.2,0,0,1,1.76.74,3.23,3.23,0,0,1,.63,2.14v.41h-3.94a2.08,2.08,0,0,0,.5,1.39,1.58,1.58,0,0,0,1.23.53A1.78,1.78,0,0,0,534,754a2.65,2.65,0,0,0,.64-.57l.6.47A2.42,2.42,0,0,1,533,755Zm-.12-5.21a1.33,1.33,0,0,0-1,.44,2.1,2.1,0,0,0-.5,1.23h2.91v-.08a1.93,1.93,0,0,0-.41-1.17A1.26,1.26,0,0,0,532.89,749.77Z" transform="translate(-152.79 -556)"/></g><g id="Layer_1" data-name="Layer 1"><g class="cls-8"><g class="cls-9"><path class="cls-10" d="M159.52,673.65v-3.36h.77v4.31h-7.11v-1Z" transform="translate(-152.79 -556)"/><path class="cls-10" d="M153.61,669.35a.55.55,0,0,1-.38-.13.61.61,0,0,1,0-.8.56.56,0,0,1,.38-.14.52.52,0,0,1,.36.14.61.61,0,0,1,0,.8A.52.52,0,0,1,153.61,669.35Zm6.68-1v.9H155v-.9Z" transform="translate(-152.79 -556)"/><path class="cls-10" d="M157.84,665.46l.59.56h1.86v.91h-7.5V666h4.54l-.58-.48L155,663.89v-1.1l2.2,2.06,3.08-2.29v1.06Z" transform="translate(-152.79 -556)"/><path class="cls-10" d="M160.39,659.67a2.31,2.31,0,0,1-.71,1.75,2.62,2.62,0,0,1-1.89.67h-.16a3.13,3.13,0,0,1-1.4-.3,2.28,2.28,0,0,1-1-.84,2.14,2.14,0,0,1-.35-1.17,2,2,0,0,1,.68-1.6,2.93,2.93,0,0,1,1.94-.57h.38v3.58a1.87,1.87,0,0,0,1.26-.46,1.43,1.43,0,0,0,.48-1.11,1.67,1.67,0,0,0-.19-.81,2.19,2.19,0,0,0-.52-.58l.43-.55A2.21,2.21,0,0,1,160.39,659.67Zm-4.74.11a1.19,1.19,0,0,0,.4.92,1.92,1.92,0,0,0,1.12.46v-2.65h-.07a1.75,1.75,0,0,0-1.07.37A1.14,1.14,0,0,0,155.65,659.78Z" transform="translate(-152.79 -556)"/><path class="cls-10" d="M160.29,655.58v.91h-7.5v-.91Z" transform="translate(-152.79 -556)"/><path class="cls-10" d="M153.61,654.13a.55.55,0,0,1-.38-.13.61.61,0,0,1,0-.8.56.56,0,0,1,.38-.14.52.52,0,0,1,.36.14.61.61,0,0,1,0,.8A.52.52,0,0,1,153.61,654.13Zm6.68-1v.9H155v-.9Z" transform="translate(-152.79 -556)"/><path class="cls-10" d="M155.65,650.81a1.92,1.92,0,0,1-.74-1.56c0-1.12.63-1.68,1.89-1.69h3.49v.9h-3.5a1.19,1.19,0,0,0-.84.26,1.06,1.06,0,0,0-.27.8,1.27,1.27,0,0,0,.23.77,1.66,1.66,0,0,0,.62.52h3.76v.9h-7.5v-.9Z" transform="translate(-152.79 -556)"/><path class="cls-10" d="M157.6,646.44a3.19,3.19,0,0,1-1.4-.3,2.26,2.26,0,0,1-1.29-2.1,2.22,2.22,0,0,1,.75-1.74,2.83,2.83,0,0,1,2-.67h.07a3.11,3.11,0,0,1,1.38.3,2.25,2.25,0,0,1,1,.84,2.43,2.43,0,0,1,.34,1.27,2.23,2.23,0,0,1-.75,1.74,2.89,2.89,0,0,1-2,.66Zm.11-.91a2.29,2.29,0,0,0,1.41-.4,1.33,1.33,0,0,0,.53-1.09,1.31,1.31,0,0,0-.54-1.1,2.47,2.47,0,0,0-1.51-.4,2.23,2.23,0,0,0-1.41.41,1.37,1.37,0,0,0,0,2.17A2.44,2.44,0,0,0,157.71,645.53Z" transform="translate(-152.79 -556)"/><path class="cls-10" d="M157.6,640.74a3.06,3.06,0,0,1-1.4-.31,2.18,2.18,0,0,1-.95-.85,2.24,2.24,0,0,1-.34-1.24,2.21,2.21,0,0,1,.75-1.74,2.83,2.83,0,0,1,2-.67h.07a3.11,3.11,0,0,1,1.38.3,2.18,2.18,0,0,1,1,.84,2.42,2.42,0,0,1,.34,1.26,2.21,2.21,0,0,1-.75,1.74,2.84,2.84,0,0,1-2,.67Zm.11-.91a2.23,2.23,0,0,0,1.41-.41,1.31,1.31,0,0,0,.53-1.09,1.29,1.29,0,0,0-.54-1.09,2.46,2.46,0,0,0-1.51-.41,2.23,2.23,0,0,0-1.41.42,1.37,1.37,0,0,0,0,2.17A2.51,2.51,0,0,0,157.71,639.83Z" transform="translate(-152.79 -556)"/><path class="cls-10" d="M157.6,635a3.1,3.1,0,0,1-1.95-.58,2,2,0,0,1-.11-3h-2.75v-.9h7.5v.83l-.57,0a2,2,0,0,1-.08,3,3.2,3.2,0,0,1-2,.58Zm.11-.91a2.31,2.31,0,0,0,1.4-.37,1.2,1.2,0,0,0,.51-1,1.33,1.33,0,0,0-.77-1.26h-2.43a1.33,1.33,0,0,0-.74,1.25,1.2,1.2,0,0,0,.51,1A2.56,2.56,0,0,0,157.71,634.11Z" transform="translate(-152.79 -556)"/></g></g><rect class="cls-5" x="410.21" y="24" width="55" height="145"/><g class="cls-11"><g class="cls-12"><rect class="cls-5" x="410.21" y="24" width="55" height="145"/><g class="cls-11"><rect class="cls-5" x="410.21" y="24" width="55" height="145"/><g class="cls-11"><rect class="cls-5" x="410.21" y="24" width="55" height="145"/></g></g></g></g><rect class="cls-2" x="243.21" y="24" width="167" height="145"/><g class="cls-13"><g class="cls-12"><rect class="cls-2" x="243.21" y="24" width="167" height="145"/><g class="cls-13"><rect class="cls-2" x="243.21" y="24" width="167" height="145"/><g class="cls-13"><rect class="cls-2" x="243.21" y="24" width="167" height="145"/></g></g></g></g><rect class="cls-2" x="133.21" y="24" width="110" height="145"/><g class="cls-14"><g class="cls-12"><rect class="cls-2" x="133.21" y="24" width="110" height="145"/><g class="cls-14"><rect class="cls-2" x="133.21" y="24" width="110" height="145"/><g class="cls-14"><rect class="cls-15" x="133.21" y="24" width="110" height="145"/></g></g></g></g><rect class="cls-3" x="77.21" y="24" width="56" height="145"/><g class="cls-16"><g class="cls-12"><rect class="cls-3" x="77.21" y="24" width="56" height="145"/><g class="cls-16"><rect class="cls-3" x="77.21" y="24" width="56" height="145"/><g class="cls-16"><rect class="cls-3" x="77.21" y="24" width="56" height="145"/></g></g></g></g><rect class="cls-4" x="22.21" y="24" width="55" height="145"/><g class="cls-17"><g class="cls-12"><rect class="cls-4" x="22.21" y="24" width="55" height="145"/><g class="cls-17"><rect class="cls-4" x="22.21" y="24" width="55" height="145"/><g class="cls-17"><rect class="cls-4" x="22.21" y="24" width="55" height="145"/></g></g></g></g><g class="cls-9"><g class="cls-12"><g class="cls-18"><g class="cls-19"><path class="cls-20" d="M583.27,657h-1.09v-7.22l-2.18.8v-1l3.1-1.16h.17Z" transform="translate(-152.79 -556)"/><path class="cls-20" d="M588,652.21h.82a1.79,1.79,0,0,0,1.2-.41,1.5,1.5,0,0,0-1-2.56,1.58,1.58,0,0,0-1.12.4,1.42,1.42,0,0,0-.42,1.07h-1.08a2.16,2.16,0,0,1,.74-1.69,2.72,2.72,0,0,1,1.88-.67,2.64,2.64,0,0,1,1.89.64,2.31,2.31,0,0,1,.69,1.78,1.83,1.83,0,0,1-.36,1.07,2.17,2.17,0,0,1-1,.78,2.08,2.08,0,0,1,1.08.74,2,2,0,0,1,.39,1.26,2.32,2.32,0,0,1-.75,1.82,2.81,2.81,0,0,1-2,.68,2.91,2.91,0,0,1-2-.65,2.18,2.18,0,0,1-.75-1.72h1.09a1.41,1.41,0,0,0,.44,1.08,1.66,1.66,0,0,0,1.18.4,1.62,1.62,0,0,0,1.2-.41,1.6,1.6,0,0,0,.41-1.18,1.45,1.45,0,0,0-.45-1.14,2.06,2.06,0,0,0-1.32-.41H588Z" transform="translate(-152.79 -556)"/><path class="cls-20" d="M593.09,650.11a1.74,1.74,0,0,1,.49-1.27,1.7,1.7,0,0,1,1.26-.49,1.64,1.64,0,0,1,1.26.5,1.77,1.77,0,0,1,.48,1.29v.42a1.68,1.68,0,0,1-1.73,1.75,1.7,1.7,0,0,1-1.26-.49,1.74,1.74,0,0,1-.5-1.3Zm.81.45a1.1,1.1,0,0,0,.26.75.93.93,0,0,0,1.36,0,1.14,1.14,0,0,0,.26-.79v-.42a1.13,1.13,0,0,0-.26-.76.83.83,0,0,0-.68-.3.86.86,0,0,0-.69.3,1.16,1.16,0,0,0-.25.78Zm1.2,5.8-.62-.39,4.17-6.67.61.39Zm2.15-1.45a1.7,1.7,0,0,1,.49-1.26,1.67,1.67,0,0,1,1.25-.5,1.7,1.7,0,0,1,1.26.49,1.77,1.77,0,0,1,.49,1.31v.42a1.7,1.7,0,0,1-.49,1.26,1.66,1.66,0,0,1-1.25.49,1.68,1.68,0,0,1-1.75-1.79Zm.8.45a1.11,1.11,0,0,0,.26.76.94.94,0,0,0,1.37,0,1.15,1.15,0,0,0,.25-.79v-.44a1.1,1.1,0,0,0-.26-.75.84.84,0,0,0-.68-.3.86.86,0,0,0-.67.29,1.13,1.13,0,0,0-.27.79Z" transform="translate(-152.79 -556)"/></g></g></g></g><g class="cls-9"><g class="cls-12"><g class="cls-21"><g class="cls-22"><path class="cls-20" d="M470.29,652.21h.81a1.84,1.84,0,0,0,1.21-.41,1.35,1.35,0,0,0,.44-1.06,1.33,1.33,0,0,0-1.5-1.5,1.58,1.58,0,0,0-1.12.4,1.42,1.42,0,0,0-.42,1.07h-1.08a2.16,2.16,0,0,1,.74-1.69,2.72,2.72,0,0,1,1.88-.67,2.62,2.62,0,0,1,1.89.64,2.31,2.31,0,0,1,.69,1.78,1.83,1.83,0,0,1-.36,1.07.8.8,0,1,0,.11,1.52,2.09,2.09,0,0,1,.38,1.26,2.32,2.32,0,0,1-.75,1.82,2.81,2.81,0,0,1-1.95.68,2.93,2.93,0,0,1-2-.65,2.18,2.18,0,0,1-.75-1.72h1.09a1.41,1.41,0,0,0,.44,1.08,1.67,1.67,0,0,0,1.18.4,1.62,1.62,0,0,0,1.2-.41,1.56,1.56,0,0,0,.42-1.18,1.46,1.46,0,0,0-.46-1.14,2.06,2.06,0,0,0-1.32-.41h-.81Z" transform="translate(-152.79 -556)"/><path class="cls-20" d="M480.62,650.7a1.93,1.93,0,0,1-.34,1.13,2.25,2.25,0,0,1-.91.78,2.4,2.4,0,0,1,1.06.84,2.11,2.11,0,0,1,.39,1.25,2.22,2.22,0,0,1-.75,1.76,3.26,3.26,0,0,1-3.93,0,2.23,2.23,0,0,1-.75-1.76,2.19,2.19,0,0,1,.38-1.25,2.32,2.32,0,0,1,1.05-.84,2.28,2.28,0,0,1-.9-.78,2,2,0,0,1-.33-1.13,2.21,2.21,0,0,1,.7-1.72,2.58,2.58,0,0,1,1.82-.63,2.62,2.62,0,0,1,1.82.63A2.24,2.24,0,0,1,480.62,650.7Zm-.88,4a1.58,1.58,0,0,0-.46-1.16,1.61,1.61,0,0,0-1.18-.45,1.51,1.51,0,0,0-1.62,1.61,1.52,1.52,0,0,0,.43,1.15,1.69,1.69,0,0,0,1.2.41,1.63,1.63,0,0,0,1.19-.42A1.51,1.51,0,0,0,479.74,654.67Zm-1.63-5.43a1.39,1.39,0,0,0-1,.4,1.45,1.45,0,0,0-.39,1.07,1.42,1.42,0,0,0,.39,1,1.37,1.37,0,0,0,1,.41,1.39,1.39,0,0,0,1-.41,1.42,1.42,0,0,0,.39-1,1.46,1.46,0,0,0-.41-1.06A1.39,1.39,0,0,0,478.11,649.24Z" transform="translate(-152.79 -556)"/><path class="cls-20" d="M482.09,650.11a1.74,1.74,0,0,1,.49-1.27,1.7,1.7,0,0,1,1.26-.49,1.64,1.64,0,0,1,1.26.5,1.77,1.77,0,0,1,.48,1.29v.42a1.68,1.68,0,0,1-1.73,1.75,1.7,1.7,0,0,1-1.26-.49,1.74,1.74,0,0,1-.5-1.3Zm.81.45a1.1,1.1,0,0,0,.26.75.93.93,0,0,0,1.36,0,1.14,1.14,0,0,0,.26-.79v-.42a1.13,1.13,0,0,0-.26-.76.83.83,0,0,0-.68-.3.86.86,0,0,0-.69.3,1.16,1.16,0,0,0-.25.78Zm1.2,5.8-.62-.39,4.17-6.67.61.39Zm2.15-1.45a1.7,1.7,0,0,1,.49-1.26,1.67,1.67,0,0,1,1.25-.5,1.7,1.7,0,0,1,1.26.49,1.77,1.77,0,0,1,.49,1.31v.42a1.7,1.7,0,0,1-.49,1.26,1.66,1.66,0,0,1-1.25.49,1.68,1.68,0,0,1-1.75-1.79Zm.8.45a1.11,1.11,0,0,0,.26.76.94.94,0,0,0,1.37,0,1.15,1.15,0,0,0,.25-.79v-.44a1.1,1.1,0,0,0-.26-.75.84.84,0,0,0-.68-.3.86.86,0,0,0-.67.29,1.13,1.13,0,0,0-.27.79Z" transform="translate(-152.79 -556)"/></g></g></g></g><g class="cls-9"><g class="cls-12"><g class="cls-23"><g class="cls-24"><path class="cls-20" d="M336.3,657h-5.59v-.78l3-3.28a7.36,7.36,0,0,0,.91-1.21,2.08,2.08,0,0,0,.25-1,1.54,1.54,0,0,0-.41-1.1,1.4,1.4,0,0,0-1.08-.43,1.68,1.68,0,0,0-1.25.46,1.77,1.77,0,0,0-.45,1.28h-1.09a2.53,2.53,0,0,1,.76-1.9,2.81,2.81,0,0,1,2-.73,2.67,2.67,0,0,1,1.88.63,2.1,2.1,0,0,1,.7,1.66,4.89,4.89,0,0,1-1.61,3L332,656.12h4.28Z" transform="translate(-152.79 -556)"/><path class="cls-20" d="M338,652.72l.43-4.25h4.37v1H339.3L339,651.8a2.71,2.71,0,0,1,1.42-.37,2.35,2.35,0,0,1,1.86.77,3,3,0,0,1,.68,2.08,3,3,0,0,1-.71,2.08,2.61,2.61,0,0,1-2,.76,2.67,2.67,0,0,1-1.84-.63,2.52,2.52,0,0,1-.82-1.73h1a1.71,1.71,0,0,0,.52,1.1,1.6,1.6,0,0,0,1.11.37,1.49,1.49,0,0,0,1.19-.51,2.22,2.22,0,0,0,.43-1.43,2,2,0,0,0-.47-1.37,1.57,1.57,0,0,0-1.24-.52,1.76,1.76,0,0,0-1.11.31l-.29.24Z" transform="translate(-152.79 -556)"/><path class="cls-20" d="M344.09,650.11a1.74,1.74,0,0,1,.49-1.27,1.7,1.7,0,0,1,1.26-.49,1.64,1.64,0,0,1,1.26.5,1.77,1.77,0,0,1,.48,1.29v.42a1.68,1.68,0,0,1-1.73,1.75,1.7,1.7,0,0,1-1.26-.49,1.74,1.74,0,0,1-.5-1.3Zm.81.45a1.1,1.1,0,0,0,.26.75.93.93,0,0,0,1.36,0,1.14,1.14,0,0,0,.26-.79v-.42a1.13,1.13,0,0,0-.26-.76.83.83,0,0,0-.68-.3.86.86,0,0,0-.69.3,1.16,1.16,0,0,0-.25.78Zm1.2,5.8-.62-.39,4.17-6.67.61.39Zm2.15-1.45a1.7,1.7,0,0,1,.49-1.26,1.67,1.67,0,0,1,1.25-.5,1.7,1.7,0,0,1,1.26.49,1.77,1.77,0,0,1,.49,1.31v.42a1.7,1.7,0,0,1-.49,1.26,1.66,1.66,0,0,1-1.25.49,1.68,1.68,0,0,1-1.75-1.79Zm.8.45a1.11,1.11,0,0,0,.26.76.94.94,0,0,0,1.37,0,1.15,1.15,0,0,0,.25-.79v-.44a1.1,1.1,0,0,0-.26-.75.84.84,0,0,0-.68-.3.86.86,0,0,0-.67.29,1.13,1.13,0,0,0-.27.79Z" transform="translate(-152.79 -556)"/></g></g></g></g><g class="cls-9"><g class="cls-12"><g class="cls-25"><g class="cls-26"><path class="cls-20" d="M251.27,657h-1.09v-7.22l-2.18.8v-1l3.1-1.16h.17Z" transform="translate(-152.79 -556)"/><path class="cls-20" d="M256,652.21h.82a1.79,1.79,0,0,0,1.2-.41,1.5,1.5,0,0,0-1.05-2.56,1.58,1.58,0,0,0-1.12.4,1.42,1.42,0,0,0-.42,1.07h-1.08a2.16,2.16,0,0,1,.74-1.69,2.72,2.72,0,0,1,1.88-.67,2.64,2.64,0,0,1,1.89.64,2.31,2.31,0,0,1,.69,1.78,1.83,1.83,0,0,1-.36,1.07,2.17,2.17,0,0,1-1,.78,2.08,2.08,0,0,1,1.08.74,2,2,0,0,1,.39,1.26,2.32,2.32,0,0,1-.75,1.82,2.81,2.81,0,0,1-1.95.68,2.91,2.91,0,0,1-2-.65,2.18,2.18,0,0,1-.75-1.72h1.09a1.41,1.41,0,0,0,.44,1.08,1.66,1.66,0,0,0,1.18.4,1.62,1.62,0,0,0,1.2-.41,1.6,1.6,0,0,0,.41-1.18,1.45,1.45,0,0,0-.45-1.14,2.06,2.06,0,0,0-1.32-.41H256Z" transform="translate(-152.79 -556)"/><path class="cls-20" d="M261.09,650.11a1.74,1.74,0,0,1,.49-1.27,1.7,1.7,0,0,1,1.26-.49,1.64,1.64,0,0,1,1.26.5,1.77,1.77,0,0,1,.48,1.29v.42a1.68,1.68,0,0,1-1.73,1.75,1.7,1.7,0,0,1-1.26-.49,1.74,1.74,0,0,1-.5-1.3Zm.81.45a1.1,1.1,0,0,0,.26.75.93.93,0,0,0,1.36,0,1.14,1.14,0,0,0,.26-.79v-.42a1.13,1.13,0,0,0-.26-.76.83.83,0,0,0-.68-.3.86.86,0,0,0-.69.3,1.16,1.16,0,0,0-.25.78Zm1.2,5.8-.62-.39,4.17-6.67.61.39Zm2.15-1.45a1.7,1.7,0,0,1,.49-1.26,1.67,1.67,0,0,1,1.25-.5,1.7,1.7,0,0,1,1.26.49,1.77,1.77,0,0,1,.49,1.31v.42a1.7,1.7,0,0,1-.49,1.26,1.66,1.66,0,0,1-1.25.49,1.68,1.68,0,0,1-1.75-1.79Zm.8.45a1.11,1.11,0,0,0,.26.76.94.94,0,0,0,1.37,0,1.15,1.15,0,0,0,.25-.79v-.44a1.1,1.1,0,0,0-.26-.75.84.84,0,0,0-.68-.3.86.86,0,0,0-.67.29,1.13,1.13,0,0,0-.27.79Z" transform="translate(-152.79 -556)"/></g></g></g></g><g class="cls-27"><rect class="cls-4" x="30.21" y="221" width="11" height="11"/><path class="cls-10" d="M204.84,782.71h-3.08v2.52h3.58V786h-4.51v-7.11h4.46v.77h-3.53V782h3.08Z" transform="translate(-152.79 -556)"/><path class="cls-10" d="M208.14,782.65l1.17-1.93h1.06l-1.73,2.61,1.78,2.67h-1l-1.23-2-1.22,2h-1.05l1.79-2.67-1.73-2.61h1Z" transform="translate(-152.79 -556)"/><path class="cls-10" d="M212.55,779.44v1.28h1v.7h-1v3.28a.69.69,0,0,0,.13.47.55.55,0,0,0,.45.16,2.16,2.16,0,0,0,.43-.06V786a2.45,2.45,0,0,1-.69.1,1.12,1.12,0,0,1-.92-.37,1.59,1.59,0,0,1-.3-1v-3.27h-1v-.7h1v-1.28Z" transform="translate(-152.79 -556)"/><path class="cls-10" d="M217.14,781.53a2,2,0,0,0-.44,0,1.2,1.2,0,0,0-1.21.76V786h-.9v-5.28h.88v.61a1.42,1.42,0,0,1,1.26-.71.84.84,0,0,1,.4.07Z" transform="translate(-152.79 -556)"/><path class="cls-10" d="M220.17,786.1a2.31,2.31,0,0,1-1.75-.71,2.62,2.62,0,0,1-.68-1.89v-.16a3.13,3.13,0,0,1,.3-1.4,2.28,2.28,0,0,1,.84-1,2.14,2.14,0,0,1,1.17-.35,2,2,0,0,1,1.61.68,2.93,2.93,0,0,1,.57,1.94v.38h-3.58a1.86,1.86,0,0,0,.45,1.26,1.46,1.46,0,0,0,1.11.48,1.74,1.74,0,0,0,.82-.19,2.19,2.19,0,0,0,.58-.52l.55.43A2.22,2.22,0,0,1,220.17,786.1Zm-.12-4.74a1.17,1.17,0,0,0-.91.4,1.92,1.92,0,0,0-.46,1.12h2.64v-.07a1.69,1.69,0,0,0-.37-1.07A1.14,1.14,0,0,0,220.05,781.36Z" transform="translate(-152.79 -556)"/><path class="cls-10" d="M224.12,780.72l0,.58a2,2,0,0,1,1.56-.68,1.51,1.51,0,0,1,1.51.85,2.06,2.06,0,0,1,.69-.62,2.08,2.08,0,0,1,1-.23c1.15,0,1.74.61,1.76,1.84V786h-.9v-3.49a1.21,1.21,0,0,0-.26-.84,1.12,1.12,0,0,0-.87-.28,1.19,1.19,0,0,0-.83.3,1.25,1.25,0,0,0-.39.8V786h-.91v-3.46a1,1,0,0,0-1.12-1.15,1.21,1.21,0,0,0-1.22.75V786h-.9v-5.28Z" transform="translate(-152.79 -556)"/><path class="cls-10" d="M234.23,786.1a2.31,2.31,0,0,1-1.75-.71,2.62,2.62,0,0,1-.67-1.89v-.16a3.13,3.13,0,0,1,.3-1.4,2.28,2.28,0,0,1,.84-1,2.14,2.14,0,0,1,1.17-.35,2,2,0,0,1,1.6.68,2.93,2.93,0,0,1,.57,1.94v.38h-3.58a1.87,1.87,0,0,0,.46,1.26,1.43,1.43,0,0,0,1.11.48,1.67,1.67,0,0,0,.81-.19,2.19,2.19,0,0,0,.58-.52l.55.43A2.22,2.22,0,0,1,234.23,786.1Zm-.11-4.74a1.19,1.19,0,0,0-.92.4,1.92,1.92,0,0,0-.46,1.12h2.65v-.07a1.7,1.7,0,0,0-.38-1.07A1.13,1.13,0,0,0,234.12,781.36Z" transform="translate(-152.79 -556)"/><path class="cls-10" d="M238.32,786h-.91v-7.5h.91Z" transform="translate(-152.79 -556)"/><path class="cls-10" d="M241.49,784.68l1.23-4h1l-2.13,6.1c-.33.87-.85,1.31-1.56,1.31h-.18l-.33-.06v-.74l.24,0a1.24,1.24,0,0,0,.72-.18,1.37,1.37,0,0,0,.42-.68l.2-.54-1.89-5.22h1Z" transform="translate(-152.79 -556)"/><path class="cls-10" d="M248,786h-.9v-7.5h.9Z" transform="translate(-152.79 -556)"/><path class="cls-10" d="M249.4,779.32a.55.55,0,0,1,.13-.38.52.52,0,0,1,.4-.15.51.51,0,0,1,.4.15.56.56,0,0,1,.14.38.52.52,0,0,1-.14.36.51.51,0,0,1-.4.15.48.48,0,0,1-.53-.51Zm1,6.68h-.91v-5.28h.91Z" transform="translate(-152.79 -556)"/><path class="cls-10" d="M253.3,783.55l-.57.59V786h-.9v-7.5h.9V783l.48-.58,1.65-1.74H256l-2.06,2.2,2.3,3.08h-1.06Z" transform="translate(-152.79 -556)"/><path class="cls-10" d="M259.08,786.1a2.33,2.33,0,0,1-1.75-.71,2.62,2.62,0,0,1-.67-1.89v-.16a3.13,3.13,0,0,1,.3-1.4,2.28,2.28,0,0,1,.84-1,2.14,2.14,0,0,1,1.17-.35,2,2,0,0,1,1.6.68,2.93,2.93,0,0,1,.57,1.94v.38h-3.58a1.92,1.92,0,0,0,.46,1.26,1.43,1.43,0,0,0,1.11.48,1.67,1.67,0,0,0,.81-.19,2,2,0,0,0,.58-.52l.55.43A2.21,2.21,0,0,1,259.08,786.1Zm-.11-4.74a1.19,1.19,0,0,0-.92.4,1.92,1.92,0,0,0-.46,1.12h2.65v-.07a1.75,1.75,0,0,0-.37-1.07A1.14,1.14,0,0,0,259,781.36Z" transform="translate(-152.79 -556)"/><path class="cls-10" d="M263.17,786h-.9v-7.5h.9Z" transform="translate(-152.79 -556)"/><path class="cls-10" d="M266.34,784.68l1.23-4h1l-2.12,6.1c-.33.87-.86,1.31-1.57,1.31h-.17l-.34-.06v-.74l.24,0a1.24,1.24,0,0,0,.72-.18,1.37,1.37,0,0,0,.42-.68l.2-.54L264,780.72h1Z" transform="translate(-152.79 -556)"/><rect class="cls-3" x="124.21" y="221" width="11" height="11"/><path class="cls-10" d="M297.18,784.75l2-5.86h1L297.6,786h-.83l-2.63-7.11h1Z" transform="translate(-152.79 -556)"/><path class="cls-10" d="M303.24,786.1a2.31,2.31,0,0,1-1.75-.71,2.62,2.62,0,0,1-.67-1.89v-.16a3.13,3.13,0,0,1,.3-1.4,2.28,2.28,0,0,1,.84-1,2.14,2.14,0,0,1,1.17-.35,2,2,0,0,1,1.6.68,2.93,2.93,0,0,1,.57,1.94v.38h-3.58a1.82,1.82,0,0,0,.46,1.26,1.43,1.43,0,0,0,1.11.48,1.67,1.67,0,0,0,.81-.19,2.19,2.19,0,0,0,.58-.52l.55.43A2.22,2.22,0,0,1,303.24,786.1Zm-.11-4.74a1.19,1.19,0,0,0-.92.4,1.92,1.92,0,0,0-.46,1.12h2.65v-.07a1.7,1.7,0,0,0-.38-1.07A1.13,1.13,0,0,0,303.13,781.36Z" transform="translate(-152.79 -556)"/><path class="cls-10" d="M308.9,781.53a2.15,2.15,0,0,0-.45,0,1.19,1.19,0,0,0-1.2.76V786h-.91v-5.28h.88l0,.61a1.4,1.4,0,0,1,1.26-.71.87.87,0,0,1,.4.07Z" transform="translate(-152.79 -556)"/><path class="cls-10" d="M311.46,784.68l1.23-4h1l-2.12,6.1c-.33.87-.85,1.31-1.57,1.31h-.17l-.34-.06v-.74l.25,0a1.22,1.22,0,0,0,.71-.18,1.38,1.38,0,0,0,.43-.68l.2-.54-1.89-5.22h1Z" transform="translate(-152.79 -556)"/><path class="cls-10" d="M317.92,786H317v-7.5h.91Z" transform="translate(-152.79 -556)"/><path class="cls-10" d="M319.37,779.32a.55.55,0,0,1,.13-.38.51.51,0,0,1,.4-.15.52.52,0,0,1,.4.15.56.56,0,0,1,.14.38.5.5,0,0,1-.54.51.51.51,0,0,1-.4-.15A.52.52,0,0,1,319.37,779.32Zm1,6.68h-.9v-5.28h.9Z" transform="translate(-152.79 -556)"/><path class="cls-10" d="M323.26,783.55l-.56.59V786h-.91v-7.5h.91V783l.48-.58,1.65-1.74h1.09l-2.05,2.2,2.29,3.08H325.1Z" transform="translate(-152.79 -556)"/><path class="cls-10" d="M329.05,786.1a2.31,2.31,0,0,1-1.75-.71,2.62,2.62,0,0,1-.67-1.89v-.16a3.13,3.13,0,0,1,.3-1.4,2.28,2.28,0,0,1,.84-1,2.14,2.14,0,0,1,1.17-.35,2,2,0,0,1,1.6.68,2.93,2.93,0,0,1,.57,1.94v.38h-3.58a1.87,1.87,0,0,0,.46,1.26,1.43,1.43,0,0,0,1.11.48,1.67,1.67,0,0,0,.81-.19,2.19,2.19,0,0,0,.58-.52l.55.43A2.22,2.22,0,0,1,329.05,786.1Zm-.11-4.74a1.19,1.19,0,0,0-.92.4,1.92,1.92,0,0,0-.46,1.12h2.65v-.07a1.7,1.7,0,0,0-.38-1.07A1.13,1.13,0,0,0,328.94,781.36Z" transform="translate(-152.79 -556)"/><path class="cls-10" d="M333.14,786h-.91v-7.5h.91Z" transform="translate(-152.79 -556)"/><path class="cls-10" d="M336.31,784.68l1.23-4h1l-2.13,6.1c-.33.87-.85,1.31-1.56,1.31h-.18l-.33-.06v-.74l.24,0a1.24,1.24,0,0,0,.72-.18,1.37,1.37,0,0,0,.42-.68l.2-.54L334,780.72h1Z" transform="translate(-152.79 -556)"/><rect class="cls-15" x="194.21" y="221" width="11" height="11"/><path class="cls-10" d="M366.92,782.83a4.43,4.43,0,0,1-1.76-.85,1.64,1.64,0,0,1-.54-1.25,1.72,1.72,0,0,1,.67-1.39,2.68,2.68,0,0,1,1.74-.55,2.9,2.9,0,0,1,1.31.29,2.12,2.12,0,0,1,.89.78,2,2,0,0,1,.31,1.09h-.94a1.31,1.31,0,0,0-.41-1,1.65,1.65,0,0,0-1.16-.37,1.67,1.67,0,0,0-1.08.31,1,1,0,0,0-.39.84.94.94,0,0,0,.37.74,3.78,3.78,0,0,0,1.26.55,5.87,5.87,0,0,1,1.38.55,2,2,0,0,1,.74.7,1.72,1.72,0,0,1,.25.94,1.67,1.67,0,0,1-.68,1.39,2.92,2.92,0,0,1-1.8.52,3.49,3.49,0,0,1-1.37-.28,2.39,2.39,0,0,1-1-.77,2,2,0,0,1-.34-1.11h.94a1.23,1.23,0,0,0,.48,1,2,2,0,0,0,1.27.37,1.84,1.84,0,0,0,1.14-.3,1.08,1.08,0,0,0,0-1.64A4.74,4.74,0,0,0,366.92,782.83Z" transform="translate(-152.79 -556)"/><path class="cls-10" d="M370.38,783.31a3.19,3.19,0,0,1,.3-1.4,2.31,2.31,0,0,1,.85-.95,2.27,2.27,0,0,1,1.24-.34,2.23,2.23,0,0,1,1.75.75,2.88,2.88,0,0,1,.67,2v.07a3.11,3.11,0,0,1-.3,1.38,2.31,2.31,0,0,1-.84,1,2.43,2.43,0,0,1-1.27.34,2.23,2.23,0,0,1-1.74-.75,2.89,2.89,0,0,1-.66-2Zm.91.11a2.29,2.29,0,0,0,.4,1.41,1.39,1.39,0,0,0,2.19,0,2.47,2.47,0,0,0,.4-1.51,2.23,2.23,0,0,0-.41-1.41,1.37,1.37,0,0,0-2.17,0A2.44,2.44,0,0,0,371.29,783.42Z" transform="translate(-152.79 -556)"/><path class="cls-10" d="M377.17,780.72l0,.58a2,2,0,0,1,1.57-.68,1.51,1.51,0,0,1,1.51.85,2,2,0,0,1,.69-.62,2.07,2.07,0,0,1,1-.23c1.16,0,1.75.61,1.77,1.84V786h-.9v-3.49a1.21,1.21,0,0,0-.26-.84,1.12,1.12,0,0,0-.87-.28,1.18,1.18,0,0,0-.83.3,1.2,1.2,0,0,0-.39.8V786h-.91v-3.46a1,1,0,0,0-1.13-1.15,1.21,1.21,0,0,0-1.21.75V786h-.91v-5.28Z" transform="translate(-152.79 -556)"/><path class="cls-10" d="M387.28,786.1a2.31,2.31,0,0,1-1.75-.71,2.62,2.62,0,0,1-.68-1.89v-.16a3.13,3.13,0,0,1,.3-1.4,2.35,2.35,0,0,1,.84-1,2.14,2.14,0,0,1,1.17-.35,2,2,0,0,1,1.61.68,2.93,2.93,0,0,1,.57,1.94v.38h-3.58a1.86,1.86,0,0,0,.45,1.26,1.47,1.47,0,0,0,1.12.48,1.73,1.73,0,0,0,.81-.19,2.19,2.19,0,0,0,.58-.52l.55.43A2.22,2.22,0,0,1,387.28,786.1Zm-.12-4.74a1.17,1.17,0,0,0-.91.4,1.92,1.92,0,0,0-.46,1.12h2.64v-.07a1.69,1.69,0,0,0-.37-1.07A1.14,1.14,0,0,0,387.16,781.36Z" transform="translate(-152.79 -556)"/><path class="cls-10" d="M395.06,784.75l1-4h.9L395.44,786h-.73l-1.29-4-1.25,4h-.73l-1.53-5.28h.9l1,3.95,1.23-3.95h.72Z" transform="translate(-152.79 -556)"/><path class="cls-10" d="M398.8,781.36a1.92,1.92,0,0,1,1.56-.74c1.12,0,1.68.63,1.69,1.89V786h-.9v-3.5a1.24,1.24,0,0,0-.26-.84,1.06,1.06,0,0,0-.8-.27,1.27,1.27,0,0,0-.77.23,1.58,1.58,0,0,0-.52.62V786h-.9v-7.5h.9Z" transform="translate(-152.79 -556)"/><path class="cls-10" d="M406.67,786a1.57,1.57,0,0,1-.13-.56,2,2,0,0,1-1.5.66,1.9,1.9,0,0,1-1.29-.44,1.45,1.45,0,0,1-.5-1.12,1.51,1.51,0,0,1,.63-1.29,3,3,0,0,1,1.77-.45h.87v-.42a1,1,0,0,0-.28-.75,1.13,1.13,0,0,0-.83-.28,1.3,1.3,0,0,0-.81.24.71.71,0,0,0-.33.59h-.91a1.21,1.21,0,0,1,.28-.76,2,2,0,0,1,.76-.59,2.64,2.64,0,0,1,1.06-.21,2.07,2.07,0,0,1,1.43.46,1.64,1.64,0,0,1,.54,1.25v2.43a3,3,0,0,0,.18,1.16V786Zm-1.5-.69a1.53,1.53,0,0,0,.8-.22,1.26,1.26,0,0,0,.55-.57v-1.08h-.7c-1.11,0-1.66.32-1.66,1a.81.81,0,0,0,.28.66A1.09,1.09,0,0,0,405.17,785.31Z" transform="translate(-152.79 -556)"/><path class="cls-10" d="M410.07,779.44v1.28h1v.7h-1v3.28a.69.69,0,0,0,.13.47.55.55,0,0,0,.45.16,2.16,2.16,0,0,0,.43-.06V786a2.45,2.45,0,0,1-.69.1,1.12,1.12,0,0,1-.92-.37,1.59,1.59,0,0,1-.3-1v-3.27h-1v-.7h1v-1.28Z" transform="translate(-152.79 -556)"/><path class="cls-10" d="M415.57,786h-.91v-7.5h.91Z" transform="translate(-152.79 -556)"/><path class="cls-10" d="M417,779.32a.55.55,0,0,1,.13-.38.61.61,0,0,1,.8,0,.56.56,0,0,1,.14.38.52.52,0,0,1-.14.36.61.61,0,0,1-.8,0A.52.52,0,0,1,417,779.32Zm1,6.68h-.9v-5.28h.9Z" transform="translate(-152.79 -556)"/><path class="cls-10" d="M420.91,783.55l-.56.59V786h-.91v-7.5h.91V783l.48-.58,1.65-1.74h1.1l-2.06,2.2,2.29,3.08h-1.06Z" transform="translate(-152.79 -556)"/><path class="cls-10" d="M426.7,786.1a2.31,2.31,0,0,1-1.75-.71,2.62,2.62,0,0,1-.67-1.89v-.16a3.13,3.13,0,0,1,.3-1.4,2.28,2.28,0,0,1,.84-1,2.14,2.14,0,0,1,1.17-.35,2,2,0,0,1,1.6.68,2.93,2.93,0,0,1,.57,1.94v.38h-3.58a1.92,1.92,0,0,0,.46,1.26,1.43,1.43,0,0,0,1.11.48,1.67,1.67,0,0,0,.81-.19,2.19,2.19,0,0,0,.58-.52l.55.43A2.21,2.21,0,0,1,426.7,786.1Zm-.11-4.74a1.19,1.19,0,0,0-.92.4,1.92,1.92,0,0,0-.46,1.12h2.65v-.07a1.75,1.75,0,0,0-.37-1.07A1.16,1.16,0,0,0,426.59,781.36Z" transform="translate(-152.79 -556)"/><path class="cls-10" d="M430.79,786h-.91v-7.5h.91Z" transform="translate(-152.79 -556)"/><path class="cls-10" d="M434,784.68l1.23-4h1l-2.13,6.1a1.67,1.67,0,0,1-1.56,1.31h-.17l-.34-.06v-.74l.24,0a1.24,1.24,0,0,0,.72-.18,1.37,1.37,0,0,0,.42-.68l.2-.54-1.88-5.22h1Z" transform="translate(-152.79 -556)"/><rect class="cls-2" x="292.21" y="221" width="10" height="11"/><path class="cls-10" d="M467.29,786h-.94l-3.58-5.48V786h-.94v-7.11h.94l3.59,5.5v-5.5h.93Z" transform="translate(-152.79 -556)"/><path class="cls-10" d="M468.57,783.31a3.06,3.06,0,0,1,.31-1.4,2.37,2.37,0,0,1,3.84-.54,2.87,2.87,0,0,1,.66,2v.07a3.25,3.25,0,0,1-.29,1.38,2.27,2.27,0,0,1-.85,1,2.37,2.37,0,0,1-1.26.34,2.21,2.21,0,0,1-1.74-.75,2.84,2.84,0,0,1-.67-2Zm.91.11a2.29,2.29,0,0,0,.41,1.41,1.32,1.32,0,0,0,1.09.53,1.29,1.29,0,0,0,1.09-.54,2.46,2.46,0,0,0,.41-1.51,2.29,2.29,0,0,0-.41-1.41,1.38,1.38,0,0,0-2.18,0A2.51,2.51,0,0,0,469.48,783.42Z" transform="translate(-152.79 -556)"/><path class="cls-10" d="M475.74,779.44v1.28h1v.7h-1v3.28a.75.75,0,0,0,.13.47.55.55,0,0,0,.45.16,2.07,2.07,0,0,0,.43-.06V786a2.45,2.45,0,0,1-.69.1,1.09,1.09,0,0,1-.91-.37,1.54,1.54,0,0,1-.31-1v-3.27h-1v-.7h1v-1.28Z" transform="translate(-152.79 -556)"/><path class="cls-10" d="M483.33,784.6a.67.67,0,0,0-.27-.57,2.69,2.69,0,0,0-1-.35,4.51,4.51,0,0,1-1.09-.35,1.59,1.59,0,0,1-.6-.49,1.15,1.15,0,0,1-.19-.67,1.35,1.35,0,0,1,.55-1.1,2.12,2.12,0,0,1,1.4-.45,2.2,2.2,0,0,1,1.46.46,1.49,1.49,0,0,1,.56,1.19h-.91a.79.79,0,0,0-.32-.64,1.15,1.15,0,0,0-.79-.27,1.2,1.2,0,0,0-.77.22.66.66,0,0,0-.28.56.55.55,0,0,0,.26.49,3.19,3.19,0,0,0,.94.32,4.78,4.78,0,0,1,1.09.36,1.72,1.72,0,0,1,.63.5,1.3,1.3,0,0,1,.2.73,1.34,1.34,0,0,1-.57,1.13,2.35,2.35,0,0,1-1.47.43,2.63,2.63,0,0,1-1.12-.23,1.91,1.91,0,0,1-.77-.62,1.55,1.55,0,0,1-.27-.88h.9a.94.94,0,0,0,.36.72,1.67,1.67,0,0,0,1.72.06A.63.63,0,0,0,483.33,784.6Z" transform="translate(-152.79 -556)"/><path class="cls-10" d="M485.17,783.31a3.2,3.2,0,0,1,.31-1.4,2.37,2.37,0,0,1,3.84-.54,2.87,2.87,0,0,1,.66,2v.07a3.1,3.1,0,0,1-.29,1.38,2.27,2.27,0,0,1-.85,1,2.37,2.37,0,0,1-1.26.34,2.23,2.23,0,0,1-1.74-.75,2.89,2.89,0,0,1-.67-2Zm.91.11a2.29,2.29,0,0,0,.41,1.41,1.39,1.39,0,0,0,2.19,0,2.47,2.47,0,0,0,.4-1.51,2.29,2.29,0,0,0-.41-1.41,1.38,1.38,0,0,0-2.18,0A2.51,2.51,0,0,0,486.08,783.42Z" transform="translate(-152.79 -556)"/><path class="cls-10" d="M494.57,786h-.9v-7.5h.9Z" transform="translate(-152.79 -556)"/><path class="cls-10" d="M496,779.32a.56.56,0,0,1,.14-.38.51.51,0,0,1,.4-.15.52.52,0,0,1,.4.15.55.55,0,0,1,.13.38.48.48,0,0,1-.53.51.51.51,0,0,1-.4-.15A.52.52,0,0,1,496,779.32Zm1,6.68h-.9v-5.28h.9Z" transform="translate(-152.79 -556)"/><path class="cls-10" d="M499.92,783.55l-.57.59V786h-.9v-7.5h.9V783l.49-.58,1.64-1.74h1.1l-2.05,2.2,2.29,3.08h-1.06Z" transform="translate(-152.79 -556)"/><path class="cls-10" d="M505.71,786.1a2.31,2.31,0,0,1-1.75-.71,2.62,2.62,0,0,1-.67-1.89v-.16a3,3,0,0,1,.3-1.4,2.28,2.28,0,0,1,.84-1,2.1,2.1,0,0,1,1.16-.35,2,2,0,0,1,1.61.68,2.93,2.93,0,0,1,.57,1.94v.38h-3.58a1.86,1.86,0,0,0,.45,1.26,1.47,1.47,0,0,0,1.12.48,1.7,1.7,0,0,0,.81-.19,2.19,2.19,0,0,0,.58-.52l.55.43A2.22,2.22,0,0,1,505.71,786.1Zm-.12-4.74a1.17,1.17,0,0,0-.91.4,1.92,1.92,0,0,0-.46,1.12h2.64v-.07a1.69,1.69,0,0,0-.37-1.07A1.14,1.14,0,0,0,505.59,781.36Z" transform="translate(-152.79 -556)"/><path class="cls-10" d="M509.79,786h-.9v-7.5h.9Z" transform="translate(-152.79 -556)"/><path class="cls-10" d="M513,784.68l1.23-4h1l-2.13,6.1c-.33.87-.85,1.31-1.57,1.31h-.17l-.33-.06v-.74l.24,0a1.26,1.26,0,0,0,.72-.18,1.37,1.37,0,0,0,.42-.68l.2-.54-1.89-5.22h1Z" transform="translate(-152.79 -556)"/><rect class="cls-5" x="371.21" y="221" width="11" height="11"/><path class="cls-10" d="M547.29,786h-.94l-3.58-5.48V786h-.94v-7.11h.94l3.59,5.5v-5.5h.93Z" transform="translate(-152.79 -556)"/><path class="cls-10" d="M548.57,783.31a3.06,3.06,0,0,1,.31-1.4,2.37,2.37,0,0,1,3.84-.54,2.87,2.87,0,0,1,.66,2v.07a3.25,3.25,0,0,1-.29,1.38,2.27,2.27,0,0,1-.85,1,2.37,2.37,0,0,1-1.26.34,2.21,2.21,0,0,1-1.74-.75,2.84,2.84,0,0,1-.67-2Zm.91.11a2.29,2.29,0,0,0,.41,1.41,1.32,1.32,0,0,0,1.09.53,1.29,1.29,0,0,0,1.09-.54,2.46,2.46,0,0,0,.41-1.51,2.29,2.29,0,0,0-.41-1.41,1.38,1.38,0,0,0-2.18,0A2.51,2.51,0,0,0,549.48,783.42Z" transform="translate(-152.79 -556)"/><path class="cls-10" d="M555.74,779.44v1.28h1v.7h-1v3.28a.75.75,0,0,0,.13.47.55.55,0,0,0,.45.16,2.07,2.07,0,0,0,.43-.06V786a2.45,2.45,0,0,1-.69.1,1.09,1.09,0,0,1-.91-.37,1.54,1.54,0,0,1-.31-1v-3.27h-1v-.7h1v-1.28Z" transform="translate(-152.79 -556)"/><path class="cls-10" d="M563.52,786a2.19,2.19,0,0,1-.13-.56,2,2,0,0,1-1.5.66,1.88,1.88,0,0,1-1.28-.44,1.42,1.42,0,0,1-.5-1.12,1.53,1.53,0,0,1,.62-1.29,3,3,0,0,1,1.77-.45h.88v-.42a1,1,0,0,0-.29-.75,1.1,1.1,0,0,0-.83-.28,1.34,1.34,0,0,0-.81.24.71.71,0,0,0-.33.59h-.91a1.27,1.27,0,0,1,.28-.76,2,2,0,0,1,.77-.59,2.59,2.59,0,0,1,1-.21,2,2,0,0,1,1.43.46,1.61,1.61,0,0,1,.54,1.25v2.43a2.83,2.83,0,0,0,.19,1.16V786Zm-1.5-.69a1.59,1.59,0,0,0,.81-.22,1.37,1.37,0,0,0,.55-.57v-1.08h-.71c-1.11,0-1.66.32-1.66,1a.81.81,0,0,0,.28.66A1.09,1.09,0,0,0,562,785.31Z" transform="translate(-152.79 -556)"/><path class="cls-10" d="M566.92,779.44v1.28h1v.7h-1v3.28a.75.75,0,0,0,.13.47.55.55,0,0,0,.45.16,2.07,2.07,0,0,0,.43-.06V786a2.4,2.4,0,0,1-.69.1,1.1,1.1,0,0,1-.91-.37,1.54,1.54,0,0,1-.31-1v-3.27h-1v-.7h1v-1.28Z" transform="translate(-152.79 -556)"/><path class="cls-10" d="M574.7,786a2.19,2.19,0,0,1-.13-.56,2,2,0,0,1-1.5.66,1.88,1.88,0,0,1-1.28-.44,1.45,1.45,0,0,1-.5-1.12,1.51,1.51,0,0,1,.63-1.29,3,3,0,0,1,1.76-.45h.88v-.42a1,1,0,0,0-.28-.75,1.14,1.14,0,0,0-.84-.28,1.34,1.34,0,0,0-.81.24.71.71,0,0,0-.33.59h-.9a1.21,1.21,0,0,1,.28-.76,1.9,1.9,0,0,1,.76-.59,2.61,2.61,0,0,1,1.06-.21,2.08,2.08,0,0,1,1.43.46,1.63,1.63,0,0,1,.53,1.25v2.43a3,3,0,0,0,.19,1.16V786Zm-1.5-.69a1.57,1.57,0,0,0,.81-.22,1.31,1.31,0,0,0,.55-.57v-1.08h-.71c-1.11,0-1.66.32-1.66,1a.84.84,0,0,0,.28.66A1.11,1.11,0,0,0,573.2,785.31Z" transform="translate(-152.79 -556)"/><path class="cls-10" d="M577.86,786H577v-7.5h.9Z" transform="translate(-152.79 -556)"/><path class="cls-10" d="M580.29,786h-.91v-7.5h.91Z" transform="translate(-152.79 -556)"/><path class="cls-10" d="M585.19,786h-.9v-7.5h.9Z" transform="translate(-152.79 -556)"/><path class="cls-10" d="M586.64,779.32a.55.55,0,0,1,.13-.38.52.52,0,0,1,.4-.15.51.51,0,0,1,.4.15.56.56,0,0,1,.14.38.52.52,0,0,1-.14.36.51.51,0,0,1-.4.15.48.48,0,0,1-.53-.51Zm1,6.68h-.91v-5.28h.91Z" transform="translate(-152.79 -556)"/><path class="cls-10" d="M590.54,783.55l-.57.59V786h-.9v-7.5h.9V783l.48-.58,1.65-1.74h1.1l-2.06,2.2,2.3,3.08h-1.06Z" transform="translate(-152.79 -556)"/><path class="cls-10" d="M596.32,786.1a2.33,2.33,0,0,1-1.75-.71,2.62,2.62,0,0,1-.67-1.89v-.16a3.13,3.13,0,0,1,.3-1.4,2.28,2.28,0,0,1,.84-1,2.14,2.14,0,0,1,1.17-.35,2,2,0,0,1,1.6.68,2.93,2.93,0,0,1,.57,1.94v.38H594.8a1.92,1.92,0,0,0,.46,1.26,1.43,1.43,0,0,0,1.11.48,1.67,1.67,0,0,0,.81-.19,2,2,0,0,0,.58-.52l.55.43A2.21,2.21,0,0,1,596.32,786.1Zm-.11-4.74a1.21,1.21,0,0,0-.92.4,1.92,1.92,0,0,0-.46,1.12h2.65v-.07a1.75,1.75,0,0,0-.37-1.07A1.14,1.14,0,0,0,596.21,781.36Z" transform="translate(-152.79 -556)"/><path class="cls-10" d="M600.41,786h-.9v-7.5h.9Z" transform="translate(-152.79 -556)"/><path class="cls-10" d="M603.58,784.68l1.23-4h1l-2.12,6.1c-.33.87-.86,1.31-1.57,1.31h-.17l-.34-.06v-.74l.25,0a1.22,1.22,0,0,0,.71-.18,1.37,1.37,0,0,0,.42-.68l.2-.54-1.88-5.22h1Z" transform="translate(-152.79 -556)"/></g><g class="cls-28"><path class="cls-10" d="M183.63,565h-1.76v-8.53h1.76Z" transform="translate(-152.79 -556)"/><path class="cls-10" d="M186.71,558.66l0,.73a2.23,2.23,0,0,1,1.82-.85,1.86,1.86,0,0,1,1.5.59,2.79,2.79,0,0,1,.51,1.77V565h-1.7v-4a1.16,1.16,0,0,0-.23-.79,1.07,1.07,0,0,0-.78-.24,1.14,1.14,0,0,0-1.07.61V565h-1.7v-6.34Z" transform="translate(-152.79 -556)"/><path class="cls-10" d="M196.88,557.1v1.56H198v1.24h-1.09v3.17a.75.75,0,0,0,.14.5.69.69,0,0,0,.52.15,2.43,2.43,0,0,0,.49,0V565a3.2,3.2,0,0,1-1,.16,1.62,1.62,0,0,1-1.82-1.8V559.9h-.92v-1.24h.92V557.1Z" transform="translate(-152.79 -556)"/><path class="cls-10" d="M200.56,559.35a2.13,2.13,0,0,1,1.7-.81c1.37,0,2.07.8,2.09,2.4V565h-1.69v-4a1.15,1.15,0,0,0-.24-.81,1,1,0,0,0-.78-.26,1.17,1.17,0,0,0-1.08.57V565h-1.69v-9h1.69Z" transform="translate(-152.79 -556)"/><path class="cls-10" d="M208.54,565.12a3.14,3.14,0,0,1-2.27-.86,3.05,3.05,0,0,1-.87-2.28v-.16a3.77,3.77,0,0,1,.37-1.71,2.67,2.67,0,0,1,1-1.16,3,3,0,0,1,1.55-.41,2.67,2.67,0,0,1,2,.82,3.39,3.39,0,0,1,.74,2.33v.69h-4a1.54,1.54,0,0,0,.49,1,1.5,1.5,0,0,0,1,.37,1.82,1.82,0,0,0,1.53-.71l.83.93a2.7,2.7,0,0,1-1,.85A3.45,3.45,0,0,1,208.54,565.12Zm-.19-5.21a1.06,1.06,0,0,0-.82.34,1.84,1.84,0,0,0-.4,1h2.36v-.14a1.22,1.22,0,0,0-.31-.87A1.06,1.06,0,0,0,208.35,559.91Z" transform="translate(-152.79 -556)"/><path class="cls-10" d="M216.66,558.66l.05.73a2.24,2.24,0,0,1,1.83-.85,1.86,1.86,0,0,1,1.5.59,2.85,2.85,0,0,1,.5,1.77V565h-1.69v-4a1.11,1.11,0,0,0-.24-.79,1,1,0,0,0-.78-.24,1.16,1.16,0,0,0-1.07.61V565h-1.69v-6.34Z" transform="translate(-152.79 -556)"/><path class="cls-10" d="M224.74,565.12a3.11,3.11,0,0,1-2.27-.86,3.06,3.06,0,0,1-.88-2.28v-.16a3.91,3.91,0,0,1,.37-1.71,2.75,2.75,0,0,1,1-1.16,2.93,2.93,0,0,1,1.54-.41,2.66,2.66,0,0,1,2,.82,3.35,3.35,0,0,1,.75,2.33v.69h-4a1.6,1.6,0,0,0,.5,1,1.47,1.47,0,0,0,1,.37,1.82,1.82,0,0,0,1.53-.71l.83.93a2.55,2.55,0,0,1-1,.85A3.37,3.37,0,0,1,224.74,565.12Zm-.19-5.21a1.05,1.05,0,0,0-.82.34,1.77,1.77,0,0,0-.4,1h2.35v-.14a1.22,1.22,0,0,0-.3-.87A1.08,1.08,0,0,0,224.55,559.91Z" transform="translate(-152.79 -556)"/><path class="cls-10" d="M230.72,560.55l1.07-1.89h1.81l-1.81,3.11,1.89,3.23h-1.82l-1.13-2-1.13,2h-1.82l1.88-3.23-1.8-3.11h1.82Z" transform="translate(-152.79 -556)"/><path class="cls-10" d="M236.44,557.1v1.56h1.09v1.24h-1.09v3.17a.75.75,0,0,0,.14.5.67.67,0,0,0,.51.15,2.47,2.47,0,0,0,.5,0V565a3.22,3.22,0,0,1-1,.16,1.61,1.61,0,0,1-1.81-1.8V559.9h-.93v-1.24h.93V557.1Z" transform="translate(-152.79 -556)"/><path class="cls-10" d="M244.89,563.25a.54.54,0,0,0-.31-.49,3.27,3.27,0,0,0-1-.32c-1.51-.32-2.27-1-2.27-1.92a1.77,1.77,0,0,1,.7-1.41,2.83,2.83,0,0,1,1.84-.57,3.06,3.06,0,0,1,1.93.57,1.8,1.8,0,0,1,.72,1.48h-1.69a.81.81,0,0,0-.24-.6,1.24,1.24,0,0,0-1.39,0,.62.62,0,0,0-.24.5.53.53,0,0,0,.27.45,3.08,3.08,0,0,0,.9.3,7.76,7.76,0,0,1,1.07.28,1.76,1.76,0,0,1,1.34,1.71,1.65,1.65,0,0,1-.75,1.4,3.16,3.16,0,0,1-1.92.54,3.32,3.32,0,0,1-1.41-.29,2.3,2.3,0,0,1-1-.78,1.77,1.77,0,0,1-.36-1.07h1.61a.92.92,0,0,0,.33.7,1.35,1.35,0,0,0,.84.24,1.22,1.22,0,0,0,.73-.19A.56.56,0,0,0,244.89,563.25Z" transform="translate(-152.79 -556)"/><path class="cls-10" d="M247.62,557a.85.85,0,0,1,.25-.63,1,1,0,0,1,.69-.24,1,1,0,0,1,.7.24.85.85,0,0,1,.25.63.79.79,0,0,1-.26.63,1.06,1.06,0,0,1-1.37,0A.79.79,0,0,1,247.62,557Zm1.79,8h-1.7v-6.34h1.7Z" transform="translate(-152.79 -556)"/><path class="cls-10" d="M253.22,560.55l1.07-1.89h1.81l-1.81,3.11,1.89,3.23h-1.82l-1.13-2-1.13,2h-1.82l1.88-3.23-1.8-3.11h1.82Z" transform="translate(-152.79 -556)"/><path class="cls-10" d="M261.49,558.66l.05.71a2.24,2.24,0,0,1,1.83-.83,1.71,1.71,0,0,1,1.68,1,2.18,2.18,0,0,1,1.9-1,1.9,1.9,0,0,1,1.54.6A2.81,2.81,0,0,1,269,561v4h-1.7v-4a1.2,1.2,0,0,0-.21-.79.92.92,0,0,0-.74-.25,1.06,1.06,0,0,0-1.06.73V565h-1.7v-4a1.2,1.2,0,0,0-.21-.79.93.93,0,0,0-.74-.25,1.09,1.09,0,0,0-1,.6V565h-1.7v-6.34Z" transform="translate(-152.79 -556)"/><path class="cls-10" d="M270,561.77a3.77,3.77,0,0,1,.36-1.68,2.63,2.63,0,0,1,1.05-1.14,3,3,0,0,1,1.58-.41,2.87,2.87,0,0,1,2.1.79,3.12,3.12,0,0,1,.9,2.13v.43a3.34,3.34,0,0,1-.81,2.35,2.85,2.85,0,0,1-2.19.88,2.88,2.88,0,0,1-2.19-.88,3.39,3.39,0,0,1-.81-2.39Zm1.69.12a2.32,2.32,0,0,0,.34,1.38,1.22,1.22,0,0,0,1.93,0,2.61,2.61,0,0,0,.35-1.51,2.33,2.33,0,0,0-.35-1.37,1.2,1.2,0,0,0-1.93,0A2.6,2.6,0,0,0,271.72,561.89Z" transform="translate(-152.79 -556)"/><path class="cls-10" d="M278.63,558.66l.06.73a2.23,2.23,0,0,1,1.82-.85,1.86,1.86,0,0,1,1.5.59,2.73,2.73,0,0,1,.5,1.77V565h-1.69v-4a1.16,1.16,0,0,0-.23-.79,1.07,1.07,0,0,0-.78-.24,1.17,1.17,0,0,0-1.08.61V565H277v-6.34Z" transform="translate(-152.79 -556)"/><path class="cls-10" d="M285.82,557.1v1.56h1.09v1.24h-1.09v3.17a.75.75,0,0,0,.14.5.67.67,0,0,0,.51.15,2.47,2.47,0,0,0,.5,0V565a3.2,3.2,0,0,1-1,.16,1.62,1.62,0,0,1-1.82-1.8V559.9h-.92v-1.24h.92V557.1Z" transform="translate(-152.79 -556)"/><path class="cls-10" d="M289.5,559.35a2.13,2.13,0,0,1,1.7-.81c1.37,0,2.07.8,2.09,2.4V565H291.6v-4a1.15,1.15,0,0,0-.24-.81,1,1,0,0,0-.78-.26,1.17,1.17,0,0,0-1.08.57V565h-1.69v-9h1.69Z" transform="translate(-152.79 -556)"/><path class="cls-10" d="M298,563.25a.54.54,0,0,0-.31-.49,3.27,3.27,0,0,0-1-.32c-1.51-.32-2.27-1-2.27-1.92a1.77,1.77,0,0,1,.7-1.41,2.82,2.82,0,0,1,1.83-.57,3.07,3.07,0,0,1,1.94.57,1.8,1.8,0,0,1,.72,1.48h-1.69a.81.81,0,0,0-.24-.6,1.24,1.24,0,0,0-1.39,0,.62.62,0,0,0-.24.5.53.53,0,0,0,.27.45,3.08,3.08,0,0,0,.9.3,7.23,7.23,0,0,1,1.06.28,1.76,1.76,0,0,1,1.35,1.71,1.65,1.65,0,0,1-.75,1.4,3.16,3.16,0,0,1-1.92.54,3.32,3.32,0,0,1-1.41-.29,2.3,2.3,0,0,1-1-.78,1.77,1.77,0,0,1-.36-1.07h1.61a.92.92,0,0,0,.33.7,1.35,1.35,0,0,0,.84.24,1.25,1.25,0,0,0,.73-.19A.56.56,0,0,0,298,563.25Z" transform="translate(-152.79 -556)"/><path class="cls-10" d="M305.38,559.35a2.11,2.11,0,0,1,1.69-.81c1.38,0,2.07.8,2.09,2.4V565h-1.69v-4a1.15,1.15,0,0,0-.24-.81,1,1,0,0,0-.77-.26,1.15,1.15,0,0,0-1.08.57V565h-1.7v-9h1.7Z" transform="translate(-152.79 -556)"/><path class="cls-10" d="M310.18,561.77a3.77,3.77,0,0,1,.36-1.68,2.67,2.67,0,0,1,1-1.14,3.08,3.08,0,0,1,1.59-.41,2.84,2.84,0,0,1,2.09.79,3.09,3.09,0,0,1,.91,2.13v.43a3.34,3.34,0,0,1-.81,2.35,3.17,3.17,0,0,1-4.38,0,3.39,3.39,0,0,1-.81-2.39Zm1.69.12a2.32,2.32,0,0,0,.34,1.38,1.22,1.22,0,0,0,1.93,0,2.61,2.61,0,0,0,.35-1.51,2.33,2.33,0,0,0-.35-1.37,1.2,1.2,0,0,0-1.93,0A2.6,2.6,0,0,0,311.87,561.89Z" transform="translate(-152.79 -556)"/><path class="cls-10" d="M322.74,562.7l.83-4h1.64L323.59,565h-1.42l-1.2-4-1.2,4h-1.41l-1.62-6.34h1.63l.83,4,1.16-4h1.22Z" transform="translate(-152.79 -556)"/><path class="cls-10" d="M330.82,565h-1.7v-9h1.7Z" transform="translate(-152.79 -556)"/><path class="cls-10" d="M332.2,557a.86.86,0,0,1,.26-.63,1.11,1.11,0,0,1,1.38,0,.86.86,0,0,1,.26.63.83.83,0,0,1-.26.63.93.93,0,0,1-.69.25,1,1,0,0,1-.69-.25A.83.83,0,0,1,332.2,557Zm1.8,8h-1.7v-6.34H334Z" transform="translate(-152.79 -556)"/><path class="cls-10" d="M337.7,562.46l-.61.61V565h-1.7v-9h1.7v5l.33-.43,1.62-1.9h2l-2.29,2.64,2.49,3.7h-1.94Z" transform="translate(-152.79 -556)"/><path class="cls-10" d="M344.72,565.12a3.12,3.12,0,0,1-2.27-.86,3.05,3.05,0,0,1-.87-2.28v-.16a3.77,3.77,0,0,1,.37-1.71,2.67,2.67,0,0,1,1-1.16,3,3,0,0,1,1.55-.41,2.65,2.65,0,0,1,2,.82,3.35,3.35,0,0,1,.75,2.33v.69h-4a1.6,1.6,0,0,0,.5,1,1.47,1.47,0,0,0,1,.37,1.79,1.79,0,0,0,1.53-.71l.84.93a2.66,2.66,0,0,1-1,.85A3.37,3.37,0,0,1,344.72,565.12Zm-.19-5.21a1.05,1.05,0,0,0-.82.34,1.77,1.77,0,0,0-.4,1h2.36v-.14a1.22,1.22,0,0,0-.31-.87A1.06,1.06,0,0,0,344.53,559.91Z" transform="translate(-152.79 -556)"/><path class="cls-10" d="M350.08,565h-1.7v-9h1.7Z" transform="translate(-152.79 -556)"/><path class="cls-10" d="M353.84,562.6l1.17-3.94h1.82L354.28,566l-.14.34a1.94,1.94,0,0,1-1.88,1.24,2.9,2.9,0,0,1-.75-.11v-1.28h.26a1.5,1.5,0,0,0,.72-.14,1,1,0,0,0,.37-.49l.2-.52-2.22-6.36h1.82Z" transform="translate(-152.79 -556)"/><path class="cls-10" d="M364.16,565a1.67,1.67,0,0,1-.17-.57,2.05,2.05,0,0,1-1.6.69,2.27,2.27,0,0,1-1.55-.54,1.76,1.76,0,0,1-.61-1.36,1.8,1.8,0,0,1,.75-1.55,3.66,3.66,0,0,1,2.16-.54h.78v-.37a1.05,1.05,0,0,0-.23-.7.87.87,0,0,0-.71-.26,1,1,0,0,0-.67.2.71.71,0,0,0-.24.56h-1.7a1.78,1.78,0,0,1,.34-1,2.32,2.32,0,0,1,1-.73,3.5,3.5,0,0,1,1.4-.27,2.78,2.78,0,0,1,1.86.59,2.07,2.07,0,0,1,.69,1.66v2.75a3,3,0,0,0,.25,1.36v.1Zm-1.4-1.18a1.46,1.46,0,0,0,.69-.16,1.2,1.2,0,0,0,.47-.45v-1.09h-.63c-.85,0-1.3.29-1.36.88v.1a.67.67,0,0,0,.22.52A.9.9,0,0,0,362.76,563.82Z" transform="translate(-152.79 -556)"/><path class="cls-10" d="M370.48,560.25a4.82,4.82,0,0,0-.61,0,1.25,1.25,0,0,0-1.26.65V565h-1.69v-6.34h1.6l0,.76a1.57,1.57,0,0,1,1.42-.88,1.77,1.77,0,0,1,.52.08Z" transform="translate(-152.79 -556)"/><path class="cls-10" d="M374.21,565.12a3.12,3.12,0,0,1-2.27-.86,3.05,3.05,0,0,1-.87-2.28v-.16a3.77,3.77,0,0,1,.37-1.71,2.67,2.67,0,0,1,1-1.16,3,3,0,0,1,1.55-.41,2.64,2.64,0,0,1,2,.82,3.35,3.35,0,0,1,.75,2.33v.69h-4a1.6,1.6,0,0,0,.5,1,1.47,1.47,0,0,0,1,.37,1.79,1.79,0,0,0,1.53-.71l.84.93a2.66,2.66,0,0,1-1,.85A3.37,3.37,0,0,1,374.21,565.12Zm-.19-5.21a1.05,1.05,0,0,0-.82.34,1.77,1.77,0,0,0-.4,1h2.36v-.14a1.22,1.22,0,0,0-.31-.87A1.06,1.06,0,0,0,374,559.91Z" transform="translate(-152.79 -556)"/><path class="cls-10" d="M383.14,562.6l1.17-3.94h1.81L383.58,566l-.14.34a1.94,1.94,0,0,1-1.88,1.24,2.78,2.78,0,0,1-.75-.11v-1.28h.26a1.5,1.5,0,0,0,.72-.14,1,1,0,0,0,.37-.49l.2-.52-2.22-6.36H382Z" transform="translate(-152.79 -556)"/><path class="cls-10" d="M386.53,561.77a3.77,3.77,0,0,1,.36-1.68,2.63,2.63,0,0,1,1.05-1.14,3,3,0,0,1,1.58-.41,2.87,2.87,0,0,1,2.1.79,3.12,3.12,0,0,1,.9,2.13l0,.43a3.34,3.34,0,0,1-.82,2.35,3.15,3.15,0,0,1-4.37,0,3.35,3.35,0,0,1-.82-2.39Zm1.69.12a2.4,2.4,0,0,0,.34,1.38,1.23,1.23,0,0,0,1.94,0,2.61,2.61,0,0,0,.34-1.51,2.33,2.33,0,0,0-.34-1.37,1.21,1.21,0,0,0-1.94,0A2.68,2.68,0,0,0,388.22,561.89Z" transform="translate(-152.79 -556)"/><path class="cls-10" d="M397.38,564.36a2.16,2.16,0,0,1-1.74.76,2,2,0,0,1-1.56-.59,2.49,2.49,0,0,1-.54-1.72v-4.15h1.69v4.1q0,1,.9,1a1.23,1.23,0,0,0,1.19-.6v-4.49H399V565h-1.6Z" transform="translate(-152.79 -556)"/><path class="cls-10" d="M405.31,557.1v1.56h1.08v1.24h-1.08v3.17a.75.75,0,0,0,.13.5.7.7,0,0,0,.52.15,2.53,2.53,0,0,0,.5,0V565a3.31,3.31,0,0,1-1,.16,1.61,1.61,0,0,1-1.81-1.8V559.9h-.93v-1.24h.93V557.1Z" transform="translate(-152.79 -556)"/><path class="cls-10" d="M406.9,561.77a3.77,3.77,0,0,1,.37-1.68,2.67,2.67,0,0,1,1-1.14,3.08,3.08,0,0,1,1.59-.41,2.86,2.86,0,0,1,2.09.79,3.13,3.13,0,0,1,.91,2.13v.43a3.34,3.34,0,0,1-.81,2.35,3.17,3.17,0,0,1-4.38,0,3.4,3.4,0,0,1-.82-2.39Zm1.7.12a2.32,2.32,0,0,0,.34,1.38,1.11,1.11,0,0,0,1,.48,1.13,1.13,0,0,0,1-.47,2.61,2.61,0,0,0,.35-1.51,2.33,2.33,0,0,0-.35-1.37,1.11,1.11,0,0,0-1-.49,1.09,1.09,0,0,0-1,.48A2.6,2.6,0,0,0,408.6,561.89Z" transform="translate(-152.79 -556)"/><path class="cls-10" d="M422.65,561.89a3.77,3.77,0,0,1-.65,2.37,2.15,2.15,0,0,1-1.81.86,2,2,0,0,1-1.65-.79l-.08.67h-1.52v-9h1.69v3.23a2,2,0,0,1,1.55-.69,2.18,2.18,0,0,1,1.82.86,3.86,3.86,0,0,1,.65,2.39Zm-1.69-.12a2.57,2.57,0,0,0-.3-1.41,1.05,1.05,0,0,0-.91-.44,1.13,1.13,0,0,0-1.12.66v2.5a1.14,1.14,0,0,0,1.13.67,1,1,0,0,0,1.08-.81A4.21,4.21,0,0,0,421,561.77Z" transform="translate(-152.79 -556)"/><path class="cls-10" d="M426.62,565.12a3.15,3.15,0,0,1-2.28-.86,3.05,3.05,0,0,1-.87-2.28v-.16a3.77,3.77,0,0,1,.37-1.71,2.67,2.67,0,0,1,1-1.16,3,3,0,0,1,1.55-.41,2.67,2.67,0,0,1,2.05.82,3.39,3.39,0,0,1,.74,2.33v.69h-4a1.59,1.59,0,0,0,.49,1,1.5,1.5,0,0,0,1.05.37,1.82,1.82,0,0,0,1.53-.71l.83.93a2.7,2.7,0,0,1-1,.85A3.44,3.44,0,0,1,426.62,565.12Zm-.2-5.21a1.06,1.06,0,0,0-.82.34,1.84,1.84,0,0,0-.4,1h2.36v-.14a1.22,1.22,0,0,0-.31-.87A1.06,1.06,0,0,0,426.42,559.91Z" transform="translate(-152.79 -556)"/><path class="cls-10" d="M433.16,557a.86.86,0,0,1,.26-.63,1,1,0,0,1,.69-.24,1,1,0,0,1,.69.24.86.86,0,0,1,.26.63.83.83,0,0,1-.26.63,1,1,0,0,1-.69.25.93.93,0,0,1-.69-.25A.83.83,0,0,1,433.16,557Zm1.8,8h-1.7v-6.34H435Z" transform="translate(-152.79 -556)"/><path class="cls-10" d="M437.91,558.66l0,.73a2.26,2.26,0,0,1,1.83-.85,1.86,1.86,0,0,1,1.5.59,2.79,2.79,0,0,1,.5,1.77V565H440.1v-4a1.11,1.11,0,0,0-.24-.79,1,1,0,0,0-.78-.24,1.16,1.16,0,0,0-1.07.61V565h-1.69v-6.34Z" transform="translate(-152.79 -556)"/><path class="cls-10" d="M445.45,562.93l1.17-4.27h1.77L446.26,565h-1.62l-2.14-6.34h1.77Z" transform="translate(-152.79 -556)"/><path class="cls-10" d="M448.79,561.77a3.77,3.77,0,0,1,.36-1.68A2.76,2.76,0,0,1,450.2,559a3.06,3.06,0,0,1,1.59-.41,2.86,2.86,0,0,1,2.09.79,3.18,3.18,0,0,1,.91,2.13v.43a3.3,3.3,0,0,1-.82,2.35,3.15,3.15,0,0,1-4.37,0,3.35,3.35,0,0,1-.82-2.39Zm1.69.12a2.4,2.4,0,0,0,.34,1.38,1.23,1.23,0,0,0,1.94,0,2.61,2.61,0,0,0,.34-1.51,2.33,2.33,0,0,0-.34-1.37,1.21,1.21,0,0,0-1.94,0A2.68,2.68,0,0,0,450.48,561.89Z" transform="translate(-152.79 -556)"/><path class="cls-10" d="M457.63,565h-1.7v-9h1.7Z" transform="translate(-152.79 -556)"/><path class="cls-10" d="M461.39,562.93l1.18-4.27h1.77L462.2,565h-1.61l-2.14-6.34h1.77Z" transform="translate(-152.79 -556)"/><path class="cls-10" d="M468,565.12a3.12,3.12,0,0,1-2.27-.86,3.05,3.05,0,0,1-.87-2.28v-.16a3.77,3.77,0,0,1,.37-1.71,2.67,2.67,0,0,1,1-1.16,3,3,0,0,1,1.55-.41,2.64,2.64,0,0,1,2,.82,3.35,3.35,0,0,1,.75,2.33v.69h-4a1.6,1.6,0,0,0,.5,1,1.48,1.48,0,0,0,1.05.37,1.79,1.79,0,0,0,1.52-.71l.84.93a2.7,2.7,0,0,1-1,.85A3.45,3.45,0,0,1,468,565.12Zm-.19-5.21a1.05,1.05,0,0,0-.82.34,1.77,1.77,0,0,0-.4,1H469v-.14a1.22,1.22,0,0,0-.31-.87A1.06,1.06,0,0,0,467.81,559.91Z" transform="translate(-152.79 -556)"/><path class="cls-10" d="M471.31,561.78a3.84,3.84,0,0,1,.66-2.36,2.18,2.18,0,0,1,1.82-.88,1.94,1.94,0,0,1,1.53.69V556H477v9h-1.53l-.08-.67a2,2,0,0,1-1.63.79,2.17,2.17,0,0,1-1.79-.88A3.91,3.91,0,0,1,471.31,561.78Zm1.69.13a2.6,2.6,0,0,0,.31,1.37,1,1,0,0,0,.9.47,1.13,1.13,0,0,0,1.11-.66v-2.51a1.11,1.11,0,0,0-1.09-.66C473.41,559.92,473,560.58,473,561.91Z" transform="translate(-152.79 -556)"/><path class="cls-10" d="M481.31,557a.86.86,0,0,1,.26-.63,1.11,1.11,0,0,1,1.38,0,.86.86,0,0,1,.26.63.83.83,0,0,1-.26.63,1,1,0,0,1-.69.25,1,1,0,0,1-.69-.25A.83.83,0,0,1,481.31,557Zm1.8,8h-1.7v-6.34h1.7Z" transform="translate(-152.79 -556)"/><path class="cls-10" d="M486.06,558.66l.06.73a2.23,2.23,0,0,1,1.82-.85,1.86,1.86,0,0,1,1.5.59,2.79,2.79,0,0,1,.5,1.77V565h-1.69v-4a1.11,1.11,0,0,0-.24-.79,1,1,0,0,0-.78-.24,1.16,1.16,0,0,0-1.07.61V565h-1.69v-6.34Z" transform="translate(-152.79 -556)"/><path class="cls-10" d="M497.89,565a1.67,1.67,0,0,1-.17-.57,2.05,2.05,0,0,1-1.6.69,2.27,2.27,0,0,1-1.55-.54,1.76,1.76,0,0,1-.61-1.36,1.8,1.8,0,0,1,.75-1.55,3.66,3.66,0,0,1,2.16-.54h.78v-.37a1.05,1.05,0,0,0-.23-.7.87.87,0,0,0-.71-.26,1,1,0,0,0-.67.2.72.72,0,0,0-.25.56H494.1a1.71,1.71,0,0,1,.34-1,2.32,2.32,0,0,1,1-.73,3.5,3.5,0,0,1,1.4-.27,2.78,2.78,0,0,1,1.86.59,2.07,2.07,0,0,1,.69,1.66v2.75a2.89,2.89,0,0,0,.25,1.36v.1Zm-1.4-1.18a1.46,1.46,0,0,0,.69-.16,1.27,1.27,0,0,0,.47-.45v-1.09H497c-.84,0-1.3.29-1.35.88v.1a.68.68,0,0,0,.23.52A.9.9,0,0,0,496.49,563.82Z" transform="translate(-152.79 -556)"/><path class="cls-10" d="M502.21,558.66l.05.73a2.23,2.23,0,0,1,1.82-.85,1.86,1.86,0,0,1,1.5.59,2.73,2.73,0,0,1,.5,1.77V565h-1.69v-4a1.16,1.16,0,0,0-.23-.79,1.07,1.07,0,0,0-.78-.24,1.17,1.17,0,0,0-1.08.61V565h-1.69v-6.34Z" transform="translate(-152.79 -556)"/><path class="cls-10" d="M507.1,561.77a3.64,3.64,0,0,1,.37-1.68,2.67,2.67,0,0,1,1-1.14,3.08,3.08,0,0,1,1.59-.41,2.86,2.86,0,0,1,2.09.79,3.13,3.13,0,0,1,.91,2.13v.43a3.3,3.3,0,0,1-.82,2.35,2.85,2.85,0,0,1-2.18.88,2.88,2.88,0,0,1-2.19-.88,3.4,3.4,0,0,1-.82-2.39Zm1.7.12a2.32,2.32,0,0,0,.34,1.38,1.11,1.11,0,0,0,1,.48,1.13,1.13,0,0,0,1-.47,2.61,2.61,0,0,0,.35-1.51,2.33,2.33,0,0,0-.35-1.37,1.11,1.11,0,0,0-1-.49,1.09,1.09,0,0,0-1,.48A2.6,2.6,0,0,0,508.8,561.89Z" transform="translate(-152.79 -556)"/><path class="cls-10" d="M516.18,557.1v1.56h1.08v1.24h-1.08v3.17a.75.75,0,0,0,.13.5.7.7,0,0,0,.52.15,2.53,2.53,0,0,0,.5,0V565a3.26,3.26,0,0,1-1,.16,1.61,1.61,0,0,1-1.81-1.8V559.9h-.93v-1.24h.93V557.1Z" transform="translate(-152.79 -556)"/><path class="cls-10" d="M519.86,559.35a2.11,2.11,0,0,1,1.69-.81c1.38,0,2.07.8,2.09,2.4V565H522v-4a1.21,1.21,0,0,0-.23-.81,1,1,0,0,0-.78-.26,1.15,1.15,0,0,0-1.08.57V565h-1.69v-9h1.69Z" transform="translate(-152.79 -556)"/><path class="cls-10" d="M527.84,565.12a3.11,3.11,0,0,1-2.27-.86,3.06,3.06,0,0,1-.88-2.28v-.16a3.91,3.91,0,0,1,.37-1.71,2.75,2.75,0,0,1,1.05-1.16,2.93,2.93,0,0,1,1.54-.41,2.66,2.66,0,0,1,2.05.82,3.35,3.35,0,0,1,.75,2.33v.69h-4a1.55,1.55,0,0,0,.5,1,1.47,1.47,0,0,0,1,.37,1.82,1.82,0,0,0,1.53-.71l.83.93a2.62,2.62,0,0,1-1,.85A3.37,3.37,0,0,1,527.84,565.12Zm-.19-5.21a1.05,1.05,0,0,0-.82.34,1.77,1.77,0,0,0-.4,1h2.35v-.14a1.22,1.22,0,0,0-.3-.87A1.08,1.08,0,0,0,527.65,559.91Z" transform="translate(-152.79 -556)"/><path class="cls-10" d="M535,560.25a4.82,4.82,0,0,0-.61,0,1.25,1.25,0,0,0-1.26.65V565h-1.69v-6.34H533l0,.76a1.57,1.57,0,0,1,1.42-.88,1.77,1.77,0,0,1,.52.08Z" transform="translate(-152.79 -556)"/><path class="cls-10" d="M538.51,561.77a3.77,3.77,0,0,1,.36-1.68,2.69,2.69,0,0,1,1-1.14,3,3,0,0,1,1.58-.41,2.87,2.87,0,0,1,2.1.79,3.12,3.12,0,0,1,.9,2.13l0,.43a3.34,3.34,0,0,1-.82,2.35,3.15,3.15,0,0,1-4.37,0,3.35,3.35,0,0,1-.82-2.39Zm1.69.12a2.4,2.4,0,0,0,.34,1.38,1.23,1.23,0,0,0,1.94,0,2.61,2.61,0,0,0,.34-1.51,2.33,2.33,0,0,0-.34-1.37,1.21,1.21,0,0,0-1.94,0A2.68,2.68,0,0,0,540.2,561.89Z" transform="translate(-152.79 -556)"/><path class="cls-10" d="M549.12,560.25a4.82,4.82,0,0,0-.61,0,1.25,1.25,0,0,0-1.26.65V565h-1.69v-6.34h1.6l.05.76a1.55,1.55,0,0,1,1.41-.88,1.77,1.77,0,0,1,.52.08Z" transform="translate(-152.79 -556)"/><path class="cls-10" d="M549.69,561.78a3.75,3.75,0,0,1,.69-2.35,2.28,2.28,0,0,1,1.88-.89,2,2,0,0,1,1.62.72l.07-.6h1.53v6.13a2.74,2.74,0,0,1-.37,1.45,2.43,2.43,0,0,1-1.07.93,3.63,3.63,0,0,1-1.6.33,3.56,3.56,0,0,1-1.36-.28,2.44,2.44,0,0,1-1-.72l.75-1a2,2,0,0,0,1.53.71,1.45,1.45,0,0,0,1-.36,1.36,1.36,0,0,0,.38-1v-.33a2,2,0,0,1-1.55.66,2.22,2.22,0,0,1-1.84-.9,3.64,3.64,0,0,1-.71-2.37Zm1.69.13a2.3,2.3,0,0,0,.35,1.35,1.1,1.1,0,0,0,.95.49,1.19,1.19,0,0,0,1.11-.58V560.5a1.18,1.18,0,0,0-1.1-.58,1.11,1.11,0,0,0-1,.5A2.62,2.62,0,0,0,551.38,561.91Z" transform="translate(-152.79 -556)"/><path class="cls-10" d="M560.46,565a1.67,1.67,0,0,1-.17-.57,2,2,0,0,1-1.6.69,2.23,2.23,0,0,1-1.54-.54,1.73,1.73,0,0,1-.62-1.36,1.8,1.8,0,0,1,.75-1.55,3.66,3.66,0,0,1,2.16-.54h.78v-.37a1.05,1.05,0,0,0-.23-.7.86.86,0,0,0-.71-.26,1,1,0,0,0-.67.2.71.71,0,0,0-.24.56h-1.7a1.78,1.78,0,0,1,.34-1,2.32,2.32,0,0,1,1-.73,3.5,3.5,0,0,1,1.4-.27,2.78,2.78,0,0,1,1.86.59,2.07,2.07,0,0,1,.69,1.66v2.75a3,3,0,0,0,.25,1.36v.1Zm-1.4-1.18a1.46,1.46,0,0,0,.69-.16,1.2,1.2,0,0,0,.47-.45v-1.09h-.63c-.85,0-1.3.29-1.36.88v.1a.67.67,0,0,0,.22.52A.9.9,0,0,0,559.06,563.82Z" transform="translate(-152.79 -556)"/><path class="cls-10" d="M564.78,558.66l.05.73a2.23,2.23,0,0,1,1.82-.85,1.86,1.86,0,0,1,1.5.59,2.79,2.79,0,0,1,.51,1.77V565H567v-4a1.16,1.16,0,0,0-.23-.79,1.07,1.07,0,0,0-.78-.24,1.15,1.15,0,0,0-1.07.61V565h-1.7v-6.34Z" transform="translate(-152.79 -556)"/><path class="cls-10" d="M569.93,557a.85.85,0,0,1,.25-.63,1.13,1.13,0,0,1,1.39,0,.86.86,0,0,1,.26.63.83.83,0,0,1-.26.63,1,1,0,0,1-.69.25.93.93,0,0,1-.69-.25A.79.79,0,0,1,569.93,557Zm1.8,8H570v-6.34h1.7Z" transform="translate(-152.79 -556)"/><path class="cls-10" d="M575.07,563.63h3.1V565H572.9v-1l3-3.94H573v-1.37h5.08v1Z" transform="translate(-152.79 -556)"/><path class="cls-10" d="M582.9,565a1.93,1.93,0,0,1-.17-.57,2,2,0,0,1-1.6.69,2.24,2.24,0,0,1-1.54-.54,1.73,1.73,0,0,1-.62-1.36,1.8,1.8,0,0,1,.75-1.55,3.66,3.66,0,0,1,2.16-.54h.78v-.37a1.05,1.05,0,0,0-.23-.7.86.86,0,0,0-.71-.26,1,1,0,0,0-.67.2.71.71,0,0,0-.24.56h-1.69a1.71,1.71,0,0,1,.34-1,2.2,2.2,0,0,1,1-.73,3.41,3.41,0,0,1,1.39-.27,2.78,2.78,0,0,1,1.86.59,2.07,2.07,0,0,1,.69,1.66v2.75a3,3,0,0,0,.25,1.36v.1Zm-1.4-1.18a1.46,1.46,0,0,0,.69-.16,1.2,1.2,0,0,0,.47-.45v-1.09H582c-.85,0-1.3.29-1.36.88v.1a.67.67,0,0,0,.22.52A.9.9,0,0,0,581.5,563.82Z" transform="translate(-152.79 -556)"/><path class="cls-10" d="M587.69,557.1v1.56h1.08v1.24h-1.08v3.17a.75.75,0,0,0,.13.5.69.69,0,0,0,.52.15,2.53,2.53,0,0,0,.5,0V565a3.31,3.31,0,0,1-1,.16,1.62,1.62,0,0,1-1.82-1.8V559.9h-.92v-1.24H586V557.1Z" transform="translate(-152.79 -556)"/><path class="cls-10" d="M589.7,557a.86.86,0,0,1,.26-.63,1.11,1.11,0,0,1,1.38,0,.89.89,0,0,1,0,1.26.93.93,0,0,1-.69.25,1,1,0,0,1-.69-.25A.83.83,0,0,1,589.7,557Zm1.8,8h-1.7v-6.34h1.7Z" transform="translate(-152.79 -556)"/><path class="cls-10" d="M592.63,561.77a3.64,3.64,0,0,1,.37-1.68,2.67,2.67,0,0,1,1-1.14,3.08,3.08,0,0,1,1.59-.41,2.86,2.86,0,0,1,2.09.79,3.18,3.18,0,0,1,.91,2.13v.43a3.3,3.3,0,0,1-.82,2.35,3.15,3.15,0,0,1-4.37,0,3.4,3.4,0,0,1-.82-2.39Zm1.7.12a2.32,2.32,0,0,0,.34,1.38,1.11,1.11,0,0,0,1,.48,1.13,1.13,0,0,0,1-.47,2.61,2.61,0,0,0,.35-1.51,2.33,2.33,0,0,0-.35-1.37,1.12,1.12,0,0,0-1-.49,1.09,1.09,0,0,0-1,.48A2.6,2.6,0,0,0,594.33,561.89Z" transform="translate(-152.79 -556)"/><path class="cls-10" d="M601.24,558.66l0,.73a2.24,2.24,0,0,1,1.83-.85,1.86,1.86,0,0,1,1.5.59,2.85,2.85,0,0,1,.5,1.77V565h-1.69v-4a1.11,1.11,0,0,0-.24-.79,1,1,0,0,0-.78-.24,1.16,1.16,0,0,0-1.07.61V565h-1.69v-6.34Z" transform="translate(-152.79 -556)"/><path class="cls-10" d="M607.79,562.39a3.59,3.59,0,0,1,.19-1.31,2.73,2.73,0,0,1,.73-1,3.74,3.74,0,0,0,.71-.77,1.17,1.17,0,0,0,.18-.62c0-.66-.31-1-.92-1a.9.9,0,0,0-.69.27,1.05,1.05,0,0,0-.28.74H606a2.2,2.2,0,0,1,.72-1.75,2.77,2.77,0,0,1,1.94-.64,2.84,2.84,0,0,1,1.93.6,2.13,2.13,0,0,1,.68,1.7,2,2,0,0,1-.22.94,3.86,3.86,0,0,1-.78,1l-.47.46a1.57,1.57,0,0,0-.51,1l0,.36Zm-.17,1.79a.83.83,0,0,1,.26-.64,1,1,0,0,1,1.37,0,.87.87,0,0,1,.26.64.83.83,0,0,1-.26.64,1.06,1.06,0,0,1-1.37,0A.83.83,0,0,1,607.62,564.18Z" transform="translate(-152.79 -556)"/></g></g><g id="Layer_3" data-name="Layer 3"><g class="cls-29"><g class="cls-30"><path class="cls-20" d="M196.27,656h-1.09v-7.22l-2.18.8v-1l3.1-1.16h.17Z" transform="translate(-152.79 -556)"/><path class="cls-20" d="M201,651.21h.82a1.79,1.79,0,0,0,1.2-.41,1.5,1.5,0,0,0-1-2.56,1.58,1.58,0,0,0-1.12.4,1.42,1.42,0,0,0-.42,1.07h-1.08a2.16,2.16,0,0,1,.74-1.69,2.72,2.72,0,0,1,1.88-.67,2.64,2.64,0,0,1,1.89.64,2.31,2.31,0,0,1,.69,1.78,1.83,1.83,0,0,1-.36,1.07,2.17,2.17,0,0,1-1,.78,2.08,2.08,0,0,1,1.08.74,2,2,0,0,1,.39,1.26,2.32,2.32,0,0,1-.75,1.82,2.81,2.81,0,0,1-1.95.68,2.91,2.91,0,0,1-2-.65,2.18,2.18,0,0,1-.75-1.72h1.09a1.41,1.41,0,0,0,.44,1.08,1.66,1.66,0,0,0,1.18.4,1.62,1.62,0,0,0,1.2-.41,1.6,1.6,0,0,0,.41-1.18,1.45,1.45,0,0,0-.45-1.14,2.06,2.06,0,0,0-1.32-.41H201Z" transform="translate(-152.79 -556)"/><path class="cls-20" d="M206.09,649.11a1.74,1.74,0,0,1,.49-1.27,1.7,1.7,0,0,1,1.26-.49,1.64,1.64,0,0,1,1.26.5,1.77,1.77,0,0,1,.48,1.29v.42a1.68,1.68,0,0,1-1.73,1.75,1.7,1.7,0,0,1-1.26-.49,1.74,1.74,0,0,1-.5-1.3Zm.81.45a1.1,1.1,0,0,0,.26.75.93.93,0,0,0,1.36,0,1.14,1.14,0,0,0,.26-.79v-.42a1.13,1.13,0,0,0-.26-.76.83.83,0,0,0-.68-.3.86.86,0,0,0-.69.3,1.16,1.16,0,0,0-.25.78Zm1.2,5.8-.62-.39,4.17-6.67.61.39Zm2.15-1.45a1.7,1.7,0,0,1,.49-1.26,1.67,1.67,0,0,1,1.25-.5,1.7,1.7,0,0,1,1.26.49,1.77,1.77,0,0,1,.49,1.31v.42a1.7,1.7,0,0,1-.49,1.26,1.66,1.66,0,0,1-1.25.49,1.68,1.68,0,0,1-1.75-1.79Zm.8.45a1.11,1.11,0,0,0,.26.76.94.94,0,0,0,1.37,0,1.15,1.15,0,0,0,.25-.79v-.44a1.1,1.1,0,0,0-.26-.75.84.84,0,0,0-.68-.3.86.86,0,0,0-.67.29,1.13,1.13,0,0,0-.27.79Z" transform="translate(-152.79 -556)"/></g></g></g></svg>