<?xml version="1.0" encoding="UTF-8"?>
<svg width="437px" height="235px" viewBox="0 0 437 235" version="1.1" xmlns="http://www.w3.org/2000/svg" xmlns:xlink="http://www.w3.org/1999/xlink">
    <!-- Generator: Sketch 56.2 (81672) - https://sketch.com -->
    <title>Group 28</title>
    <desc>Created with Sketch.</desc>
    <defs>
        <polygon id="path-1" points="0.5781 0.6857 18.209 0.6857 18.209 7.9997 0.5781 7.9997"></polygon>
        <polygon id="path-3" points="0 235 436.209 235 436.209 0.359 0 0.359"></polygon>
        <polygon id="path-5" points="0.2114 0.359 273.2114 0.359 273.2114 10.562 0.2114 10.562"></polygon>
    </defs>
    <g id="Page-1" stroke="none" stroke-width="1" fill="none" fill-rule="evenodd">
        <g id="Group-28" transform="translate(0.000000, -1.000000)">
            <path d="M350.5894,28.5385 L350.5894,220.5385 M273.5894,28.5385 L273.5894,220.5385 M196.5894,28.5385 L196.5894,220.5385" id="Stroke-1" stroke="#A6A6A6" stroke-width="0.5" stroke-dasharray="1,1"></path>
            <path d="M120.5889,220.0385 L120.5889,28.0385 M427.5889,220.0385 L427.5889,28.0385 M120.5889,28.0385 L427.5889,28.0385" id="Stroke-2" stroke="#A6A6A6" stroke-width="0.5" stroke-linecap="square"></path>
            <path d="M120.5889,220.0385 L427.5889,220.0385" id="Stroke-3" stroke="#A6A6A6" stroke-width="0.5" stroke-linecap="square"></path>
            <g id="Group-24" transform="translate(0.000000, 0.641000)">
                <path d="M125.3584,228.8037 L124.8454,228.4817 L121.3744,234.0377 L121.8864,234.3607 L125.3584,228.8037 Z M124.3524,233.1707 C124.3524,232.8967 124.4244,232.6787 124.5694,232.5177 C124.7144,232.3567 124.9024,232.2757 125.1334,232.2757 C125.3714,232.2757 125.5614,232.3577 125.7024,232.5207 C125.8444,232.6837 125.9154,232.8937 125.9154,233.1517 L125.9154,233.5137 C125.9154,233.7907 125.8454,234.0107 125.7054,234.1717 C125.5654,234.3327 125.3784,234.4137 125.1434,234.4137 C124.9024,234.4137 124.7104,234.3317 124.5674,234.1667 C124.4244,234.0017 124.3524,233.7907 124.3524,233.5327 L124.3524,233.1707 Z M123.6784,233.5057 C123.6784,233.9577 123.8164,234.3207 124.0934,234.5917 C124.3704,234.8647 124.7204,234.9997 125.1434,234.9997 C125.5664,234.9997 125.9144,234.8627 126.1864,234.5867 C126.4584,234.3127 126.5934,233.9617 126.5934,233.5347 L126.5934,233.1887 C126.5934,232.7367 126.4574,232.3727 126.1834,232.0997 C125.9104,231.8257 125.5604,231.6897 125.1334,231.6897 C124.7074,231.6897 124.3584,231.8267 124.0864,232.1017 C123.8144,232.3767 123.6784,232.7277 123.6784,233.1547 L123.6784,233.5057 Z M120.8904,229.1717 C120.8904,228.9047 120.9604,228.6877 121.1004,228.5217 C121.2404,228.3547 121.4314,228.2717 121.6714,228.2717 C121.9124,228.2717 122.1034,228.3547 122.2434,228.5217 C122.3834,228.6877 122.4534,228.8977 122.4534,229.1527 L122.4534,229.5097 C122.4534,229.7867 122.3824,230.0057 122.2404,230.1647 C122.0994,230.3247 121.9124,230.4057 121.6814,230.4057 C121.4414,230.4057 121.2484,230.3237 121.1054,230.1577 C120.9624,229.9927 120.8904,229.7837 120.8904,229.5297 L120.8904,229.1717 Z M120.2164,229.4967 C120.2164,229.9497 120.3554,230.3117 120.6314,230.5827 C120.9084,230.8557 121.2584,230.9917 121.6814,230.9917 C122.1014,230.9917 122.4474,230.8557 122.7194,230.5827 C122.9914,230.3117 123.1274,229.9607 123.1274,229.5317 L123.1274,229.1847 C123.1274,228.7417 122.9924,228.3807 122.7244,228.1027 C122.4554,227.8247 122.1054,227.6857 121.6714,227.6857 C121.2454,227.6857 120.8964,227.8247 120.6244,228.1007 C120.3524,228.3767 120.2164,228.7287 120.2164,229.1557 L120.2164,229.4967 Z M118.2344,232.1097 C118.2244,232.8517 118.1114,233.3957 117.8954,233.7407 C117.6784,234.0847 117.3474,234.2577 116.9014,234.2577 C116.4484,234.2577 116.1114,234.0747 115.8884,233.7077 C115.6654,233.3417 115.5534,232.7757 115.5534,232.0067 L115.5534,230.5617 C115.5604,229.8387 115.6694,229.3037 115.8804,228.9547 C116.0924,228.6067 116.4294,228.4327 116.8914,228.4327 C117.3574,228.4327 117.6974,228.6077 117.9124,228.9567 C118.1274,229.3077 118.2344,229.8657 118.2344,230.6297 L118.2344,232.1097 Z M119.1374,230.6937 C119.1284,229.6707 118.9424,228.9147 118.5814,228.4247 C118.2194,227.9357 117.6564,227.6907 116.8914,227.6907 C116.1204,227.6907 115.5534,227.9447 115.1924,228.4517 C114.8314,228.9597 114.6504,229.7367 114.6504,230.7817 L114.6504,231.9877 C114.6634,232.9867 114.8524,233.7377 115.2164,234.2407 C115.5814,234.7427 116.1434,234.9947 116.9014,234.9947 C117.6694,234.9947 118.2344,234.7387 118.5954,234.2237 C118.9574,233.7087 119.1374,232.9227 119.1374,231.8657 L119.1374,230.6937 Z" id="Fill-4" fill="#444444"></path>
                <path d="M203.9736,228.8037 L203.4606,228.4817 L199.9896,234.0377 L200.5016,234.3607 L203.9736,228.8037 Z M202.9676,233.1707 C202.9676,232.8967 203.0396,232.6787 203.1846,232.5177 C203.3296,232.3567 203.5176,232.2757 203.7486,232.2757 C203.9866,232.2757 204.1766,232.3577 204.3176,232.5207 C204.4596,232.6837 204.5306,232.8937 204.5306,233.1517 L204.5306,233.5137 C204.5306,233.7907 204.4606,234.0107 204.3206,234.1717 C204.1806,234.3327 203.9936,234.4137 203.7586,234.4137 C203.5176,234.4137 203.3256,234.3317 203.1826,234.1667 C203.0396,234.0017 202.9676,233.7907 202.9676,233.5327 L202.9676,233.1707 Z M202.2936,233.5057 C202.2936,233.9577 202.4316,234.3207 202.7086,234.5917 C202.9856,234.8647 203.3356,234.9997 203.7586,234.9997 C204.1816,234.9997 204.5296,234.8627 204.8016,234.5867 C205.0736,234.3127 205.2086,233.9617 205.2086,233.5347 L205.2086,233.1887 C205.2086,232.7367 205.0726,232.3727 204.7986,232.0997 C204.5256,231.8257 204.1756,231.6897 203.7486,231.6897 C203.3226,231.6897 202.9736,231.8267 202.7016,232.1017 C202.4296,232.3767 202.2936,232.7277 202.2936,233.1547 L202.2936,233.5057 Z M199.5056,229.1717 C199.5056,228.9047 199.5756,228.6877 199.7156,228.5217 C199.8556,228.3547 200.0466,228.2717 200.2866,228.2717 C200.5276,228.2717 200.7186,228.3547 200.8586,228.5217 C200.9986,228.6877 201.0686,228.8977 201.0686,229.1527 L201.0686,229.5097 C201.0686,229.7867 200.9976,230.0057 200.8556,230.1647 C200.7146,230.3247 200.5276,230.4057 200.2966,230.4057 C200.0566,230.4057 199.8636,230.3237 199.7206,230.1577 C199.5776,229.9927 199.5056,229.7837 199.5056,229.5297 L199.5056,229.1717 Z M198.8316,229.4967 C198.8316,229.9497 198.9706,230.3117 199.2466,230.5827 C199.5236,230.8557 199.8736,230.9917 200.2966,230.9917 C200.7166,230.9917 201.0626,230.8557 201.3346,230.5827 C201.6066,230.3117 201.7426,229.9607 201.7426,229.5317 L201.7426,229.1847 C201.7426,228.7417 201.6076,228.3807 201.3396,228.1027 C201.0706,227.8247 200.7206,227.6857 200.2866,227.6857 C199.8606,227.6857 199.5116,227.8247 199.2396,228.1007 C198.9676,228.3767 198.8316,228.7287 198.8316,229.1557 L198.8316,229.4967 Z M194.6086,231.6407 L195.2866,231.6407 C195.7656,231.6477 196.1316,231.7607 196.3856,231.9827 C196.6396,232.2037 196.7666,232.5217 196.7666,232.9347 C196.7666,233.3617 196.6506,233.6887 196.4196,233.9157 C196.1886,234.1437 195.8546,234.2577 195.4186,234.2577 C195.0086,234.2577 194.6816,234.1457 194.4376,233.9207 C194.1936,233.6967 194.0716,233.3967 194.0716,233.0227 L193.1626,233.0227 C193.1626,233.6157 193.3716,234.0917 193.7906,234.4527 C194.2086,234.8147 194.7516,234.9947 195.4186,234.9947 C196.0866,234.9947 196.6286,234.8077 197.0446,234.4337 C197.4616,234.0597 197.6696,233.5527 197.6696,232.9147 C197.6696,232.5017 197.5636,232.1517 197.3496,231.8657 C197.1366,231.5787 196.8346,231.3737 196.4446,231.2497 C196.7896,231.1067 197.0616,230.8907 197.2626,230.6007 C197.4626,230.3107 197.5626,230.0117 197.5626,229.7017 C197.5626,229.0707 197.3716,228.5767 196.9916,228.2227 C196.6106,227.8677 196.0846,227.6907 195.4136,227.6907 C194.7796,227.6907 194.2556,227.8767 193.8446,228.2487 C193.4326,228.6217 193.2266,229.0897 193.2266,229.6537 L194.1296,229.6537 C194.1296,229.2847 194.2456,228.9907 194.4786,228.7667 C194.7116,228.5437 195.0236,228.4327 195.4136,228.4327 C196.2446,228.4327 196.6596,228.8497 196.6596,229.6827 C196.6596,230.0537 196.5366,230.3487 196.2926,230.5667 C196.0486,230.7837 195.7136,230.8967 195.2866,230.9037 L194.6086,230.9037 L194.6086,231.6407 Z M192.3376,234.1597 L188.7686,234.1597 L190.6726,232.0947 C191.5646,231.1277 192.0106,230.2947 192.0106,229.5947 C192.0106,229.0187 191.8186,228.5567 191.4346,228.2097 C191.0506,227.8637 190.5276,227.6907 189.8676,227.6907 C189.1606,227.6907 188.5966,227.8927 188.1756,228.2957 C187.7536,228.6997 187.5426,229.2287 187.5426,229.8827 L188.4466,229.8827 C188.4466,229.4267 188.5706,229.0717 188.8196,228.8157 C189.0686,228.5607 189.4176,228.4327 189.8676,228.4327 C190.2416,228.4327 190.5406,228.5517 190.7656,228.7887 C190.9906,229.0267 191.1026,229.3307 191.1026,229.7017 C191.1026,229.9787 191.0336,230.2457 190.8946,230.5047 C190.7566,230.7637 190.5056,231.1007 190.1406,231.5137 L187.6796,234.2477 L187.6796,234.8977 L192.3376,234.8977 L192.3376,234.1597 Z" id="Fill-6" fill="#444444"></path>
                <path d="M280.9741,228.8037 L280.4611,228.4817 L276.9901,234.0377 L277.5021,234.3607 L280.9741,228.8037 Z M279.9681,233.1707 C279.9681,232.8967 280.0401,232.6787 280.1851,232.5177 C280.3291,232.3567 280.5181,232.2757 280.7491,232.2757 C280.9871,232.2757 281.1761,232.3577 281.3181,232.5207 C281.4591,232.6837 281.5311,232.8937 281.5311,233.1517 L281.5311,233.5137 C281.5311,233.7907 281.4601,234.0107 281.3211,234.1717 C281.1801,234.3327 280.9941,234.4137 280.7591,234.4137 C280.5181,234.4137 280.3261,234.3317 280.1831,234.1667 C280.0391,234.0017 279.9681,233.7907 279.9681,233.5327 L279.9681,233.1707 Z M279.2941,233.5057 C279.2941,233.9577 279.4321,234.3207 279.7091,234.5917 C279.9861,234.8647 280.3351,234.9997 280.7591,234.9997 C281.1821,234.9997 281.5301,234.8627 281.8011,234.5867 C282.0731,234.3127 282.2091,233.9617 282.2091,233.5347 L282.2091,233.1887 C282.2091,232.7367 282.0731,232.3727 281.7991,232.0997 C281.5261,231.8257 281.1751,231.6897 280.7491,231.6897 C280.3231,231.6897 279.9731,231.8267 279.7021,232.1017 C279.4301,232.3767 279.2941,232.7277 279.2941,233.1547 L279.2941,233.5057 Z M276.5061,229.1717 C276.5061,228.9047 276.5761,228.6877 276.7161,228.5217 C276.8561,228.3547 277.0461,228.2717 277.2871,228.2717 C277.5281,228.2717 277.7181,228.3547 277.8591,228.5217 C277.9981,228.6877 278.0691,228.8977 278.0691,229.1527 L278.0691,229.5097 C278.0691,229.7867 277.9971,230.0057 277.8561,230.1647 C277.7141,230.3247 277.5281,230.4057 277.2971,230.4057 C277.0561,230.4057 276.8641,230.3237 276.7211,230.1577 C276.5781,229.9927 276.5061,229.7837 276.5061,229.5297 L276.5061,229.1717 Z M275.8321,229.4967 C275.8321,229.9497 275.9701,230.3117 276.2471,230.5827 C276.5241,230.8557 276.8731,230.9917 277.2971,230.9917 C277.7171,230.9917 278.0631,230.8557 278.3341,230.5827 C278.6061,230.3117 278.7431,229.9607 278.7431,229.5317 L278.7431,229.1847 C278.7431,228.7417 278.6081,228.3807 278.3391,228.1027 C278.0711,227.8247 277.7201,227.6857 277.2871,227.6857 C276.8611,227.6857 276.5111,227.8247 276.2401,228.1007 C275.9681,228.3767 275.8321,228.7287 275.8321,229.1557 L275.8321,229.4967 Z M271.4331,231.5187 L271.6721,231.3237 C271.8971,231.1507 272.2051,231.0647 272.6001,231.0647 C273.0301,231.0647 273.3731,231.2077 273.6321,231.4957 C273.8911,231.7837 274.0211,232.1657 274.0211,232.6417 C274.0211,233.1467 273.9011,233.5417 273.6621,233.8277 C273.4221,234.1147 273.0931,234.2577 272.6731,234.2577 C272.2881,234.2577 271.9801,234.1547 271.7451,233.9477 C271.5111,233.7407 271.3661,233.4347 271.3111,233.0277 L270.4561,233.0277 C270.5111,233.6427 270.7381,234.1237 271.1351,234.4727 C271.5321,234.8217 272.0441,234.9947 272.6731,234.9947 C273.3821,234.9947 273.9351,234.7837 274.3301,234.3627 C274.7261,233.9417 274.9241,233.3647 274.9241,232.6317 C274.9241,231.9027 274.7341,231.3247 274.3531,230.8957 C273.9721,230.4677 273.4571,230.2537 272.8101,230.2537 C272.3671,230.2537 271.9711,230.3567 271.6231,230.5617 L271.8381,228.6227 L274.7141,228.6227 L274.7141,227.7877 L271.0721,227.7877 L270.7101,231.3327 L271.4331,231.5187 Z M267.4781,229.2187 L267.5851,229.0237 L267.5851,232.5097 L265.3731,232.5097 L267.4781,229.2187 Z M268.4941,227.7877 L267.5321,227.7877 L264.3481,232.7147 L264.3481,233.2467 L267.5851,233.2467 L267.5851,234.8977 L268.4941,234.8977 L268.4941,233.2467 L269.4801,233.2467 L269.4801,232.5097 L268.4941,232.5097 L268.4941,227.7877 Z" id="Fill-8" fill="#444444"></path>
                <path d="M357.9741,228.8037 L357.4611,228.4817 L353.9901,234.0377 L354.5021,234.3607 L357.9741,228.8037 Z M356.9681,233.1707 C356.9681,232.8967 357.0401,232.6787 357.1851,232.5177 C357.3291,232.3567 357.5181,232.2757 357.7491,232.2757 C357.9871,232.2757 358.1761,232.3577 358.3181,232.5207 C358.4591,232.6837 358.5311,232.8937 358.5311,233.1517 L358.5311,233.5137 C358.5311,233.7907 358.4601,234.0107 358.3211,234.1717 C358.1801,234.3327 357.9941,234.4137 357.7591,234.4137 C357.5181,234.4137 357.3261,234.3317 357.1831,234.1667 C357.0391,234.0017 356.9681,233.7907 356.9681,233.5327 L356.9681,233.1707 Z M356.2941,233.5057 C356.2941,233.9577 356.4321,234.3207 356.7091,234.5917 C356.9861,234.8647 357.3351,234.9997 357.7591,234.9997 C358.1821,234.9997 358.5301,234.8627 358.8011,234.5867 C359.0731,234.3127 359.2091,233.9617 359.2091,233.5347 L359.2091,233.1887 C359.2091,232.7367 359.0731,232.3727 358.7991,232.0997 C358.5261,231.8257 358.1751,231.6897 357.7491,231.6897 C357.3231,231.6897 356.9731,231.8267 356.7021,232.1017 C356.4301,232.3767 356.2941,232.7277 356.2941,233.1547 L356.2941,233.5057 Z M353.5061,229.1717 C353.5061,228.9047 353.5761,228.6877 353.7161,228.5217 C353.8561,228.3547 354.0461,228.2717 354.2871,228.2717 C354.5281,228.2717 354.7181,228.3547 354.8591,228.5217 C354.9981,228.6877 355.0691,228.8977 355.0691,229.1527 L355.0691,229.5097 C355.0691,229.7867 354.9971,230.0057 354.8561,230.1647 C354.7141,230.3247 354.5281,230.4057 354.2971,230.4057 C354.0561,230.4057 353.8641,230.3237 353.7211,230.1577 C353.5781,229.9927 353.5061,229.7837 353.5061,229.5297 L353.5061,229.1717 Z M352.8321,229.4967 C352.8321,229.9497 352.9701,230.3117 353.2471,230.5827 C353.5241,230.8557 353.8731,230.9917 354.2971,230.9917 C354.7171,230.9917 355.0631,230.8557 355.3341,230.5827 C355.6061,230.3117 355.7431,229.9607 355.7431,229.5317 L355.7431,229.1847 C355.7431,228.7417 355.6081,228.3807 355.3391,228.1027 C355.0711,227.8247 354.7201,227.6857 354.2871,227.6857 C353.8611,227.6857 353.5111,227.8247 353.2401,228.1007 C352.9681,228.3767 352.8321,228.7287 352.8321,229.1557 L352.8321,229.4967 Z M350.3671,228.7747 C350.5911,229.0017 350.7031,229.2967 350.7031,229.6577 C350.7031,230.0197 350.5951,230.3117 350.3781,230.5337 C350.1621,230.7577 349.8731,230.8687 349.5121,230.8687 C349.1511,230.8687 348.8621,230.7577 348.6451,230.5337 C348.4281,230.3117 348.3211,230.0197 348.3211,229.6577 C348.3211,229.2807 348.4301,228.9817 348.6501,228.7617 C348.8701,228.5417 349.1571,228.4327 349.5121,228.4327 C349.8571,228.4327 350.1421,228.5467 350.3671,228.7747 L350.3671,228.7747 Z M350.5081,233.9077 C350.2671,234.1417 349.9351,234.2577 349.5121,234.2577 C349.0851,234.2577 348.7521,234.1427 348.5131,233.9107 C348.2741,233.6797 348.1551,233.3627 348.1551,232.9587 C348.1551,232.5557 348.2771,232.2297 348.5231,231.9827 C348.7691,231.7357 349.0951,231.6117 349.5021,231.6117 C349.9091,231.6117 350.2391,231.7367 350.4911,231.9877 C350.7431,232.2387 350.8701,232.5617 350.8701,232.9587 C350.8701,233.3597 350.7481,233.6757 350.5081,233.9077 L350.5081,233.9077 Z M351.0281,228.2177 C350.6421,227.8667 350.1371,227.6907 349.5121,227.6907 C348.8831,227.6907 348.3771,227.8667 347.9941,228.2177 C347.6091,228.5697 347.4171,229.0447 347.4171,229.6437 C347.4171,229.9947 347.5081,230.3097 347.6911,230.5857 C347.8721,230.8627 348.1211,231.0787 348.4381,231.2357 C348.0671,231.3947 347.7761,231.6287 347.5661,231.9387 C347.3561,232.2477 347.2511,232.5947 347.2511,232.9787 C347.2511,233.5907 347.4561,234.0787 347.8691,234.4457 C348.2811,234.8117 348.8281,234.9947 349.5121,234.9947 C350.1891,234.9947 350.7351,234.8127 351.1501,234.4487 C351.5651,234.0837 351.7731,233.5937 351.7731,232.9787 C351.7731,232.5907 351.6641,232.2437 351.4481,231.9387 C351.2311,231.6327 350.9381,231.3997 350.5671,231.2407 C350.8851,231.0837 351.1381,230.8667 351.3261,230.5907 C351.5131,230.3147 351.6071,229.9977 351.6071,229.6437 C351.6071,229.0447 351.4131,228.5697 351.0281,228.2177 L351.0281,228.2177 Z M344.9781,231.4377 C345.2141,231.7397 345.3321,232.1337 345.3321,232.6217 C345.3321,233.1077 345.2151,233.4987 344.9831,233.7987 C344.7501,234.0987 344.4301,234.2477 344.0241,234.2477 C343.6291,234.2477 343.3011,234.0697 343.0371,233.7107 C342.7741,233.3527 342.6421,232.8807 342.6421,232.2947 L342.6421,231.9627 C342.7431,231.6827 342.9231,231.4497 343.1841,231.2647 C343.4441,231.0787 343.7291,230.9867 344.0381,230.9867 C344.4291,230.9867 344.7421,231.1367 344.9781,231.4377 L344.9781,231.4377 Z M345.0641,227.7827 C343.9601,227.7997 343.1291,228.1537 342.5711,228.8447 C342.0121,229.5367 341.7341,230.5367 341.7341,231.8457 L341.7341,232.1927 C341.7341,233.0157 341.9451,233.6887 342.3691,234.2107 C342.7911,234.7337 343.3431,234.9947 344.0241,234.9947 C344.6941,234.9947 345.2291,234.7757 345.6271,234.3357 C346.0261,233.8967 346.2261,233.3107 346.2261,232.5777 C346.2261,231.8877 346.0401,231.3247 345.6711,230.8887 C345.3021,230.4517 344.8081,230.2347 344.1901,230.2347 C343.5411,230.2347 343.0311,230.4497 342.6571,230.8787 C342.7211,230.1467 342.9621,229.5777 343.3791,229.1747 C343.7951,228.7717 344.3561,228.5627 345.0591,228.5497 L345.2251,228.5497 L345.2251,227.7827 L345.0641,227.7827 Z" id="Fill-10" fill="#444444"></path>
                <g id="Group-14" transform="translate(418.000000, 227.000000)">
                    <mask id="mask-2" fill="white">
                        <use xlink:href="#path-1"></use>
                    </mask>
                    <g id="Clip-13"></g>
                    <path d="M16.9741,1.8037 L16.4611,1.4817 L12.9901,7.0377 L13.5021,7.3607 L16.9741,1.8037 Z M15.9681,6.1707 C15.9681,5.8967 16.0401,5.6787 16.1851,5.5177 C16.3291,5.3567 16.5181,5.2757 16.7491,5.2757 C16.9871,5.2757 17.1761,5.3577 17.3181,5.5207 C17.4591,5.6837 17.5311,5.8937 17.5311,6.1517 L17.5311,6.5137 C17.5311,6.7907 17.4601,7.0107 17.3211,7.1717 C17.1801,7.3327 16.9941,7.4137 16.7591,7.4137 C16.5181,7.4137 16.3261,7.3317 16.1831,7.1667 C16.0391,7.0017 15.9681,6.7907 15.9681,6.5327 L15.9681,6.1707 Z M15.2941,6.5057 C15.2941,6.9577 15.4321,7.3207 15.7091,7.5917 C15.9861,7.8647 16.3351,7.9997 16.7591,7.9997 C17.1821,7.9997 17.5301,7.8627 17.8011,7.5867 C18.0731,7.3127 18.2091,6.9617 18.2091,6.5347 L18.2091,6.1887 C18.2091,5.7367 18.0731,5.3727 17.7991,5.0997 C17.5261,4.8257 17.1751,4.6897 16.7491,4.6897 C16.3231,4.6897 15.9731,4.8267 15.7021,5.1017 C15.4301,5.3767 15.2941,5.7277 15.2941,6.1547 L15.2941,6.5057 Z M12.5061,2.1717 C12.5061,1.9047 12.5761,1.6877 12.7161,1.5217 C12.8561,1.3547 13.0461,1.2717 13.2871,1.2717 C13.5281,1.2717 13.7181,1.3547 13.8591,1.5217 C13.9981,1.6877 14.0691,1.8977 14.0691,2.1527 L14.0691,2.5097 C14.0691,2.7867 13.9971,3.0057 13.8561,3.1647 C13.7141,3.3247 13.5281,3.4057 13.2971,3.4057 C13.0561,3.4057 12.8641,3.3237 12.7211,3.1577 C12.5781,2.9927 12.5061,2.7837 12.5061,2.5297 L12.5061,2.1717 Z M11.8321,2.4967 C11.8321,2.9497 11.9701,3.3117 12.2471,3.5827 C12.5241,3.8557 12.8731,3.9917 13.2971,3.9917 C13.7171,3.9917 14.0631,3.8557 14.3341,3.5827 C14.6061,3.3117 14.7431,2.9607 14.7431,2.5317 L14.7431,2.1847 C14.7431,1.7417 14.6081,1.3807 14.3391,1.1027 C14.0711,0.8247 13.7201,0.6857 13.2871,0.6857 C12.8611,0.6857 12.5111,0.8247 12.2401,1.1007 C11.9681,1.3767 11.8321,1.7287 11.8321,2.1557 L11.8321,2.4967 Z M9.8501,5.1097 C9.8401,5.8517 9.7271,6.3957 9.5101,6.7407 C9.2931,7.0847 8.9621,7.2577 8.5171,7.2577 C8.0641,7.2577 7.7261,7.0747 7.5031,6.7077 C7.2811,6.3417 7.1691,5.7757 7.1691,5.0067 L7.1691,3.5617 C7.1751,2.8387 7.2851,2.3037 7.4961,1.9547 C7.7071,1.6067 8.0441,1.4327 8.5071,1.4327 C8.9721,1.4327 9.3131,1.6077 9.5281,1.9567 C9.7431,2.3077 9.8501,2.8657 9.8501,3.6297 L9.8501,5.1097 Z M10.7531,3.6937 C10.7441,2.6707 10.5581,1.9147 10.1971,1.4247 C9.8351,0.9357 9.2721,0.6907 8.5071,0.6907 C7.7361,0.6907 7.1691,0.9447 6.8081,1.4517 C6.4471,1.9597 6.2661,2.7367 6.2661,3.7817 L6.2661,4.9877 C6.2791,5.9867 6.4671,6.7377 6.8321,7.2407 C7.1971,7.7427 7.7581,7.9947 8.5171,7.9947 C9.2851,7.9947 9.8501,7.7387 10.2111,7.2237 C10.5731,6.7087 10.7531,5.9227 10.7531,4.8657 L10.7531,3.6937 Z M1.8151,4.3007 C1.5821,3.9877 1.4661,3.5877 1.4661,3.1027 C1.4661,2.6047 1.5861,2.2027 1.8281,1.8987 C2.0681,1.5947 2.3871,1.4427 2.7851,1.4427 C3.1781,1.4427 3.5031,1.6277 3.7611,1.9987 C4.0181,2.3697 4.1471,2.8517 4.1471,3.4447 L4.1471,3.8057 C4.0301,4.0787 3.8431,4.3087 3.5871,4.4937 C3.3311,4.6797 3.0531,4.7727 2.7501,4.7727 C2.3601,4.7727 2.0471,4.6157 1.8151,4.3007 L1.8151,4.3007 Z M3.4881,6.5537 C3.0871,6.9287 2.5141,7.1227 1.7691,7.1357 L1.5781,7.1357 L1.5781,7.9027 L1.7541,7.9027 C2.8581,7.8857 3.6831,7.5597 4.2301,6.9227 C4.7771,6.2867 5.0501,5.2777 5.0501,3.8937 L5.0501,3.6297 C5.0501,2.7217 4.8471,2.0047 4.4421,1.4787 C4.0361,0.9527 3.4831,0.6907 2.7801,0.6907 C2.3361,0.6907 1.9501,0.7907 1.6181,0.9927 C1.2861,1.1957 1.0291,1.4867 0.8481,1.8667 C0.6671,2.2477 0.5781,2.6757 0.5781,3.1517 C0.5781,3.5937 0.6611,3.9977 0.8271,4.3647 C0.9931,4.7307 1.2271,5.0147 1.5321,5.2167 C1.8361,5.4187 2.1941,5.5197 2.6041,5.5197 C2.9161,5.5197 3.2031,5.4507 3.4651,5.3147 C3.7271,5.1777 3.9531,4.9967 4.1421,4.7727 C4.1061,5.5847 3.8881,6.1787 3.4881,6.5537 L3.4881,6.5537 Z" id="Fill-12" fill="#444444" mask="url(#mask-2)"></path>
                </g>
                <mask id="mask-4" fill="white">
                    <use xlink:href="#path-3"></use>
                </mask>
                <g id="Clip-16"></g>
                <polygon id="Fill-15" fill="#E67524" mask="url(#mask-4)" points="121.089 210.897 248.089 210.897 248.089 172.897 121.089 172.897"></polygon>
                <polygon id="Fill-17" fill="#82C45D" mask="url(#mask-4)" points="121.089 165.897 355.089 165.897 355.089 127.897 121.089 127.897"></polygon>
                <polygon id="Fill-18" fill="#0E92D1" mask="url(#mask-4)" points="121.089 119.897 397.089 119.897 397.089 81.897 121.089 81.897"></polygon>
                <polygon id="Fill-19" fill="#034D80" mask="url(#mask-4)" points="121.089 73.897 418.089 73.897 418.089 35.897 121.089 35.897"></polygon>
                <path d="M243.3511,189.585 L242.7361,189.198 L238.5701,195.866 L239.1851,196.253 L243.3511,189.585 Z M242.1441,194.826 C242.1441,194.497 242.2311,194.235 242.4051,194.042 C242.5791,193.848 242.8041,193.751 243.0811,193.751 C243.3671,193.751 243.5941,193.849 243.7641,194.045 C243.9341,194.24 244.0191,194.493 244.0191,194.802 L244.0191,195.236 C244.0191,195.569 243.9351,195.833 243.7671,196.026 C243.5991,196.221 243.3741,196.317 243.0931,196.317 C242.8041,196.317 242.5741,196.219 242.4021,196.021 C242.2301,195.823 242.1441,195.569 242.1441,195.261 L242.1441,194.826 Z M241.3351,195.228 C241.3351,195.771 241.5011,196.205 241.8331,196.531 C242.1651,196.857 242.5851,197.021 243.0931,197.021 C243.6011,197.021 244.0181,196.856 244.3441,196.525 C244.6701,196.195 244.8331,195.774 244.8331,195.263 L244.8331,194.847 C244.8331,194.304 244.6691,193.868 244.3411,193.54 C244.0131,193.212 243.5931,193.048 243.0811,193.048 C242.5701,193.048 242.1511,193.213 241.8251,193.543 C241.4981,193.873 241.3351,194.294 241.3351,194.806 L241.3351,195.228 Z M237.9901,190.027 C237.9901,189.706 238.0741,189.445 238.2421,189.246 C238.4101,189.046 238.6381,188.946 238.9271,188.946 C239.2161,188.946 239.4451,189.046 239.6131,189.246 C239.7811,189.445 239.8651,189.698 239.8651,190.003 L239.8651,190.432 C239.8651,190.765 239.7801,191.027 239.6101,191.219 C239.4401,191.411 239.2161,191.507 238.9391,191.507 C238.6501,191.507 238.4191,191.408 238.2471,191.21 C238.0761,191.013 237.9901,190.761 237.9901,190.456 L237.9901,190.027 Z M237.1811,190.417 C237.1811,190.96 237.3471,191.395 237.6791,191.721 C238.0111,192.047 238.4311,192.21 238.9391,192.21 C239.4431,192.21 239.8581,192.047 240.1841,191.721 C240.5101,191.395 240.6731,190.974 240.6731,190.458 L240.6731,190.042 C240.6731,189.511 240.5121,189.078 240.1901,188.744 C239.8681,188.41 239.4471,188.243 238.9271,188.243 C238.4151,188.243 237.9971,188.409 237.6701,188.741 C237.3441,189.073 237.1811,189.495 237.1811,190.007 L237.1811,190.417 Z M234.2221,189.55 C234.4921,189.823 234.6261,190.177 234.6261,190.61 C234.6261,191.044 234.4971,191.395 234.2371,191.662 C233.9771,191.93 233.6301,192.064 233.1971,192.064 C232.7631,192.064 232.4161,191.93 232.1571,191.662 C231.8971,191.395 231.7671,191.044 231.7671,190.61 C231.7671,190.157 231.8991,189.799 232.1631,189.535 C232.4261,189.272 232.7711,189.14 233.1971,189.14 C233.6111,189.14 233.9531,189.276 234.2221,189.55 L234.2221,189.55 Z M234.3921,195.711 C234.1031,195.99 233.7051,196.13 233.1971,196.13 C232.6851,196.13 232.2861,195.991 231.9981,195.714 C231.7111,195.437 231.5681,195.056 231.5681,194.571 C231.5681,194.087 231.7151,193.696 232.0101,193.399 C232.3051,193.103 232.6971,192.954 233.1851,192.954 C233.6731,192.954 234.0691,193.105 234.3721,193.405 C234.6741,193.706 234.8261,194.095 234.8261,194.571 C234.8261,195.052 234.6811,195.432 234.3921,195.711 L234.3921,195.711 Z M235.0161,188.882 C234.5531,188.46 233.9471,188.249 233.1971,188.249 C232.4431,188.249 231.8351,188.46 231.3741,188.882 C230.9131,189.304 230.6831,189.874 230.6831,190.593 C230.6831,191.015 230.7921,191.392 231.0111,191.724 C231.2301,192.056 231.5291,192.315 231.9081,192.503 C231.4621,192.694 231.1141,192.976 230.8621,193.347 C230.6101,193.718 230.4841,194.134 230.4841,194.595 C230.4841,195.329 230.7311,195.916 231.2251,196.356 C231.7191,196.795 232.3761,197.015 233.1971,197.015 C234.0091,197.015 234.6641,196.796 235.1631,196.358 C235.6611,195.921 235.9101,195.333 235.9101,194.595 C235.9101,194.13 235.7801,193.714 235.5201,193.347 C235.2601,192.98 234.9081,192.7 234.4621,192.509 C234.8451,192.321 235.1491,192.062 235.3731,191.73 C235.5981,191.397 235.7101,191.019 235.7101,190.593 C235.7101,189.874 235.4791,189.304 235.0161,188.882 L235.0161,188.882 Z M225.3741,192.989 L226.1891,192.989 C226.7631,192.997 227.2031,193.134 227.5071,193.399 C227.8121,193.665 227.9641,194.046 227.9641,194.542 C227.9641,195.054 227.8261,195.446 227.5481,195.72 C227.2711,195.993 226.8711,196.13 226.3471,196.13 C225.8551,196.13 225.4621,195.995 225.1691,195.726 C224.8761,195.456 224.7301,195.097 224.7301,194.647 L223.6401,194.647 C223.6401,195.358 223.8911,195.931 224.3931,196.364 C224.8951,196.798 225.5461,197.015 226.3471,197.015 C227.1481,197.015 227.7981,196.79 228.2981,196.341 C228.7981,195.892 229.0481,195.284 229.0481,194.519 C229.0481,194.022 228.9201,193.603 228.6641,193.259 C228.4091,192.915 228.0461,192.669 227.5781,192.521 C227.9921,192.349 228.3191,192.089 228.5591,191.741 C228.7991,191.394 228.9191,191.034 228.9191,190.663 C228.9191,189.905 228.6911,189.314 228.2341,188.888 C227.7771,188.462 227.1461,188.249 226.3411,188.249 C225.5801,188.249 224.9521,188.473 224.4571,188.92 C223.9631,189.367 223.7161,189.929 223.7161,190.605 L224.8001,190.605 C224.8001,190.163 224.9401,189.809 225.2191,189.541 C225.4981,189.273 225.8721,189.14 226.3411,189.14 C227.3371,189.14 227.8351,189.64 227.8351,190.64 C227.8351,191.085 227.6891,191.439 227.3961,191.7 C227.1031,191.962 226.7011,192.097 226.1891,192.105 L225.3741,192.105 L225.3741,192.989 Z" id="Fill-20" fill="#FEFEFE" mask="url(#mask-4)"></path>
                <path d="M350.3511,143.585 L349.7361,143.198 L345.5701,149.866 L346.1851,150.253 L350.3511,143.585 Z M349.1441,148.826 C349.1441,148.497 349.2311,148.235 349.4051,148.042 C349.5781,147.848 349.8041,147.751 350.0811,147.751 C350.3671,147.751 350.5941,147.849 350.7641,148.045 C350.9341,148.24 351.0191,148.493 351.0191,148.802 L351.0191,149.236 C351.0191,149.569 350.9351,149.833 350.7671,150.026 C350.5991,150.221 350.3741,150.317 350.0931,150.317 C349.8041,150.317 349.5741,150.219 349.4021,150.021 C349.2301,149.823 349.1441,149.569 349.1441,149.261 L349.1441,148.826 Z M348.3351,149.228 C348.3351,149.771 348.5011,150.205 348.8331,150.531 C349.1651,150.857 349.5851,151.021 350.0931,151.021 C350.6011,151.021 351.0181,150.856 351.3441,150.525 C351.6691,150.195 351.8331,149.774 351.8331,149.263 L351.8331,148.847 C351.8331,148.304 351.6691,147.868 351.3411,147.54 C351.0131,147.212 350.5931,147.048 350.0811,147.048 C349.5701,147.048 349.1501,147.213 348.8251,147.543 C348.4981,147.873 348.3351,148.294 348.3351,148.806 L348.3351,149.228 Z M344.9901,144.027 C344.9901,143.706 345.0741,143.445 345.2421,143.246 C345.4101,143.046 345.6381,142.946 345.9271,142.946 C346.2161,142.946 346.4451,143.046 346.6131,143.246 C346.7811,143.445 346.8651,143.698 346.8651,144.003 L346.8651,144.432 C346.8651,144.765 346.7801,145.027 346.6101,145.219 C346.4401,145.411 346.2161,145.507 345.9391,145.507 C345.6501,145.507 345.4191,145.408 345.2471,145.21 C345.0761,145.013 344.9901,144.761 344.9901,144.456 L344.9901,144.027 Z M344.1811,144.417 C344.1811,144.96 344.3471,145.395 344.6791,145.721 C345.0111,146.047 345.4311,146.21 345.9391,146.21 C346.4431,146.21 346.8581,146.047 347.1841,145.721 C347.5091,145.395 347.6731,144.974 347.6731,144.458 L347.6731,144.042 C347.6731,143.511 347.5121,143.078 347.1901,142.744 C346.8681,142.41 346.4471,142.243 345.9271,142.243 C345.4151,142.243 344.9961,142.409 344.6701,142.741 C344.3441,143.073 344.1811,143.495 344.1811,144.007 L344.1811,144.417 Z M338.8991,146.582 C338.6201,146.205 338.4801,145.726 338.4801,145.144 C338.4801,144.546 338.6241,144.064 338.9131,143.699 C339.2031,143.334 339.5851,143.151 340.0621,143.151 C340.5351,143.151 340.9251,143.374 341.2341,143.819 C341.5421,144.265 341.6971,144.843 341.6971,145.554 L341.6971,145.987 C341.5561,146.315 341.3321,146.591 341.0261,146.814 C340.7181,147.036 340.3841,147.148 340.0211,147.148 C339.5521,147.148 339.1771,146.959 338.8991,146.582 L338.8991,146.582 Z M340.9061,149.284 C340.4251,149.735 339.7381,149.968 338.8431,149.983 L338.6151,149.983 L338.6151,150.903 L338.8261,150.903 C340.1501,150.884 341.1401,150.492 341.7961,149.729 C342.4531,148.965 342.7811,147.753 342.7811,146.093 L342.7811,145.776 C342.7811,144.687 342.5381,143.826 342.0511,143.195 C341.5651,142.564 340.9001,142.249 340.0561,142.249 C339.5251,142.249 339.0601,142.37 338.6621,142.612 C338.2631,142.855 337.9551,143.204 337.7391,143.661 C337.5221,144.118 337.4131,144.632 337.4131,145.202 C337.4131,145.733 337.5131,146.219 337.7121,146.658 C337.9121,147.098 338.1931,147.439 338.5591,147.681 C338.9241,147.923 339.3531,148.044 339.8451,148.044 C340.2201,148.044 340.5651,147.962 340.8791,147.798 C341.1931,147.634 341.4641,147.417 341.6911,147.148 C341.6481,148.122 341.3861,148.834 340.9061,149.284 L340.9061,149.284 Z M334.7561,146.746 C335.0391,147.107 335.1811,147.581 335.1811,148.167 C335.1811,148.749 335.0401,149.22 334.7621,149.579 C334.4831,149.939 334.0991,150.118 333.6111,150.118 C333.1381,150.118 332.7441,149.903 332.4271,149.474 C332.1111,149.044 331.9531,148.478 331.9531,147.774 L331.9531,147.376 C332.0741,147.04 332.2901,146.761 332.6031,146.538 C332.9151,146.315 333.2571,146.204 333.6281,146.204 C334.0971,146.204 334.4721,146.385 334.7561,146.746 L334.7561,146.746 Z M334.8591,142.36 C333.5351,142.38 332.5381,142.805 331.8681,143.635 C331.1971,144.465 330.8631,145.665 330.8631,147.235 L330.8631,147.651 C330.8631,148.64 331.1171,149.447 331.6241,150.074 C332.1321,150.701 332.7941,151.015 333.6111,151.015 C334.4151,151.015 335.0571,150.751 335.5361,150.224 C336.0131,149.696 336.2531,148.993 336.2531,148.114 C336.2531,147.286 336.0311,146.61 335.5881,146.087 C335.1451,145.564 334.5521,145.302 333.8101,145.302 C333.0331,145.302 332.4191,145.56 331.9701,146.075 C332.0481,145.196 332.3371,144.515 332.8371,144.03 C333.3371,143.546 334.0091,143.296 334.8531,143.28 L335.0521,143.28 L335.0521,142.36 L334.8591,142.36 Z" id="Fill-21" fill="#FEFEFE" mask="url(#mask-4)"></path>
                <path d="M392.3511,98.585 L391.7361,98.198 L387.5701,104.866 L388.1851,105.253 L392.3511,98.585 Z M391.1441,103.826 C391.1441,103.497 391.2311,103.235 391.4051,103.042 C391.5781,102.848 391.8041,102.751 392.0811,102.751 C392.3671,102.751 392.5941,102.849 392.7641,103.045 C392.9341,103.24 393.0191,103.493 393.0191,103.802 L393.0191,104.237 C393.0191,104.57 392.9351,104.833 392.7671,105.027 C392.5991,105.221 392.3741,105.317 392.0931,105.317 C391.8041,105.317 391.5741,105.219 391.4021,105.021 C391.2301,104.823 391.1441,104.569 391.1441,104.26 L391.1441,103.826 Z M390.3351,104.228 C390.3351,104.771 390.5011,105.205 390.8331,105.531 C391.1651,105.857 391.5851,106.021 392.0931,106.021 C392.6011,106.021 393.0181,105.856 393.3441,105.525 C393.6691,105.195 393.8331,104.774 393.8331,104.263 L393.8331,103.847 C393.8331,103.304 393.6691,102.868 393.3411,102.54 C393.0131,102.212 392.5931,102.048 392.0811,102.048 C391.5701,102.048 391.1501,102.213 390.8251,102.543 C390.4981,102.873 390.3351,103.294 390.3351,103.806 L390.3351,104.228 Z M386.9901,99.027 C386.9901,98.706 387.0741,98.445 387.2421,98.246 C387.4101,98.046 387.6381,97.946 387.9271,97.946 C388.2161,97.946 388.4451,98.046 388.6131,98.246 C388.7811,98.445 388.8651,98.698 388.8651,99.003 L388.8651,99.432 C388.8651,99.765 388.7801,100.027 388.6101,100.219 C388.4401,100.411 388.2161,100.507 387.9391,100.507 C387.6501,100.507 387.4191,100.408 387.2471,100.21 C387.0761,100.013 386.9901,99.761 386.9901,99.456 L386.9901,99.027 Z M386.1811,99.417 C386.1811,99.96 386.3471,100.395 386.6791,100.721 C387.0111,101.047 387.4311,101.21 387.9391,101.21 C388.4431,101.21 388.8581,101.047 389.1841,100.721 C389.5091,100.395 389.6731,99.974 389.6731,99.458 L389.6731,99.042 C389.6731,98.511 389.5121,98.078 389.1901,97.744 C388.8681,97.41 388.4471,97.243 387.9271,97.243 C387.4151,97.243 386.9961,97.409 386.6701,97.741 C386.3441,98.073 386.1811,98.495 386.1811,99.007 L386.1811,99.417 Z M383.0991,97.325 L382.9291,97.325 L379.8241,98.491 L379.8241,99.476 L382.0091,98.673 L382.0091,105.897 L383.0991,105.897 L383.0991,97.325 Z M376.4841,98.55 C376.7531,98.823 376.8881,99.177 376.8881,99.61 C376.8881,100.044 376.7581,100.395 376.4981,100.662 C376.2381,100.93 375.8921,101.064 375.4581,101.064 C375.0251,101.064 374.6781,100.93 374.4181,100.662 C374.1581,100.395 374.0291,100.044 374.0291,99.61 C374.0291,99.157 374.1611,98.799 374.4241,98.535 C374.6881,98.272 375.0331,98.14 375.4581,98.14 C375.8721,98.14 376.2141,98.276 376.4841,98.55 L376.4841,98.55 Z M376.6541,104.711 C376.3651,104.99 375.9661,105.13 375.4581,105.13 C374.9471,105.13 374.5471,104.991 374.2601,104.714 C373.9731,104.437 373.8301,104.056 373.8301,103.571 C373.8301,103.087 373.9761,102.696 374.2721,102.399 C374.5671,102.103 374.9581,101.954 375.4471,101.954 C375.9351,101.954 376.3301,102.105 376.6331,102.405 C376.9351,102.706 377.0871,103.095 377.0871,103.571 C377.0871,104.052 376.9431,104.432 376.6541,104.711 L376.6541,104.711 Z M377.2781,97.882 C376.8151,97.46 376.2081,97.249 375.4581,97.249 C374.7051,97.249 374.0971,97.46 373.6361,97.882 C373.1751,98.304 372.9451,98.874 372.9451,99.593 C372.9451,100.015 373.0541,100.392 373.2731,100.724 C373.4921,101.056 373.7901,101.315 374.1691,101.503 C373.7241,101.694 373.3751,101.976 373.1231,102.347 C372.8721,102.718 372.7461,103.134 372.7461,103.595 C372.7461,104.329 372.9921,104.916 373.4871,105.356 C373.9811,105.795 374.6381,106.015 375.4581,106.015 C376.2711,106.015 376.9261,105.796 377.4241,105.358 C377.9221,104.921 378.1711,104.333 378.1711,103.595 C378.1711,103.13 378.0411,102.714 377.7821,102.347 C377.5211,101.98 377.1691,101.7 376.7241,101.509 C377.1071,101.321 377.4101,101.062 377.6351,100.73 C377.8601,100.397 377.9721,100.019 377.9721,99.593 C377.9721,98.874 377.7411,98.304 377.2781,97.882 L377.2781,97.882 Z" id="Fill-22" fill="#FEFEFE" mask="url(#mask-4)"></path>
                <path d="M414.3511,52.585 L413.7361,52.198 L409.5701,58.866 L410.1851,59.253 L414.3511,52.585 Z M413.1441,57.826 C413.1441,57.497 413.2301,57.235 413.4051,57.042 C413.5781,56.848 413.8041,56.751 414.0811,56.751 C414.3671,56.751 414.5941,56.849 414.7641,57.045 C414.9341,57.24 415.0191,57.493 415.0191,57.802 L415.0191,58.237 C415.0191,58.57 414.9351,58.833 414.7671,59.027 C414.5991,59.221 414.3741,59.317 414.0931,59.317 C413.8041,59.317 413.5741,59.219 413.4021,59.021 C413.2301,58.823 413.1441,58.569 413.1441,58.26 L413.1441,57.826 Z M412.3351,58.228 C412.3351,58.771 412.5011,59.205 412.8331,59.531 C413.1651,59.857 413.5851,60.021 414.0931,60.021 C414.6011,60.021 415.0171,59.856 415.3441,59.525 C415.6691,59.195 415.8331,58.774 415.8331,58.263 L415.8331,57.847 C415.8331,57.304 415.6691,56.868 415.3411,56.54 C415.0131,56.212 414.5931,56.048 414.0811,56.048 C413.5701,56.048 413.1501,56.213 412.8251,56.543 C412.4971,56.873 412.3351,57.294 412.3351,57.806 L412.3351,58.228 Z M408.9901,53.027 C408.9901,52.706 409.0741,52.445 409.2421,52.246 C409.4101,52.046 409.6381,51.946 409.9271,51.946 C410.2161,51.946 410.4451,52.046 410.6131,52.246 C410.7811,52.445 410.8651,52.698 410.8651,53.003 L410.8651,53.432 C410.8651,53.765 410.7801,54.027 410.6101,54.219 C410.4401,54.411 410.2161,54.507 409.9391,54.507 C409.6501,54.507 409.4191,54.408 409.2471,54.21 C409.0761,54.013 408.9901,53.761 408.9901,53.456 L408.9901,53.027 Z M408.1811,53.417 C408.1811,53.96 408.3471,54.395 408.6791,54.721 C409.0111,55.047 409.4311,55.21 409.9391,55.21 C410.4431,55.21 410.8571,55.047 411.1841,54.721 C411.5091,54.395 411.6731,53.974 411.6731,53.458 L411.6731,53.042 C411.6731,52.511 411.5121,52.078 411.1901,51.744 C410.8681,51.41 410.4471,51.243 409.9271,51.243 C409.4151,51.243 408.9961,51.409 408.6701,51.741 C408.3431,52.073 408.1811,52.495 408.1811,53.007 L408.1811,53.417 Z M405.2221,52.55 C405.4921,52.823 405.6261,53.177 405.6261,53.61 C405.6261,54.044 405.4961,54.395 405.2371,54.662 C404.9761,54.93 404.6301,55.064 404.1971,55.064 C403.7631,55.064 403.4151,54.93 403.1571,54.662 C402.8961,54.395 402.7671,54.044 402.7671,53.61 C402.7671,53.157 402.8991,52.799 403.1631,52.535 C403.4261,52.272 403.7711,52.14 404.1971,52.14 C404.6111,52.14 404.9531,52.276 405.2221,52.55 L405.2221,52.55 Z M405.3921,58.711 C405.1031,58.99 404.7051,59.13 404.1971,59.13 C403.6851,59.13 403.2861,58.991 402.9981,58.714 C402.7111,58.437 402.5681,58.056 402.5681,57.571 C402.5681,57.087 402.7141,56.696 403.0101,56.399 C403.3041,56.103 403.6971,55.954 404.1851,55.954 C404.6731,55.954 405.0681,56.105 405.3721,56.405 C405.6731,56.706 405.8261,57.095 405.8261,57.571 C405.8261,58.052 405.6811,58.432 405.3921,58.711 L405.3921,58.711 Z M406.0161,51.882 C405.5531,51.46 404.9471,51.249 404.1971,51.249 C403.4431,51.249 402.8351,51.46 402.3741,51.882 C401.9131,52.304 401.6831,52.874 401.6831,53.593 C401.6831,54.015 401.7921,54.392 402.0111,54.724 C402.2301,55.056 402.5291,55.315 402.9081,55.503 C402.4621,55.694 402.1141,55.976 401.8621,56.347 C401.6101,56.718 401.4841,57.134 401.4841,57.595 C401.4841,58.329 401.7301,58.916 402.2251,59.356 C402.7181,59.795 403.3761,60.015 404.1971,60.015 C405.0091,60.015 405.6641,59.796 406.1631,59.358 C406.6611,58.921 406.9101,58.333 406.9101,57.595 C406.9101,57.13 406.7791,56.714 406.5201,56.347 C406.2591,55.98 405.9081,55.7 405.4621,55.509 C405.8451,55.321 406.1481,55.062 406.3731,54.73 C406.5971,54.397 406.7101,54.019 406.7101,53.593 C406.7101,52.874 406.4791,52.304 406.0161,51.882 L406.0161,51.882 Z M398.4841,52.55 C398.7531,52.823 398.8881,53.177 398.8881,53.61 C398.8881,54.044 398.7571,54.395 398.4981,54.662 C398.2381,54.93 397.8921,55.064 397.4581,55.064 C397.0251,55.064 396.6771,54.93 396.4181,54.662 C396.1581,54.395 396.0291,54.044 396.0291,53.61 C396.0291,53.157 396.1611,52.799 396.4241,52.535 C396.6881,52.272 397.0331,52.14 397.4581,52.14 C397.8721,52.14 398.2141,52.276 398.4841,52.55 L398.4841,52.55 Z M398.6541,58.711 C398.3651,58.99 397.9661,59.13 397.4581,59.13 C396.9471,59.13 396.5471,58.991 396.2601,58.714 C395.9731,58.437 395.8301,58.056 395.8301,57.571 C395.8301,57.087 395.9761,56.696 396.2721,56.399 C396.5661,56.103 396.9581,55.954 397.4471,55.954 C397.9351,55.954 398.3301,56.105 398.6331,56.405 C398.9351,56.706 399.0871,57.095 399.0871,57.571 C399.0871,58.052 398.9431,58.432 398.6541,58.711 L398.6541,58.711 Z M399.2781,51.882 C398.8151,51.46 398.2081,51.249 397.4581,51.249 C396.7051,51.249 396.0971,51.46 395.6361,51.882 C395.1751,52.304 394.9451,52.874 394.9451,53.593 C394.9451,54.015 395.0541,54.392 395.2731,54.724 C395.4921,55.056 395.7901,55.315 396.1691,55.503 C395.7241,55.694 395.3751,55.976 395.1231,56.347 C394.8721,56.718 394.7461,57.134 394.7461,57.595 C394.7461,58.329 394.9921,58.916 395.4871,59.356 C395.9801,59.795 396.6381,60.015 397.4581,60.015 C398.2711,60.015 398.9261,59.796 399.4241,59.358 C399.9221,58.921 400.1711,58.333 400.1711,57.595 C400.1711,57.13 400.0401,56.714 399.7821,56.347 C399.5211,55.98 399.1691,55.7 398.7241,55.509 C399.1071,55.321 399.4101,55.062 399.6351,54.73 C399.8591,54.397 399.9721,54.019 399.9721,53.593 C399.9721,52.874 399.7411,52.304 399.2781,51.882 L399.2781,51.882 Z" id="Fill-23" fill="#FEFEFE" mask="url(#mask-4)"></path>
            </g>
            <g id="Group-26" transform="translate(135.000000, 0.641000)">
                <mask id="mask-6" fill="white">
                    <use xlink:href="#path-5"></use>
                </mask>
                <g id="Clip-25"></g>
                <text id="How-are-you-involved-with-nonprofit-organizations?" mask="url(#mask-6)" font-family="Roboto-Medium, Roboto" font-size="12" font-weight="400" fill="#231F20">
                    <tspan x="0.2114" y="7.562">How a</tspan>
                    <tspan x="33.9672594" y="7.562" letter-spacing="-0.1044">r</tspan>
                    <tspan x="37.9702812" y="7.562">e </tspan>
                    <tspan x="47.3980156" y="7.562" letter-spacing="-0.0948">y</tspan>
                    <tspan x="53.0571219" y="7.562">ou in</tspan>
                    <tspan x="79.2836844" y="7.562" letter-spacing="-0.0852">v</tspan>
                    <tspan x="85.0461406" y="7.562">ol</tspan>
                    <tspan x="94.942625" y="7.562" letter-spacing="-0.0732">v</tspan>
                    <tspan x="100.7288" y="7.562">ed with nonp</tspan>
                    <tspan x="169.488566" y="7.562" letter-spacing="-0.204">r</tspan>
                    <tspan x="173.292378" y="7.562">ofit o</tspan>
                    <tspan x="200.919331" y="7.562" letter-spacing="-0.1032">r</tspan>
                    <tspan x="204.923553" y="7.562">ganizations?</tspan>
                </text>
            </g>
            <text id="Give-financially" font-family="Roboto-Bold, Roboto" font-size="11" font-weight="bold" fill="#231F20">
                <tspan x="33.5586" y="57.6707758">Give financially</tspan>
            </text>
            <text id="Volunteer-time" font-family="Roboto-Regular, Roboto" font-size="11" font-weight="normal" letter-spacing="-0.2442" fill="#231F20">
                <tspan x="37.9366" y="103.529776">V</tspan>
                <tspan x="44.4438648" y="103.529776">olunteer time</tspan>
            </text>
            <text id="Share-on-social-media" font-family="Roboto-Bold, Roboto" font-size="11" font-weight="bold" fill="#231F20">
                <tspan x="0" y="149.394376">Share on social media</tspan>
            </text>
            <text id="Promote-a-campaign" font-family="Roboto-Regular, Roboto" font-size="11" font-weight="normal" fill="#231F20">
                <tspan x="7.1543" y="195.255776">P</tspan>
                <tspan x="14.0937531" y="195.255776" letter-spacing="-0.1045">r</tspan>
                <tspan x="17.6039992" y="195.255776">omote a campaign</tspan>
            </text>
        </g>
    </g>
</svg>