<?xml version="1.0" encoding="UTF-8"?>
<svg width="16px" height="15px" viewBox="0 0 16 15" version="1.1" xmlns="http://www.w3.org/2000/svg" xmlns:xlink="http://www.w3.org/1999/xlink">
    <title>download</title>
    <g id="Page-1" stroke="none" stroke-width="1" fill="none" fill-rule="evenodd">
        <g id="download" fill="#FFFFFF" fill-rule="nonzero">
            <polygon id="Path" points="9 7 9 0 7 0 7 7 4.6 7 8 11 11.4 7"></polygon>
            <path d="M15,15 L1,15 C0.4,15 0,14.6 0,14 L0,5 C0,4.4 0.4,4 1,4 L4,4 L4,6 L2,6 L2,13 L14,13 L14,6 L12,6 L12,4 L15,4 C15.6,4 16,4.4 16,5 L16,14 C16,14.6 15.6,15 15,15 Z" id="Path"></path>
        </g>
    </g>
</svg>