<?xml version="1.0" encoding="UTF-8"?>
<svg width="16px" height="16px" viewBox="0 0 16 16" version="1.1" xmlns="http://www.w3.org/2000/svg" xmlns:xlink="http://www.w3.org/1999/xlink">
    <title>EyeballWH</title>
    <g id="EyeballWH" stroke="none" stroke-width="1" fill="none" fill-rule="evenodd">
        <g id="Group">
            <rect id="Rectangle" x="0" y="0" width="16" height="16"></rect>
            <path d="M7.9625585,14 C12.6552262,14 15.650546,8.7 15.850234,8.5 C16.049922,8.2 16.049922,7.8 15.850234,7.5 C15.650546,7.3 12.6552262,2 7.9625585,2 C3.1700468,2 0.274570983,7.3 0.0748829953,7.5 C-0.0249609984,7.8 -0.0249609984,8.2 0.0748829953,8.5 C0.274570983,8.7 3.2698908,14 7.9625585,14 Z M8,4 C10.8965517,4 13.1724138,6.8 14,8 C13.1724138,9.2 10.8965517,12 8,12 C5.10344828,12 2.82758621,9.2 2,8 C2.82758621,6.8 5,4 8,4 Z" id="Shape" fill="#FFFFFF" fill-rule="nonzero"></path>
            <circle id="Oval" fill="#FFFFFF" fill-rule="nonzero" cx="8" cy="8" r="2"></circle>
        </g>
    </g>
</svg>