<?xml version="1.0" encoding="UTF-8"?>
<svg width="17px" height="12px" viewBox="0 0 17 12" version="1.1" xmlns="http://www.w3.org/2000/svg" xmlns:xlink="http://www.w3.org/1999/xlink">
    <title>eyeball</title>
    <g id="Page-1" stroke="none" stroke-width="1" fill="none" fill-rule="evenodd">
        <g id="eyeball" fill="#33669A" fill-rule="nonzero">
            <path d="M8,12 C12.7,12 15.7,6.7 15.9,6.5 C16.1,6.2 16.1,5.8 15.9,5.5 C15.7,5.3 12.7,0 8,0 C3.2,0 0.3,5.3 0.1,5.5 C3.60822483e-16,5.8 3.60822483e-16,6.2 0.1,6.5 C0.3,6.7 3.3,12 8,12 Z M8,2 C10.8,2 13,4.8 13.8,6 C13,7.2 10.8,10 8,10 C5.2,10 3,7.2 2.2,6 C3,4.8 5.1,2 8,2 Z" id="Shape"></path>
            <circle id="Oval" cx="8" cy="6" r="2"></circle>
        </g>
    </g>
</svg>